SplineFontDB: 3.0
FontName: MedievalSharp
FullName: Medieval Sharp
FamilyName: Medieval Sharp
Weight: Book
Copyright: Copyright (c) 2011, wmk69 (wmk69@o2.pl)\nwith Reserved Font Names 'MedievalSharp' and 'Medieval Sharp'.\n\nThis Font Software is licensed under the SIL Open Font License, Version 1.1.\nThis license is available with a FAQ at:\nhttp://scripts.sil.org/OFL
Version: 2.001
ItalicAngle: 0
UnderlinePosition: -81
UnderlineWidth: 122
Ascent: 1638
Descent: 410
LayerCount: 2
Layer: 0 1 "Warstwa t+AUIA-a"  1
Layer: 1 1 "Plan pierwszy"  0
XUID: [1021 783 23647091 8578152]
FSType: 0
OS2Version: 3
OS2_WeightWidthSlopeOnly: 0
OS2_UseTypoMetrics: 1
CreationTime: 1260698820
ModificationTime: 1316699045
PfmFamily: 17
TTFWeight: 400
TTFWidth: 5
LineGap: 0
VLineGap: 0
Panose: 2 1 5 4 2 2 2 1 2 4
OS2TypoAscent: 1951
OS2TypoAOffset: 0
OS2TypoDescent: -543
OS2TypoDOffset: 0
OS2TypoLinegap: 0
OS2WinAscent: 1951
OS2WinAOffset: 0
OS2WinDescent: 543
OS2WinDOffset: 0
HheadAscent: 1951
HheadAOffset: 0
HheadDescent: -543
HheadDOffset: 0
OS2SubXSize: 1434
OS2SubYSize: 1331
OS2SubXOff: 0
OS2SubYOff: 287
OS2SupXSize: 1434
OS2SupYSize: 1331
OS2SupXOff: 0
OS2SupYOff: 977
OS2StrikeYSize: 102
OS2StrikeYPos: 512
OS2Vendor: '    '
OS2CodePages: 20000093.00000000
OS2UnicodeRanges: 8000002f.4000204b.00000000.00000000
Lookup: 258 0 0 "'kern' Kerning poziomy w tablicy 0"  {"Podtablica 'kern' Kerning poziomy w tablicy 0"  } ['kern' ('DFLT' <'dflt' > 'grek' <'dflt' > 'latn' <'dflt' > ) ]
DEI: 91125
KernClass2: 20 15 "Podtablica 'kern' Kerning poziomy w tablicy 0" 
 90 A Agrave Aacute Acircumflex Atilde Adieresis Aring Amacron Abreve Aogonek Aringacute Delta
 336 B C D G O P Q R S Ccedilla Eth Ograve Oacute Ocircumflex Otilde Odieresis Thorn germandbls Cacute Ccircumflex Cdotaccent Ccaron Dcaron Dcroat Gcircumflex Gbreve Gdotaccent Gcommaaccent Omacron Obreve Ohungarumlaut Racute Rcommaaccent Rcaron Sacute Scircumflex Scedilla Scaron uni01E4 Scommaaccent uni1E02 uni1E0A uni1E56 uni1E60 uni022C

StartChar: .notdef
Encoding: 65536 -1 0
Width: 864
Flags: W
HStem: 0 88<238 626> 1422 88<238 626>
VStem: 150 88<88 1422> 626 88<88 1422>
LayerCount: 2
Fore
SplineSet
150 0 m 1,0,-1
 150 1510 l 1,1,-1
 714 1510 l 1,2,-1
 714 0 l 1,3,-1
 150 0 l 1,0,-1
626 1422 m 1,4,-1
 238 1422 l 1,5,-1
 238 88 l 1,6,-1
 626 88 l 1,7,-1
 626 1422 l 1,4,-1
EndSplineSet
Validated: 1
EndChar

StartChar: exclam
Encoding: 33 33 4
Width: 612
GlyphClass: 2
Flags: W
HStem: 0 21G<190 262> 1490 20G<365 442>
VStem: 206 202<90.3967 276.43> 231 125<391 1258.24>
LayerCount: 2
Fore
SplineSet
432 1510 m 1,0,-1
 442 1504 l 1,1,2
 388 1248 388 1248 369 925 c 0,3,4
 356 705 356 705 356 391 c 1,5,6
 278 375 278 375 231 334 c 1,7,8
 231 641 231 641 224 915 c 128,-1,9
 217 1189 217 1189 170 1418 c 1,10,11
 298 1431 298 1431 432 1510 c 1,0,-1
200 0 m 1,12,-1
 190 6 l 1,13,14
 206 94 206 94 206 146 c 0,15,16
 206 186 206 186 193 263 c 1,17,18
 288 279 288 279 412 351 c 1,19,-1
 422 345 l 1,20,21
 408 258 408 258 408 203 c 0,22,23
 408 165 408 165 418 88 c 1,24,25
 324 71 324 71 200 0 c 1,12,-1
EndSplineSet
Validated: 1
EndChar

StartChar: quotedbl
Encoding: 34 34 5
Width: 828
GlyphClass: 2
Flags: W
HStem: 946 564
VStem: 206 144<996.625 1393.61> 482 144<996.625 1393.61>
LayerCount: 2
Fore
SplineSet
668 1510 m 1,0,-1
 678 1504 l 1,1,2
 626 1381 626 1381 626 1196 c 0,3,4
 626 1126 626 1126 638 1018 c 1,5,6
 566 994 566 994 482 946 c 1,7,-1
 472 952 l 1,8,9
 482 1042 482 1042 482 1138 c 0,10,11
 482 1310 482 1310 426 1418 c 1,12,13
 531 1431 531 1431 668 1510 c 1,0,-1
392 1510 m 1,14,-1
 402 1504 l 1,15,16
 350 1381 350 1381 350 1196 c 0,17,18
 350 1126 350 1126 362 1018 c 1,19,20
 290 994 290 994 206 946 c 1,21,-1
 196 952 l 1,22,23
 206 1042 206 1042 206 1138 c 0,24,25
 206 1310 206 1310 150 1418 c 1,26,27
 255 1431 255 1431 392 1510 c 1,14,-1
EndSplineSet
Validated: 1
EndChar

StartChar: numbersign
Encoding: 35 35 6
Width: 1417
GlyphClass: 2
Flags: W
HStem: 477 222<226.343 437.014 987.038 1190.66> 535 106<631 788> 755 222<226.343 429.962 979.986 1190.66> 813 106<629 786>
VStem: 458 222<244.953 444.313 994.731 1209.05> 516 106<650 807> 736 222<244.953 447.962 998.554 1209.05> 794 106<647 804>
LayerCount: 2
Fore
SplineSet
156 477 m 1,0,-1
 150 487 l 1,1,2
 218 605 218 605 237 699 c 1,3,4
 364 664 364 664 516 650 c 1,5,6
 516 714 516 714 516 714 c 0,7,8
 516 748 516 748 515 807 c 1,9,10
 333 794 333 794 156 755 c 1,11,-1
 150 765 l 1,12,13
 218 883 218 883 237 977 c 1,14,15
 361 943 361 943 507 929 c 1,16,17
 493 1075 493 1075 458 1198 c 1,18,19
 552 1218 552 1218 670 1286 c 1,20,-1
 680 1280 l 1,21,22
 642 1103 642 1103 629 921 c 1,23,24
 674 919 674 919 722 919 c 0,25,26
 754 919 754 919 786 920 c 1,27,28
 772 1071 772 1071 736 1198 c 1,29,30
 830 1218 830 1218 948 1286 c 1,31,-1
 958 1280 l 1,32,33
 920 1105 920 1105 907 926 c 1,34,35
 1086 939 1086 939 1261 977 c 1,36,-1
 1267 967 l 1,37,38
 1199 849 1199 849 1180 755 c 1,39,40
 1053 790 1053 790 901 804 c 1,41,42
 900 758 900 758 900 740 c 0,43,44
 900 691 900 691 902 647 c 1,45,46
 1084 660 1084 660 1261 699 c 1,47,-1
 1267 689 l 1,48,49
 1199 571 1199 571 1180 477 c 1,50,51
 1056 511 1056 511 910 525 c 1,52,53
 924 379 924 379 958 256 c 1,54,55
 864 236 864 236 746 168 c 1,56,-1
 736 174 l 1,57,58
 775 351 775 351 788 533 c 1,59,60
 743 535 743 535 695 535 c 0,61,62
 663 535 663 535 631 534 c 1,63,64
 645 383 645 383 680 256 c 1,65,66
 586 236 586 236 468 168 c 1,67,-1
 458 174 l 1,68,69
 497 349 497 349 510 528 c 1,70,71
 331 515 331 515 156 477 c 1,0,-1
624 643 m 1,72,73
 672 641 672 641 722 641 c 0,74,75
 758 641 758 641 794 642 c 1,76,77
 794 714 794 714 794 714 c 0,78,79
 794 749 794 749 793 811 c 1,80,81
 745 813 745 813 695 813 c 0,82,83
 659 813 659 813 623 812 c 1,84,85
 622 775 622 775 622 732.5 c 128,-1,86
 622 690 622 690 624 643 c 1,72,73
EndSplineSet
Validated: 1
EndChar

StartChar: percent
Encoding: 37 37 7
Width: 1548
GlyphClass: 2
Flags: W
HStem: 0 21G<435.5 496 1070 1180> 1490 20G<368 478 1094 1154.5>
VStem: 150 128<1104.06 1329.26> 607 118<1027.73 1257.98> 823 128<257.058 482.264> 1280 118<180.727 410.983>
LayerCount: 2
Fore
SplineSet
1128 0 m 1,0,-1
 1118 0 l 1,1,2
 1022 34 1022 34 940 99 c 0,3,4
 823 192 823 192 823 332 c 0,5,6
 823 454 823 454 923 551 c 0,7,8
 989 614 989 614 1093 663 c 1,9,-1
 1103 663 l 1,10,11
 1199 629 1199 629 1281 564 c 0,12,13
 1398 471 1398 471 1398 331 c 0,14,15
 1398 209 1398 209 1298 112 c 0,16,17
 1232 49 1232 49 1128 0 c 1,0,-1
1001 524 m 1,18,19
 951 472 951 472 951 377 c 0,20,21
 951 256 951 256 1083 195 c 0,22,23
 1156 162 1156 162 1222 141 c 1,24,25
 1280 220 1280 220 1280 288 c 0,26,27
 1280 412 1280 412 1154 470 c 0,28,29
 1098 496 1098 496 1001 524 c 1,18,19
420 1510 m 1,30,-1
 430 1510 l 1,31,32
 526 1476 526 1476 608 1411 c 0,33,34
 725 1318 725 1318 725 1178 c 0,35,36
 725 1056 725 1056 625 959 c 0,37,38
 559 896 559 896 455 847 c 1,39,-1
 445 847 l 1,40,41
 349 881 349 881 267 946 c 0,42,43
 150 1039 150 1039 150 1179 c 0,44,45
 150 1301 150 1301 250 1398 c 0,46,47
 316 1461 316 1461 420 1510 c 1,30,-1
496 6 m 1,48,-1
 486 0 l 1,49,50
 385 58 385 58 296 82 c 1,51,52
 510 390 510 390 758 830 c 0,53,54
 944 1160 944 1160 1094 1504 c 1,55,-1
 1104 1510 l 1,56,57
 1205 1452 1205 1452 1294 1428 c 1,58,59
 1033 1063 1033 1063 868 772 c 0,60,61
 618 331 618 331 496 6 c 1,48,-1
328 1371 m 1,62,63
 278 1319 278 1319 278 1224 c 0,64,65
 278 1103 278 1103 410 1042 c 0,66,67
 483 1009 483 1009 549 988 c 1,68,69
 607 1067 607 1067 607 1135 c 0,70,71
 607 1259 607 1259 481 1317 c 0,72,73
 425 1343 425 1343 328 1371 c 1,62,63
EndSplineSet
Validated: 1
EndChar

StartChar: ampersand
Encoding: 38 38 8
Width: 1378
VWidth: 0
GlyphClass: 2
Flags: W
HStem: 0 21G<526 698 1076 1154.5> 1490 20G<544.5 685>
VStem: 120 139<412.606 621.682> 168 144<1023.43 1226.76> 1096 138<434.281 666.484>
LayerCount: 2
Fore
SplineSet
645 0 m 1,0,-1
 635 0 l 1,1,2
 417 95 417 95 312 155 c 0,3,4
 120 265 120 265 120 435 c 0,5,6
 120 574 120 574 193 665 c 128,-1,7
 266 756 266 756 354 792 c 1,8,9
 168 868 168 868 168 1054 c 0,10,11
 168 1236 168 1236 330 1358 c 0,12,13
 456 1453 456 1453 633 1510 c 1,14,-1
 643 1510 l 1,15,16
 727 1491 727 1491 818 1438 c 0,17,18
 910 1384 910 1384 984 1296 c 1,19,-1
 785 1198 l 1,20,21
 742 1264 742 1264 628 1324 c 0,22,23
 509 1386 509 1386 407 1386 c 1,24,25
 312 1311 312 1311 312 1162 c 0,26,27
 312 1002 312 1002 489 919 c 0,28,29
 579 877 579 877 690 860 c 1,30,31
 833 604 833 604 1057 358 c 1,32,33
 1096 446 1096 446 1096 550 c 0,34,35
 1096 682 1096 682 925 756 c 1,36,37
 996 818 996 818 1030 916 c 1,38,-1
 1041 920 l 1,39,40
 1234 833 1234 833 1234 642 c 0,41,42
 1234 456 1234 456 1107 305 c 1,43,44
 1210 192 1210 192 1328 92 c 1,45,46
 1223 79 1223 79 1086 0 c 1,47,-1
 1076 6 l 1,48,49
 1030 110 1030 110 979 184 c 1,50,51
 751 28 751 28 645 0 c 1,0,-1
470 796 m 1,52,53
 259 701 259 701 259 511 c 0,54,55
 259 400 259 400 469 293 c 0,56,57
 644 204 644 204 874 145 c 1,58,59
 921 178 921 178 959 216 c 1,60,61
 760 524 760 524 470 796 c 1,52,53
EndSplineSet
Validated: 1
EndChar

StartChar: quotesingle
Encoding: 39 39 9
Width: 552
GlyphClass: 2
Flags: W
HStem: 946 564
VStem: 206 144<996.625 1393.61>
LayerCount: 2
Fore
SplineSet
392 1510 m 1,0,-1
 402 1504 l 1,1,2
 350 1381 350 1381 350 1196 c 0,3,4
 350 1126 350 1126 362 1018 c 1,5,6
 290 994 290 994 206 946 c 1,7,-1
 196 952 l 1,8,9
 206 1042 206 1042 206 1138 c 0,10,11
 206 1310 206 1310 150 1418 c 1,12,13
 255 1431 255 1431 392 1510 c 1,0,-1
EndSplineSet
Validated: 1
EndChar

StartChar: parenleft
Encoding: 40 40 10
Width: 856
GlyphClass: 2
Flags: W
HStem: 1710 10<836.972 846>
VStem: 150 148<356.611 980.734>
LayerCount: 2
Fore
SplineSet
846 1720 m 1,0,-1
 846 1710 l 1,1,2
 556 1554 556 1554 409 1200 c 0,3,4
 298 933 298 933 298 662 c 0,5,6
 298 377 298 377 429 166 c 0,7,8
 578 -74 578 -74 814 -213 c 9,9,-1
 628 -324 l 1,10,11
 425 -177 425 -177 287 58 c 0,12,13
 150 290 150 290 150 639 c 0,14,15
 150 950 150 950 288 1230 c 0,16,17
 480 1620 480 1620 846 1720 c 1,0,-1
EndSplineSet
Validated: 1
EndChar

StartChar: parenright
Encoding: 41 41 11
Width: 856
GlyphClass: 2
Flags: W
HStem: -212 10<10 19.0276>
VStem: 558 148<527.266 1151.39>
LayerCount: 2
Fore
SplineSet
10 -212 m 1,0,-1
 10 -202 l 1,1,2
 300 -46 300 -46 447 308 c 0,3,4
 558 575 558 575 558 846 c 0,5,6
 558 1131 558 1131 427 1342 c 0,7,8
 278 1582 278 1582 42 1721 c 9,9,-1
 228 1832 l 1,10,11
 431 1685 431 1685 569 1450 c 0,12,13
 706 1218 706 1218 706 869 c 0,14,15
 706 558 706 558 568 278 c 0,16,17
 376 -112 376 -112 10 -212 c 1,0,-1
EndSplineSet
Validated: 1
EndChar

StartChar: asterisk
Encoding: 42 42 12
Width: 1238
GlyphClass: 2
Flags: W
HStem: 1490 20G<661 730>
VStem: 508 222<620.343 807.968 1246.03 1433.66>
LayerCount: 2
Fore
SplineSet
720 1510 m 1,0,-1
 730 1504 l 1,1,2
 684 1294 684 1294 674 1125 c 1,3,4
 795 1209 795 1209 906 1321 c 1,5,6
 970 1249 970 1249 1088 1181 c 1,7,-1
 1087 1169 l 1,8,9
 881 1104 881 1104 729 1027 c 1,10,11
 881 950 881 950 1087 885 c 1,12,-1
 1088 873 l 1,13,14
 970 805 970 805 906 733 c 1,15,16
 796 844 796 844 676 927 c 1,17,18
 688 782 688 782 730 631 c 1,19,20
 636 612 636 612 518 544 c 1,21,-1
 508 550 l 1,22,23
 554 760 554 760 563 929 c 1,24,25
 442 845 442 845 331 733 c 1,26,27
 268 805 268 805 150 873 c 1,28,-1
 150 885 l 1,29,30
 356 950 356 950 508 1027 c 1,31,32
 356 1104 356 1104 150 1169 c 1,33,-1
 150 1181 l 1,34,35
 268 1249 268 1249 331 1321 c 1,36,37
 441 1210 441 1210 561 1127 c 1,38,39
 549 1272 549 1272 508 1423 c 1,40,41
 602 1442 602 1442 720 1510 c 1,0,-1
EndSplineSet
Validated: 1
EndChar

StartChar: plus
Encoding: 43 43 13
Width: 1266
GlyphClass: 2
Flags: W
HStem: 635 222<226.343 413.573 852.427 1039.66>
VStem: 522 222<339.343 526.573 965.427 1152.66>
LayerCount: 2
Fore
SplineSet
156 635 m 1,0,-1
 150 645 l 1,1,2
 218 763 218 763 237 857 c 1,3,4
 411.277 808.866 411.277 808.866 578.322 800.678 c 1,5,6
 570.133 967.723 570.133 967.723 522 1142 c 1,7,8
 616 1161 616 1161 734 1229 c 1,9,-1
 744 1223 l 1,10,11
 691.733 985.093 691.733 985.093 686.567 799.567 c 1,12,13
 872.093 804.733 872.093 804.733 1110 857 c 1,14,-1
 1116 847 l 1,15,16
 1048 729 1048 729 1029 635 c 1,17,18
 854.723 683.134 854.723 683.134 687.678 691.322 c 1,19,20
 695.867 524.277 695.867 524.277 744 350 c 1,21,22
 650 331 650 331 532 263 c 1,23,-1
 522 269 l 1,24,25
 574.267 506.907 574.267 506.907 579.433 692.433 c 1,26,27
 393.907 687.267 393.907 687.267 156 635 c 1,0,-1
EndSplineSet
Validated: 1
EndChar

StartChar: comma
Encoding: 44 44 14
Width: 631
GlyphClass: 2
Flags: W
HStem: -222 16<124 134.151>
VStem: 289 182<-53.7 155.76>
LayerCount: 2
Fore
SplineSet
386 297 m 1,0,-1
 396 291 l 1,1,2
 471 192 471 192 471 90 c 0,3,4
 471 -136 471 -136 124 -222 c 1,5,6
 124 -215 124 -215 124 -206 c 1,7,8
 289 -113 289 -113 289 42 c 0,9,10
 289 154 289 154 167 209 c 1,11,12
 262 225 262 225 386 297 c 1,0,-1
EndSplineSet
Validated: 1
EndChar

StartChar: hyphen
Encoding: 45 45 15
Width: 1266
GlyphClass: 2
Flags: W
HStem: 635 222<226.343 411.101 854.899 1039.66> 693 106<291.699 974.301>
LayerCount: 2
Fore
SplineSet
156 635 m 1,0,-1
 150 645 l 1,1,2
 218 763 218 763 237 857 c 1,3,4
 447 799 447 799 646.5 799 c 128,-1,5
 846 799 846 799 1110 857 c 1,6,-1
 1116 847 l 1,7,8
 1048 729 1048 729 1029 635 c 1,9,10
 819 693 819 693 619.5 693 c 128,-1,11
 420 693 420 693 156 635 c 1,0,-1
EndSplineSet
Validated: 1
EndChar

StartChar: period
Encoding: 46 46 16
Width: 532
GlyphClass: 2
Flags: W
HStem: 0 351
VStem: 166 202<90.3967 276.43>
LayerCount: 2
Fore
SplineSet
160 0 m 1,0,-1
 150 6 l 1,1,2
 166 94 166 94 166 146 c 0,3,4
 166 186 166 186 153 263 c 1,5,6
 248 279 248 279 372 351 c 1,7,-1
 382 345 l 1,8,9
 368 258 368 258 368 203 c 0,10,11
 368 165 368 165 378 88 c 1,12,13
 284 71 284 71 160 0 c 1,0,-1
EndSplineSet
Validated: 1
EndChar

StartChar: slash
Encoding: 47 47 17
Width: 1076
GlyphClass: 2
Flags: W
LayerCount: 2
Fore
SplineSet
210 -144 m 1,0,1
 200 -150 l 1,2,3
 99 -92 99 -92 10 -68 c 1,4,5
 287 369 287 369 518 835 c 0,6,7
 745.143 1293.22 745.143 1293.22 866 1654 c 1,8,-1
 876 1660 l 1,9,10
 977 1602 977 1602 1066 1578 c 1,11,12
 836 1194 836 1194 628 777 c 0,13,14
 384.249 288.327 384.249 288.327 210 -144 c 1,0,1
EndSplineSet
Validated: 1
EndChar

StartChar: zero
Encoding: 48 48 18
Width: 1354
VWidth: 0
GlyphClass: 2
Flags: W
HStem: 0 21G<562.5 800.5> 1490 20G<550.5 793.5>
VStem: 120 168<576.22 1015.22> 1066 168<492.886 933.533>
LayerCount: 2
Fore
SplineSet
443 1365 m 1,0,1
 288 1159 288 1159 288 811 c 0,2,3
 288 534 288 534 502 336 c 24,4,5
 681 171 681 171 911 145 c 1,6,7
 1066 348 1066 348 1066 699 c 0,8,9
 1066 975 1066 975 852 1174 c 24,10,11
 678 1336 678 1336 443 1365 c 1,0,1
706 0 m 1,12,13
 696 0 l 1,14,15
 429 116 429 116 298 260 c 0,16,17
 120 457 120 457 120 750 c 0,18,19
 120 1044 120 1044 308 1257 c 0,20,21
 453 1420 453 1420 648 1510 c 1,22,-1
 658 1510 l 1,23,24
 929 1389 929 1389 1056 1250 c 0,25,26
 1234 1053 1234 1053 1234 760 c 0,27,28
 1234 461 1234 461 1046 253 c 0,29,30
 895 86 895 86 706 0 c 1,12,13
EndSplineSet
Validated: 1
EndChar

StartChar: one
Encoding: 49 49 19
Width: 781
GlyphClass: 2
Flags: W
HStem: 0 21G<326 401> 1490 20G<504 581>
VStem: 370 166<284.445 1215.39>
LayerCount: 2
Fore
SplineSet
336 0 m 1,0,-1
 326 6 l 1,1,2
 370 328 370 328 370 730 c 0,3,4
 370 948 370 948 348 1224 c 1,5,6
 236 1127 236 1127 166 946 c 1,7,8
 112 997 112 997 10 1023 c 1,9,10
 223 1192 223 1192 329 1418 c 1,11,12
 437 1432 437 1432 571 1510 c 1,13,-1
 581 1504 l 1,14,15
 536 1142 536 1142 536 782 c 0,16,17
 536 433 536 433 578 92 c 1,18,19
 466 76 466 76 336 0 c 1,0,-1
EndSplineSet
Validated: 1
EndChar

StartChar: four
Encoding: 52 52 20
Width: 1148
GlyphClass: 2
Flags: W
HStem: 0 21G<693 768> 364 96<243.946 719.91> 1490 20G<869 948>
VStem: 725 178<480.617 997.467>
LayerCount: 2
Fore
SplineSet
703 0 m 1,0,-1
 693 6 l 1,1,2
 721 256 721 256 725 354 c 1,3,4
 562 364 562 364 413 364 c 0,5,6
 246 364 246 364 48 331 c 1,7,-1
 10 439 l 1,8,9
 394 868 394 868 696 1418 c 1,10,11
 800 1430 800 1430 938 1510 c 1,12,-1
 948 1504 l 1,13,14
 903 1125 903 1125 903 782 c 0,15,16
 903 438 903 438 945 92 c 1,17,18
 833 77 833 77 703 0 c 1,0,-1
732 480 m 1,19,20
 732 842 732 842 716 1221 c 1,21,22
 434 864 434 864 239 471 c 1,23,24
 391 460 391 460 485 460 c 128,-1,25
 579 460 579 460 732 480 c 1,19,20
EndSplineSet
Validated: 1
EndChar

StartChar: six
Encoding: 54 54 21
Width: 1310
VWidth: 0
GlyphClass: 2
Flags: W
HStem: 0 21G<561 800.5> 782 180<695.505 835.125> 1490 20G<552.5 791>
VStem: 120 168<576.467 1016.36> 1032 158<398.596 629.783>
LayerCount: 2
Fore
SplineSet
706 0 m 1,0,-1
 696 0 l 1,1,2
 426 118 426 118 298 260 c 0,3,4
 120 457 120 457 120 750 c 0,5,6
 120 1046 120 1046 308 1257 c 0,7,8
 457 1423 457 1423 648 1510 c 1,9,-1
 658 1510 l 1,10,11
 924 1393 924 1393 1056 1250 c 0,12,13
 1082 1223 1082 1223 1110 1183 c 1,14,-1
 928 1093 l 1,15,16
 884 1146 884 1146 852 1174 c 0,17,18
 663 1339 663 1339 443 1365 c 1,19,20
 288 1162 288 1162 288 811 c 0,21,22
 288 535 288 535 502 336 c 24,23,24
 679 172 679 172 911 145 c 1,25,26
 1032 262 1032 262 1032 474 c 0,27,28
 1032 782 1032 782 528 782 c 9,29,-1
 710 962 l 17,30,31
 1190 898 1190 898 1190 582 c 0,32,33
 1190 412 1190 412 1046 253 c 0,34,35
 895 86 895 86 706 0 c 1,0,-1
EndSplineSet
Validated: 1
EndChar

StartChar: seven
Encoding: 55 55 22
Width: 988
GlyphClass: 2
Flags: W
HStem: 0 21G<172 251> 1374 91<230.572 664.529> 1490 20G<103.5 210 844 968>
LayerCount: 2
Fore
SplineSet
182 0 m 1,0,-1
 172 6 l 1,1,2
 516 754 516 754 669 1365 c 1,3,4
 601 1374 601 1374 465 1374 c 0,5,6
 315 1374 315 1374 26 1258 c 1,7,-1
 20 1268 l 1,8,9
 95 1394 95 1394 112 1510 c 1,10,11
 308 1465 308 1465 460 1465 c 0,12,13
 730 1465 730 1465 958 1510 c 1,14,-1
 968 1504 l 1,15,16
 642 849 642 849 442 95 c 1,17,18
 320 80 320 80 182 0 c 1,0,-1
EndSplineSet
Validated: 1
EndChar

StartChar: eight
Encoding: 56 56 23
Width: 1212
VWidth: 0
GlyphClass: 2
Flags: W
HStem: 0 21G<561.5 740.5> 1490 20G<493 693>
VStem: 120 186<338.333 539.082> 161 135<1030.02 1201.98> 800 171<1045.56 1212.62> 930 162<339.469 547.147>
DStem2: 451 954 413 758 0.929807 -0.368048<-153.973 79.1498 103.805 229.989 252.733 585.283>
LayerCount: 2
Fore
SplineSet
646 0 m 1,0,-1
 636 0 l 1,1,2
 487 29 487 29 348 100 c 0,3,4
 120 216 120 216 120 377 c 0,5,6
 120 582 120 582 348 694 c 1,7,-1
 453 744 l 1,8,-1
 413 758 l 1,9,10
 161 843 161 843 161 1056 c 0,11,12
 161 1161 161 1161 248 1257 c 0,13,14
 398 1423 398 1423 588 1510 c 1,15,-1
 598 1510 l 1,16,17
 788 1439 788 1439 886 1341 c 0,18,19
 971 1256 971 1256 971 1174 c 0,20,21
 971 1056 971 1056 840 962 c 0,22,23
 753 900 753 900 686 861 c 1,24,-1
 835 802 l 2,25,26
 1092 700 1092 700 1092 505 c 0,27,28
 1092 372 1092 372 986 253 c 0,29,30
 835 86 835 86 646 0 c 1,0,-1
643 878 m 1,31,32
 800 995 800 995 800 1104 c 0,33,34
 800 1190 800 1190 716 1247 c 0,35,36
 569 1346 569 1346 399 1368 c 1,37,38
 296 1259 296 1259 296 1151 c 0,39,40
 296 1020 296 1020 451 954 c 1,41,-1
 643 878 l 1,31,32
506 725 m 1,42,43
 306 596 306 596 306 450 c 0,44,45
 306 318 306 318 499 245 c 0,46,47
 687 174 687 174 847 145 c 1,48,49
 930 268 930 268 930 415 c 0,50,51
 930 571 930 571 757 634 c 2,52,-1
 506 725 l 1,42,43
EndSplineSet
Validated: 1
EndChar

StartChar: nine
Encoding: 57 57 24
Width: 1310
VWidth: 0
GlyphClass: 2
Flags: W
HStem: 0 21G<519 757.5> 548 180<474.875 614.495> 1490 20G<509.5 749>
VStem: 120 158<880.217 1111.4> 1022 168<493.635 933.533>
LayerCount: 2
Fore
SplineSet
662 0 m 1,0,-1
 652 0 l 1,1,2
 386 117 386 117 254 260 c 0,3,4
 228 287 228 287 200 327 c 1,5,-1
 382 417 l 1,6,7
 426 364 426 364 458 336 c 0,8,9
 647 171 647 171 867 145 c 1,10,11
 1022 348 1022 348 1022 699 c 0,12,13
 1022 975 1022 975 808 1174 c 24,14,15
 631 1338 631 1338 399 1365 c 1,16,17
 278 1248 278 1248 278 1036 c 0,18,19
 278 728 278 728 782 728 c 9,20,-1
 600 548 l 17,21,22
 120 612 120 612 120 928 c 0,23,24
 120 1098 120 1098 264 1257 c 0,25,26
 415 1424 415 1424 604 1510 c 1,27,-1
 614 1510 l 1,28,29
 884 1392 884 1392 1012 1250 c 0,30,31
 1190 1053 1190 1053 1190 760 c 0,32,33
 1190 464 1190 464 1002 253 c 0,34,35
 853 87 853 87 662 0 c 1,0,-1
EndSplineSet
Validated: 1
EndChar

StartChar: colon
Encoding: 58 58 25
Width: 532
GlyphClass: 2
Flags: W
HStem: 0 21G<150 222>
VStem: 150 228<77.9785 144.366 147.259 201.803 204.727 271.811 649.979 716.366 719.259 773.803 776.727 843.811> 166 202<90.3967 260.603 662.397 832.603>
LayerCount: 2
Fore
SplineSet
372 923 m 1,0,-1
 382 917 l 1,1,2
 368 830 368 830 368 775 c 0,3,4
 368 737 368 737 378 660 c 1,5,6
 284 643 284 643 160 572 c 1,7,-1
 150 578 l 1,8,9
 166 666 166 666 166 718 c 0,10,11
 166 758 166 758 153 835 c 1,12,13
 248 851 248 851 372 923 c 1,0,-1
160 0 m 1,14,-1
 150 6 l 1,15,16
 166 94 166 94 166 146 c 0,17,18
 166 186 166 186 153 263 c 1,19,20
 248 279 248 279 372 351 c 1,21,-1
 382 345 l 1,22,23
 368 258 368 258 368 203 c 0,24,25
 368 165 368 165 378 88 c 1,26,27
 284 71 284 71 160 0 c 1,14,-1
EndSplineSet
Validated: 1
EndChar

StartChar: semicolon
Encoding: 59 59 26
Width: 631
GlyphClass: 2
Flags: W
HStem: -222 16<124 134.151>
VStem: 190 228<649.979 716.366 719.259 773.803 776.727 843.811> 206 202<662.397 832.603> 289 182<-53.7 155.76>
LayerCount: 2
Fore
SplineSet
412 923 m 1,0,-1
 422 917 l 1,1,2
 408 830 408 830 408 775 c 0,3,4
 408 737 408 737 418 660 c 1,5,6
 324 643 324 643 200 572 c 1,7,-1
 190 578 l 1,8,9
 206 666 206 666 206 718 c 0,10,11
 206 758 206 758 193 835 c 1,12,13
 288 851 288 851 412 923 c 1,0,-1
386 297 m 1,14,-1
 396 291 l 1,15,16
 471 192 471 192 471 90 c 0,17,18
 471 -136 471 -136 124 -222 c 1,19,20
 124 -215 124 -215 124 -206 c 1,21,22
 289 -113 289 -113 289 42 c 0,23,24
 289 154 289 154 167 209 c 1,25,26
 262 225 262 225 386 297 c 1,14,-1
EndSplineSet
Validated: 1
EndChar

StartChar: less
Encoding: 60 60 27
Width: 1380
GlyphClass: 2
Flags: W
LayerCount: 2
Fore
SplineSet
150 645 m 1,0,1
 218 763 218 763 237 857 c 1,2,3
 645 973 645 973 1174 1254 c 1,4,-1
 1180 1244 l 1,5,6
 1136 1169 1136 1169 1108 1088 c 1,7,8
 750 979 750 979 408 786 c 1,9,10
 662 568 662 568 1174 459 c 1,11,-1
 1180 449 l 1,12,13
 1109 324 1109 324 1093 237 c 1,14,15
 693 505 693 505 156 635 c 1,16,-1
 150 645 l 1,0,1
EndSplineSet
Validated: 1
EndChar

StartChar: equal
Encoding: 61 61 28
Width: 1266
GlyphClass: 2
Flags: W
HStem: 460 222<226.343 411.101 854.899 1039.66> 518 106<291.699 974.301> 810 222<226.343 411.101 854.899 1039.66> 868 106<291.699 974.301>
LayerCount: 2
Fore
SplineSet
156 460 m 1,0,-1
 150 470 l 1,1,2
 218 588 218 588 237 682 c 1,3,4
 447 624 447 624 646.5 624 c 128,-1,5
 846 624 846 624 1110 682 c 1,6,-1
 1116 672 l 1,7,8
 1048 554 1048 554 1029 460 c 1,9,10
 819 518 819 518 619.5 518 c 128,-1,11
 420 518 420 518 156 460 c 1,0,-1
156 810 m 1,12,-1
 150 820 l 1,13,14
 218 938 218 938 237 1032 c 1,15,16
 447 974 447 974 646.5 974 c 128,-1,17
 846 974 846 974 1110 1032 c 1,18,-1
 1116 1022 l 1,19,20
 1048 904 1048 904 1029 810 c 1,21,22
 819 868 819 868 619.5 868 c 128,-1,23
 420 868 420 868 156 810 c 1,12,-1
EndSplineSet
Validated: 1
EndChar

StartChar: greater
Encoding: 62 62 29
Width: 1380
GlyphClass: 2
Flags: W
LayerCount: 2
Fore
SplineSet
1180 846 m 1,0,1
 1112 728 1112 728 1093 634 c 1,2,3
 685 518 685 518 156 237 c 1,4,-1
 150 247 l 1,5,6
 194 322 194 322 222 403 c 1,7,8
 580 512 580 512 922 705 c 1,9,10
 668 923 668 923 156 1032 c 1,11,-1
 150 1042 l 1,12,13
 221 1167 221 1167 237 1254 c 1,14,15
 637 986 637 986 1174 856 c 1,16,-1
 1180 846 l 1,0,1
EndSplineSet
Validated: 1
EndChar

StartChar: question
Encoding: 63 63 30
Width: 1229
GlyphClass: 2
Flags: W
HStem: 0 21G<434 506> 1490 20G<490.5 733.5>
VStem: 150 149<1032.61 1190.31> 447 157<408.159 549.317> 450 202<90.3967 276.43> 909 170<884.367 1098.6>
LayerCount: 2
Fore
SplineSet
444 0 m 1,0,-1
 434 6 l 1,1,2
 450 94 450 94 450 146 c 0,3,4
 450 186 450 186 437 263 c 1,5,6
 532 279 532 279 656 351 c 1,7,-1
 666 345 l 1,8,9
 652 258 652 258 652 203 c 0,10,11
 652 165 652 165 662 88 c 1,12,13
 568 71 568 71 444 0 c 1,0,-1
585 1510 m 1,14,-1
 595 1510 l 1,15,16
 872 1385 872 1385 993 1250 c 0,17,18
 1079 1152 1079 1152 1079 1028 c 0,19,20
 1079 851 1079 851 883 717 c 0,21,-1
 674 572 l 0,22,23
 604 526 604 526 604 459 c 0,24,25
 604 438 604 438 621 417 c 1,26,27
 530 396 530 396 468 351 c 1,28,29
 447 382 447 382 447 419 c 0,30,31
 447 529 447 529 566 629 c 0,32,33
 650 699 650 699 788 810 c 0,34,35
 909 907 909 907 909 982 c 0,36,37
 909 1070 909 1070 799 1173 c 0,38,39
 621 1337 621 1337 380 1365 c 1,40,41
 299 1287 299 1287 299 1141 c 8,42,43
 299 1030 299 1030 432 974 c 1,44,-1
 236 840 l 1,45,46
 150 907 150 907 150 1052 c 24,47,48
 150 1151 150 1151 245 1257 c 0,49,50
 396 1424 396 1424 585 1510 c 1,14,-1
EndSplineSet
Validated: 1
EndChar

StartChar: at
Encoding: 64 64 31
Width: 1237
GlyphClass: 2
Flags: W
HStem: -380 21G<544 742.5> 0 21G<627 762.5 885 961> 1110 20G<532.5 727>
VStem: 100 137<193.615 635.078> 378 152<300.251 560.107> 923 168<96.6675 730.609>
LayerCount: 2
Fore
SplineSet
895 0 m 1,0,-1
 885 6 l 1,1,2
 923 322 923 322 923 537 c 0,3,4
 923 724 923 724 797 834 c 0,5,6
 659 955 659 955 432 990 c 1,7,8
 237 756 237 756 237 407 c 0,9,10
 237 166 237 166 435 -24 c 24,11,12
 628 -210 628 -210 905 -243 c 1,13,14
 799 -329 799 -329 686 -380 c 1,15,-1
 676 -380 l 1,16,17
 412 -266 412 -266 278 -120 c 0,18,19
 100 74 100 74 100 370 c 128,-1,20
 100 666 100 666 288 877 c 0,21,22
 437 1044 437 1044 628 1130 c 1,23,-1
 638 1130 l 1,24,25
 816 1066 816 1066 926 961 c 0,26,27
 1091 802 1091 802 1091 562 c 0,28,29
 1091 240 1091 240 1137 92 c 1,30,31
 1027 77 1027 77 895 0 c 1,0,-1
723 0 m 1,32,-1
 713 0 l 1,33,34
 541 88 541 88 467 182 c 0,35,36
 378 295 378 295 378 415 c 0,37,38
 378 528 378 528 468 614 c 24,39,40
 600 740 600 740 797 742 c 1,41,42
 530 608 530 608 530 436 c 0,43,44
 530 305 530 305 648 238 c 0,45,46
 734 189 734 189 887 138 c 1,47,48
 802 46 802 46 723 0 c 1,32,-1
EndSplineSet
Validated: 1
EndChar

StartChar: A
Encoding: 65 65 32
Width: 1285
GlyphClass: 2
Flags: W
HStem: 0 21G<5 62.5 1028 1106.5> 496 81<363 915> 1490 20G<688 766>
LayerCount: 2
Fore
SplineSet
15 0 m 1,0,-1
 5 6 l 1,1,2
 341 691 341 691 514 1418 c 1,3,4
 620 1431 620 1431 756 1510 c 1,5,-1
 766 1504 l 1,6,7
 942 738 942 738 1280 92 c 1,8,9
 1175 79 1175 79 1038 0 c 1,10,-1
 1028 6 l 1,11,12
 988 254 988 254 915 486 c 1,13,14
 824 496 824 496 615 496 c 24,15,16
 444 496 444 496 323 476 c 1,17,18
 270 303 270 303 210 83 c 1,19,20
 110 57 110 57 15 0 c 1,0,-1
621 1247 m 1,21,22
 469 911 469 911 363 588 c 1,23,24
 465 577 465 577 611 577 c 0,25,26
 791 577 791 577 884 586 c 1,27,28
 798 890 798 890 621 1247 c 1,21,22
EndSplineSet
Validated: 1
EndChar

StartChar: C
Encoding: 67 67 33
Width: 1287
VWidth: 0
GlyphClass: 2
Flags: W
HStem: 0 21G<562.5 799> 1490 20G<550.5 782.5>
VStem: 120 168<576.22 1015.87>
LayerCount: 2
Fore
SplineSet
706 0 m 1,0,1
 696 0 l 1,2,3
 429 116 429 116 298 260 c 0,4,5
 120 457 120 457 120 750 c 0,6,7
 120 1044 120 1044 308 1257 c 0,8,9
 453 1420 453 1420 648 1510 c 1,10,-1
 658 1510 l 1,11,12
 907 1399 907 1399 1056 1250 c 0,13,14
 1066 1240 1066 1240 1079 1223 c 1,15,-1
 898 1127 l 1,16,17
 888 1139 888 1139 852 1174 c 0,18,19
 686 1335 686 1335 443 1365 c 1,20,21
 288 1162 288 1162 288 811 c 0,22,23
 288 534 288 534 502 336 c 24,24,25
 680 172 680 172 911 145 c 1,26,27
 982 226 982 226 982 401 c 0,28,29
 982 497 982 497 966 552 c 9,30,-1
 1187 484 l 17,31,32
 1138 353 1138 353 1046 253 c 0,33,34
 892 84 892 84 706 0 c 1,0,1
EndSplineSet
Validated: 1
EndChar

StartChar: E
Encoding: 69 69 34
Width: 1099
GlyphClass: 2
Flags: W
HStem: 0 21G<180 293.5 879.5 964.5> 45 91<428.012 865.888> 690 93<391 691.938> 1258 252<753.735 896.805>
VStem: 224 167<230.531 690 783 1231.35>
LayerCount: 2
Fore
SplineSet
190 0 m 1,0,-1
 180 6 l 1,1,2
 224 364 224 364 224 730 c 0,3,4
 224 1064 224 1064 183 1418 c 1,5,6
 288 1431 288 1431 425 1510 c 1,7,8
 538 1463 538 1463 692 1463 c 0,9,10
 833 1463 833 1463 975 1510 c 1,11,-1
 981 1500 l 1,12,13
 904 1368 904 1368 889 1258 c 1,14,15
 753 1267 753 1267 631 1327 c 0,16,17
 511 1386 511 1386 432 1478 c 1,18,19
 390 1133 390 1133 390 783 c 1,20,21
 640 783 640 783 868 898 c 1,22,-1
 874 888 l 1,23,24
 797 756 797 756 782 646 c 1,25,26
 607 690 607 690 391 690 c 1,27,28
 395 411 395 411 426 145 c 1,29,30
 490 136 490 136 603 136 c 0,31,32
 812 136 812 136 1043 252 c 1,33,-1
 1049 242 l 1,34,35
 972 110 972 110 957 0 c 1,36,37
 802 45 802 45 608 45 c 0,38,39
 397 45 397 45 190 0 c 1,0,-1
EndSplineSet
Validated: 1
EndChar

StartChar: G
Encoding: 71 71 35
Width: 1354
VWidth: 0
GlyphClass: 2
Flags: W
HStem: 0 21G<562.5 802> 1490 20G<550.5 786>
VStem: 120 168<576.22 1015.87> 1066 168<494.078 742>
LayerCount: 2
Fore
SplineSet
706 0 m 1,0,1
 696 0 l 1,2,3
 429 116 429 116 298 260 c 0,4,5
 120 457 120 457 120 750 c 0,6,7
 120 1044 120 1044 308 1257 c 0,8,9
 453 1420 453 1420 648 1510 c 1,10,-1
 658 1510 l 1,11,12
 914 1400 914 1400 1056 1250 c 0,13,14
 1066 1240 1066 1240 1079 1223 c 1,15,-1
 898 1127 l 1,16,17
 888 1139 888 1139 852 1174 c 0,18,19
 690 1331 690 1331 443 1365 c 1,20,21
 288 1162 288 1162 288 811 c 0,22,23
 288 534 288 534 502 336 c 24,24,25
 680 172 680 172 911 145 c 1,26,27
 1066 348 1066 348 1066 699 c 9,28,-1
 1066 742 l 17,29,30
 906 718 906 718 756 637 c 1,31,-1
 750 647 l 1,32,33
 827 779 827 779 842 889 c 1,34,35
 1026 844 1026 844 1230 844 c 1,36,-1
 1234 760 l 1,37,38
 1234 460 1234 460 1046 253 c 0,39,40
 898 90 898 90 706 0 c 1,0,1
EndSplineSet
Validated: 1
EndChar

StartChar: H
Encoding: 72 72 36
Width: 1374
GlyphClass: 2
Flags: W
HStem: 0 21G<180 256 939 1015> 734 91<394.684 976.695> 1490 20G<356.5 435 1115.5 1194>
VStem: 180 252<84.1953 593.031 915.366 1425.2> 939 252<84.1953 593.516 920.727 1425.2>
LayerCount: 2
Fore
SplineSet
190 0 m 1,0,-1
 180 6 l 1,1,2
 224 364 224 364 224 730 c 0,3,4
 224 1063 224 1063 183 1418 c 1,5,6
 288 1431 288 1431 425 1510 c 1,7,-1
 435 1504 l 1,8,9
 394 1182 394 1182 390 841 c 1,10,11
 538 825 538 825 672 825 c 0,12,13
 812 825 812 825 982 846 c 1,14,15
 976 1124 976 1124 942 1418 c 1,16,17
 1047 1431 1047 1431 1184 1510 c 1,18,-1
 1194 1504 l 1,19,20
 1150 1154 1150 1154 1149 782 c 0,21,22
 1149 429 1149 429 1191 92 c 1,23,24
 1081 77 1081 77 949 0 c 1,25,-1
 939 6 l 1,26,27
 982 357 982 357 983 717 c 1,28,29
 801 734 801 734 674 734 c 0,30,31
 540 734 540 734 390 713 c 1,32,33
 394 396 394 396 432 92 c 1,34,35
 322 77 322 77 190 0 c 1,0,-1
EndSplineSet
Validated: 1
EndChar

StartChar: I
Encoding: 73 73 37
Width: 615
GlyphClass: 2
Flags: W
HStem: 0 21G<180 256> 1490 20G<356.5 435>
VStem: 180 252<84.1953 593.031 920.727 1425.2> 224 166<282.828 1230.96>
LayerCount: 2
Fore
SplineSet
190 0 m 1,0,-1
 180 6 l 1,1,2
 224 364 224 364 224 730 c 0,3,4
 224 1063 224 1063 183 1418 c 1,5,6
 288 1431 288 1431 425 1510 c 1,7,-1
 435 1504 l 1,8,9
 391 1154 391 1154 390 782 c 0,10,11
 390 429 390 429 432 92 c 1,12,13
 322 77 322 77 190 0 c 1,0,-1
EndSplineSet
Validated: 1
EndChar

StartChar: L
Encoding: 76 76 38
Width: 1054
GlyphClass: 2
Flags: W
HStem: 0 21G<180 293.5 879.5 964.5> 45 91<428.012 865.888> 1490 20G<356.5 435>
VStem: 183 243<929.627 1426> 224 166<281.097 1231.35>
LayerCount: 2
Fore
SplineSet
190 0 m 1,0,-1
 180 6 l 1,1,2
 224 364 224 364 224 730 c 0,3,4
 224 1064 224 1064 183 1418 c 1,5,6
 288 1431 288 1431 425 1510 c 1,7,-1
 435 1504 l 1,8,9
 390 1146 390 1146 390 782 c 0,10,11
 390 454 390 454 426 145 c 1,12,13
 490 136 490 136 603 136 c 0,14,15
 812 136 812 136 1043 252 c 1,16,-1
 1049 242 l 1,17,18
 972 110 972 110 957 0 c 1,19,20
 802 45 802 45 608 45 c 0,21,22
 397 45 397 45 190 0 c 1,0,-1
EndSplineSet
Validated: 1
EndChar

StartChar: N
Encoding: 78 78 39
Width: 1355
GlyphClass: 2
Flags: W
HStem: 0 21G<210 261.5 920 993> 1490 20G<294.5 372 1123.5 1175>
VStem: 252 98<253.754 1060.73> 1034 96<403.25 1215.51>
LayerCount: 2
Fore
SplineSet
220 0 m 1,0,-1
 210 6 l 1,1,2
 252 352 252 352 252 682 c 0,3,4
 252 984 252 984 228 1266 c 1,5,6
 169 1362 169 1362 120 1418 c 1,7,8
 227 1432 227 1432 362 1510 c 1,9,-1
 372 1504 l 1,10,11
 669 798 669 798 1016 294 c 1,12,13
 1034 495 1034 495 1034 836 c 0,14,15
 1034 1155 1034 1155 994 1433 c 1,16,17
 1082 1461 1082 1461 1165 1510 c 1,18,-1
 1175 1504 l 1,19,20
 1130 1153 1130 1153 1130 782 c 0,21,22
 1130 431 1130 431 1172 92 c 1,23,24
 1056 75 1056 75 930 0 c 1,25,-1
 920 6 l 1,26,27
 669 615 669 615 363 1068 c 1,28,29
 350 866 350 866 350 686 c 0,30,31
 350 373 350 373 388 76 c 1,32,33
 303 49 303 49 220 0 c 1,0,-1
EndSplineSet
Validated: 1
EndChar

StartChar: O
Encoding: 79 79 40
Width: 1354
VWidth: 0
GlyphClass: 2
Flags: W
HStem: 0 21G<562.5 800.5> 1490 20G<550.5 793.5>
VStem: 120 168<576.22 1015.22> 1066 168<492.886 933.533>
LayerCount: 2
Fore
SplineSet
443 1365 m 1,0,1
 288 1159 288 1159 288 811 c 0,2,3
 288 534 288 534 502 336 c 24,4,5
 681 171 681 171 911 145 c 1,6,7
 1066 348 1066 348 1066 699 c 0,8,9
 1066 975 1066 975 852 1174 c 24,10,11
 678 1336 678 1336 443 1365 c 1,0,1
706 0 m 1,12,13
 696 0 l 1,14,15
 429 116 429 116 298 260 c 0,16,17
 120 457 120 457 120 750 c 0,18,19
 120 1044 120 1044 308 1257 c 0,20,21
 453 1420 453 1420 648 1510 c 1,22,-1
 658 1510 l 1,23,24
 929 1389 929 1389 1056 1250 c 0,25,26
 1234 1053 1234 1053 1234 760 c 0,27,28
 1234 461 1234 461 1046 253 c 0,29,30
 895 86 895 86 706 0 c 1,12,13
EndSplineSet
Validated: 1
EndChar

StartChar: T
Encoding: 84 84 41
Width: 1123
GlyphClass: 2
Flags: W
HStem: 0 21G<431 508.5> 1374 93<184.433 443.359 667.367 865.666> 1490 20G<88.5 182 1016 1118>
VStem: 475 166<276.062 1237.04>
LayerCount: 2
Fore
SplineSet
441 0 m 1,0,-1
 431 6 l 1,1,2
 475 364 475 364 475 730 c 0,3,4
 475 1033 475 1033 439 1374 c 1,5,6
 236 1371 236 1371 11 1258 c 1,7,-1
 5 1268 l 1,8,9
 80 1396 80 1396 97 1510 c 1,10,11
 267 1467 267 1467 578 1467 c 0,12,13
 920 1467 920 1467 1112 1510 c 1,14,-1
 1118 1500 l 1,15,16
 1041 1367 1041 1367 1026 1258 c 1,17,18
 862 1353 862 1353 671 1374 c 1,19,20
 641 1076 641 1076 641 782 c 0,21,22
 641 439 641 439 683 92 c 1,23,24
 576 77 576 77 441 0 c 1,0,-1
EndSplineSet
Validated: 1
EndChar

StartChar: V
Encoding: 86 86 42
Width: 1285
GlyphClass: 2
Flags: W
HStem: 0 21G<519 597> 1490 20G<178.5 257 1222.5 1280>
LayerCount: 2
Fore
SplineSet
529 0 m 1,0,1
 519 6 l 1,2,3
 333 777 333 777 5 1418 c 1,4,5
 110 1431 110 1431 247 1510 c 1,6,-1
 257 1504 l 1,7,8
 369 861 369 861 664 263 c 1,9,10
 893 766 893 766 1075 1427 c 1,11,12
 1175 1453 1175 1453 1270 1510 c 1,13,-1
 1280 1504 l 1,14,15
 944 819 944 819 771 92 c 1,16,17
 665 79 665 79 529 0 c 1,0,1
EndSplineSet
Validated: 1
EndChar

StartChar: W
Encoding: 87 87 43
Width: 1786
GlyphClass: 2
Flags: W
HStem: 0 21G<519 597 1020 1098> 1490 20G<178.5 257 679.5 758 1222.5 1280 1723.5 1781>
LayerCount: 2
Fore
SplineSet
529 0 m 1,0,-1
 519 6 l 1,1,2
 333 777 333 777 5 1418 c 1,3,4
 110 1431 110 1431 247 1510 c 1,5,-1
 257 1504 l 1,6,7
 369 861 369 861 664 263 c 1,8,9
 759 457 759 457 841 671 c 1,10,11
 705 1064 705 1064 506 1418 c 1,12,13
 611 1431 611 1431 748 1510 c 1,14,-1
 758 1504 l 1,15,16
 798 1171 798 1171 906 849 c 1,17,18
 1000 1123 1000 1123 1075 1427 c 1,19,20
 1175 1453 1175 1453 1270 1510 c 1,21,-1
 1280 1504 l 1,22,23
 1093 1118 1093 1118 954 715 c 1,24,25
 1042 486 1042 486 1165 263 c 1,26,27
 1394 766 1394 766 1576 1427 c 1,28,29
 1676 1453 1676 1453 1771 1510 c 1,30,-1
 1781 1504 l 1,31,32
 1445 819 1445 819 1272 92 c 1,33,34
 1166 79 1166 79 1030 0 c 1,35,-1
 1020 6 l 1,36,37
 967 271 967 271 890 520 c 1,38,39
 824 309 824 309 771 92 c 1,40,41
 665 79 665 79 529 0 c 1,0,-1
EndSplineSet
Validated: 1
EndChar

StartChar: bracketleft
Encoding: 91 91 44
Width: 834
GlyphClass: 2
Flags: W
HStem: -249 95<411.792 660.617>
VStem: 212 165<292.826 1286.63>
LayerCount: 2
Fore
SplineSet
180 -290 m 1,0,-1
 170 -284 l 1,1,2
 212 262 212 262 212 788 c 0,3,4
 212 1265 212 1265 172 1713 c 1,5,6
 293 1727 293 1727 424 1802 c 1,7,8
 499 1758 499 1758 586 1758 c 128,-1,9
 673 1758 673 1758 778 1802 c 1,10,-1
 784 1792 l 1,11,12
 707 1660 707 1660 692 1550 c 1,13,14
 620 1565 620 1565 550 1624 c 0,15,16
 470 1691 470 1691 421 1782 c 1,17,18
 377 1496 377 1496 377 796 c 0,19,20
 377 41 377 41 411 -146 c 1,21,22
 436.384 -153.878 436.384 -153.878 458 -154 c 0,23,24
 634 -154 634 -154 778 -38 c 1,25,-1
 784 -48 l 1,26,27
 707 -180 707 -180 692 -290 c 1,28,29
 578 -249 578 -249 449 -249 c 0,30,31
 316 -249 316 -249 180 -290 c 1,0,-1
EndSplineSet
Validated: 1
EndChar

StartChar: backslash
Encoding: 92 92 45
Width: 1076
GlyphClass: 2
Flags: W
LayerCount: 2
Fore
SplineSet
866 -144 m 1,0,1
 691.751 288.327 691.751 288.327 448 777 c 0,2,3
 240 1194 240 1194 10 1578 c 1,4,5
 99 1602 99 1602 200 1660 c 1,6,-1
 210 1654 l 1,7,8
 330.857 1293.22 330.857 1293.22 558 835 c 0,9,10
 789 369 789 369 1066 -68 c 1,11,12
 977 -92 977 -92 876 -150 c 1,13,-1
 866 -144 l 1,0,1
EndSplineSet
Validated: 1
EndChar

StartChar: bracketright
Encoding: 93 93 46
Width: 834
GlyphClass: 2
Flags: W
HStem: 1666 95<173.383 422.208>
VStem: 457 165<225.372 1219.17>
LayerCount: 2
Fore
SplineSet
56 -290 m 1,0,-1
 50 -280 l 1,1,2
 127 -148 127 -148 142 -38 c 1,3,4
 214 -53 214 -53 284 -112 c 0,5,6
 364 -179 364 -179 413 -270 c 1,7,8
 457 16 457 16 457 716 c 0,9,10
 457 1471 457 1471 423 1658 c 1,11,12
 397.615 1665.88 397.615 1665.88 376 1666 c 0,13,14
 200 1666 200 1666 56 1550 c 1,15,-1
 50 1560 l 1,16,17
 127 1692 127 1692 142 1802 c 1,18,19
 256 1761 256 1761 385 1761 c 0,20,21
 518 1761 518 1761 654 1802 c 1,22,-1
 664 1796 l 1,23,24
 622 1250 622 1250 622 724 c 0,25,26
 622 247 622 247 662 -201 c 1,27,28
 541 -215 541 -215 410 -290 c 1,29,30
 335 -246 335 -246 248 -246 c 128,-1,31
 161 -246 161 -246 56 -290 c 1,0,-1
EndSplineSet
Validated: 1
EndChar

StartChar: asciicircum
Encoding: 94 94 47
Width: 1370
GlyphClass: 2
Flags: W
HStem: 865 645
LayerCount: 2
Fore
SplineSet
783 1510 m 1,0,-1
 793 1504 l 1,1,2
 983 1152 983 1152 1220 957 c 1,3,4
 1115 944 1115 944 978 865 c 1,5,-1
 968 871 l 1,6,7
 842 1136 842 1136 637 1302 c 1,8,9
 454 1124 454 1124 355 948 c 1,10,11
 255 922 255 922 160 865 c 1,12,-1
 150 871 l 1,13,14
 414 1158 414 1158 541 1418 c 1,15,16
 647 1431 647 1431 783 1510 c 1,0,-1
EndSplineSet
Validated: 1
EndChar

StartChar: underscore
Encoding: 95 95 48
Width: 1266
GlyphClass: 2
Flags: W
HStem: -410 222<226.343 411.101 854.899 1039.66> -352 106<291.699 974.301>
LayerCount: 2
Fore
SplineSet
156 -410 m 1,0,-1
 150 -400 l 1,1,2
 218 -282 218 -282 237 -188 c 1,3,4
 447 -246 447 -246 646.5 -246 c 128,-1,5
 846 -246 846 -246 1110 -188 c 1,6,-1
 1116 -198 l 1,7,8
 1048 -316 1048 -316 1029 -410 c 1,9,10
 819 -352 819 -352 619.5 -352 c 128,-1,11
 420 -352 420 -352 156 -410 c 1,0,-1
EndSplineSet
Validated: 1
EndChar

StartChar: grave
Encoding: 96 96 49
Width: 709
GlyphClass: 2
Flags: W
HStem: 1160 350
VStem: 150 409
LayerCount: 2
Fore
SplineSet
350 1510 m 1,0,1
 360 1504 l 1,2,3
 417 1330 417 1330 559 1225 c 1,4,-1
 559 1215 l 1,5,6
 485 1192 485 1192 437 1160 c 1,7,-1
 427 1166 l 1,8,9
 315 1328 315 1328 150 1408 c 1,10,-1
 155 1418 l 1,11,12
 220 1429 220 1429 350 1510 c 1,0,1
EndSplineSet
Validated: 1
EndChar

StartChar: a
Encoding: 97 97 50
Width: 1092
GlyphClass: 2
Flags: W
HStem: 0 139<520 560.355> 992 138<452.984 493>
VStem: 100 170<343.648 574.358> 778 168<96.5137 731.435>
LayerCount: 2
Fore
SplineSet
750 0 m 1,0,-1
 740 6 l 1,1,2
 778 322 778 322 778 537 c 0,3,4
 778 723 778 723 652 834 c 0,5,6
 512 959 512 959 270 992 c 1,7,8
 361 1078 361 1078 483 1130 c 1,9,-1
 493 1130 l 1,10,11
 668 1067 668 1067 781 961 c 0,12,13
 946 805 946 805 946 562 c 0,14,15
 946 235 946 235 992 92 c 1,16,17
 882 77 882 77 750 0 c 1,0,-1
530 0 m 1,18,-1
 520 0 l 1,19,20
 341 66 341 66 232 170 c 0,21,22
 100 296 100 296 100 433 c 0,23,24
 100 564 100 564 211 654 c 0,25,26
 327 748 327 748 518 748 c 0,27,28
 567 748 567 748 623 742 c 1,29,30
 454 689 454 689 369 625 c 0,31,32
 270 551 270 551 270 460 c 0,33,34
 270 374 270 374 360 296 c 0,35,36
 509 168 509 168 745 139 c 1,37,38
 638 45 638 45 530 0 c 1,18,-1
EndSplineSet
Validated: 1
EndChar

StartChar: b
Encoding: 98 98 51
Width: 1174
GlyphClass: 2
Flags: W
HStem: 0 21G<559 741> 1110 20G<552.5 712> 1490 20G<326 402>
VStem: 195 154<420.662 1411.34> 920 154<345.725 711.495>
LayerCount: 2
Fore
SplineSet
658 0 m 1,0,-1
 648 0 l 1,1,2
 470 65 470 65 360 170 c 0,3,4
 195 330 195 330 195 569 c 1,5,6
 189 897 189 897 189 968 c 0,7,8
 189 1205 189 1205 150 1418 c 1,9,10
 260 1433 260 1433 392 1510 c 1,11,-1
 402 1504 l 1,12,13
 376 1340 376 1340 357 962 c 0,14,15
 349 802 349 802 349 616 c 0,16,17
 349 419 349 419 488 296 c 0,18,19
 622 178 622 178 847 142 c 1,20,21
 920 313 920 313 920 514 c 0,22,23
 920 711 920 711 780 834 c 0,24,25
 638 960 638 960 397 992 c 1,26,27
 494 1080 494 1080 611 1130 c 1,28,-1
 621 1130 l 1,29,30
 803 1064 803 1064 909 961 c 24,31,32
 1074 802 1074 802 1074 562 c 0,33,34
 1074 366 1074 366 952 222 c 0,35,36
 824 71 824 71 658 0 c 1,0,-1
EndSplineSet
Validated: 1
EndChar

StartChar: c
Encoding: 99 99 52
Width: 1007
GlyphClass: 2
Flags: W
HStem: 0 21G<463 644.5> 1110 20G<431.5 617>
VStem: 100 154<418.513 782.158>
LayerCount: 2
Fore
SplineSet
563 0 m 1,0,-1
 553 0 l 1,1,2
 373 66 373 66 265 170 c 8,3,4
 100 329 100 329 100 569 c 0,5,6
 100 761 100 761 222 908 c 24,7,8
 347 1058 347 1058 516 1130 c 1,9,-1
 526 1130 l 1,10,11
 708 1064 708 1064 814 961 c 0,12,13
 858 918 858 918 880 884 c 1,14,-1
 734 785 l 1,15,16
 717 807 717 807 686 834 c 0,17,18
 546 955 546 955 327 988 c 1,19,20
 254 811 254 811 254 616 c 0,21,22
 254 417 254 417 393.5 296 c 128,-1,23
 533 175 533 175 752 142 c 1,24,25
 779 194 779 194 779 251 c 128,-1,26
 779 308 779 308 769 342 c 9,27,-1
 907 293 l 17,28,29
 882 251 882 251 857 222 c 0,30,31
 726 69 726 69 563 0 c 1,0,-1
EndSplineSet
Validated: 1
EndChar

StartChar: d
Encoding: 100 100 53
Width: 1146
GlyphClass: 2
Flags: W
HStem: 0 21G<462.5 616 741 817> 1110 20G<432.5 560> 1490 20G<920 996>
VStem: 100 154<419.551 783.871> 741 252<84.375 120 953.052 1425.8> 785 166<283.562 776.556 947 1285.9>
LayerCount: 2
Fore
SplineSet
563 0 m 1,0,-1
 553 0 l 1,1,2
 372 67 372 67 265 170 c 0,3,4
 100 330 100 330 100 569 c 0,5,6
 100 763 100 763 222 908 c 0,7,8
 349 1060 349 1060 516 1130 c 1,9,-1
 526 1130 l 1,10,11
 594 1106 594 1106 666 1068 c 128,-1,12
 738 1030 738 1030 780 947 c 1,13,14
 775 1140 775 1140 744 1418 c 1,15,16
 854 1433 854 1433 986 1510 c 1,17,-1
 996 1504 l 1,18,19
 951 1134 951 1134 951 782 c 0,20,21
 951 381 951 381 993 92 c 1,22,23
 883 77 883 77 751 0 c 1,24,-1
 741 6 l 1,25,26
 748 63 748 63 754 120 c 1,27,28
 669 45 669 45 563 0 c 1,0,-1
327 988 m 1,29,30
 254 816 254 816 254 616 c 0,31,32
 254 420 254 420 393 296.5 c 128,-1,33
 532 173 532 173 756 142 c 1,34,35
 780 355 780 355 785 710 c 1,36,37
 744 785 744 785 686 834 c 0,38,39
 539 957 539 957 327 988 c 1,29,30
EndSplineSet
Validated: 1
EndChar

StartChar: e
Encoding: 101 101 54
Width: 1045
GlyphClass: 2
Flags: W
HStem: 0 21G<458 648> 1110 20G<430.5 617>
VStem: 100 154<416.029 781.419> 775 170<555.642 786.429>
LayerCount: 2
Fore
SplineSet
563 0 m 1,0,-1
 553 0 l 1,1,2
 363 71 363 71 265 170 c 0,3,4
 100 336 100 336 100 569 c 0,5,6
 100 761 100 761 222 908 c 0,7,8
 345 1057 345 1057 516 1130 c 1,9,-1
 526 1130 l 1,10,11
 708 1064 708 1064 814 961 c 0,12,13
 945 836 945 836 945 697 c 0,14,15
 945 566 945 566 834 476 c 0,16,17
 718 382 718 382 527 382 c 0,18,19
 478 382 478 382 422 388 c 1,20,21
 591 441 591 441 676 505 c 0,22,23
 775 579 775 579 775 670 c 0,24,25
 775 754 775 754 686 834 c 0,26,27
 554 952 554 952 327 988 c 1,28,29
 254 808 254 808 254 616 c 0,30,31
 254 414 254 414 394 296 c 0,32,33
 542 171 542 171 752 142 c 1,34,35
 777 200 777 200 777 252 c 0,36,37
 777 302 777 302 769 342 c 9,38,-1
 908 293 l 17,39,40
 889 261 889 261 857 222 c 0,41,42
 733 74 733 74 563 0 c 1,0,-1
EndSplineSet
Validated: 1
EndChar

StartChar: f
Encoding: 102 102 55
Width: 938
GlyphClass: 2
Flags: W
HStem: 0 21G<150 226> 658 146<97.3936 192.121 423.191 723.606> 685 92<361 701.496> 1490 20G<536 717.5>
VStem: 194 167<180.084 675 792 1021.05>
LayerCount: 2
Fore
SplineSet
160 0 m 1,0,-1
 150 6 l 1,1,2
 191 342 191 342 194 675 c 1,3,4
 134 669 134 669 56 658 c 1,5,-1
 50 668 l 1,6,7
 93 740 93 740 115 804 c 1,8,9
 142 796 142 796 194 792 c 1,10,11
 190 930 190 930 170 1024 c 1,12,13
 195 1127 195 1127 327 1288 c 0,14,15
 452 1439 452 1439 620 1510 c 1,16,-1
 630 1510 l 1,17,18
 805 1448 805 1448 918 1341 c 9,19,-1
 790 1214 l 17,20,21
 653 1332 653 1332 432 1368 c 1,22,23
 364 1054 364 1054 360 778 c 1,24,25
 399 777 399 777 418 777 c 0,26,27
 584 777 584 777 765 804 c 1,28,-1
 771 794 l 1,29,30
 728 722 728 722 706 658 c 1,31,32
 562 685 562 685 403 685 c 0,33,34
 390 685 390 685 361 684 c 1,35,36
 366 408 366 408 402 92 c 1,37,38
 292 77 292 77 160 0 c 1,0,-1
EndSplineSet
Validated: 1
EndChar

StartChar: g
Encoding: 103 103 56
Width: 1163
GlyphClass: 2
Flags: W
HStem: -380 21G<462 646.5> 0 138<553 594.524> 1110 20G<431 616.5>
VStem: 100 154<418.779 780.613> 825 154<113.74 709.887>
LayerCount: 2
Fore
SplineSet
563 0 m 1,0,-1
 553 0 l 1,1,2
 371 68 371 68 265 170 c 8,3,4
 100 329 100 329 100 568 c 0,5,6
 100 761 100 761 222 908 c 0,7,8
 346 1057 346 1057 516 1130 c 1,9,-1
 526 1130 l 1,10,11
 707 1064 707 1064 814 961 c 0,12,13
 979 801 979 801 979 561 c 0,14,15
 979 354 979 354 1013 106 c 1,16,17
 986 -3 986 -3 857 -158 c 24,18,19
 730 -310 730 -310 563 -380 c 1,20,-1
 553 -380 l 1,21,22
 371 -314 371 -314 265 -210 c 0,23,24
 224 -170 224 -170 199 -134 c 1,25,-1
 345 -35 l 1,26,27
 363 -57 363 -57 394 -84 c 0,28,29
 532 -205 532 -205 752 -238 c 1,30,31
 825 -58 825 -58 825 134 c 2,32,-1
 825 514 l 2,33,34
 825 711 825 711 686 834 c 0,35,36
 552 952 552 952 327 988 c 1,37,38
 254 817 254 817 254 616 c 0,39,40
 254 419 254 419 394 296 c 0,41,42
 536 170 536 170 776 138 c 1,43,44
 676 48 676 48 563 0 c 1,0,-1
EndSplineSet
Validated: 1
EndChar

StartChar: h
Encoding: 104 104 57
Width: 1160
GlyphClass: 2
Flags: W
HStem: 0 21G<150 226 808 884> 1110 20G<498.5 648.5> 1490 20G<326.5 405>
VStem: 150 252<84.1953 593.031 1022.72 1425.2> 194 166<282.828 988 1015 1231.35> 846 168<96.5137 731.435>
LayerCount: 2
Fore
SplineSet
160 0 m 1,0,-1
 150 6 l 1,1,2
 194 364 194 364 194 730 c 0,3,4
 194 1064 194 1064 153 1418 c 1,5,6
 258 1431 258 1431 395 1510 c 1,7,-1
 405 1504 l 1,8,9
 377 1262 377 1262 365 1015 c 1,10,11
 446 1085 446 1085 551 1130 c 1,12,-1
 561 1130 l 1,13,14
 736 1068 736 1068 849 961 c 0,15,16
 1014 806 1014 806 1014 562 c 0,17,18
 1014 235 1014 235 1060 92 c 1,19,20
 950 77 950 77 818 0 c 1,21,-1
 808 6 l 1,22,23
 846 322 846 322 846 537 c 0,24,25
 846 723 846 723 720 834 c 0,26,27
 584 953 584 953 364 988 c 1,28,29
 360 891 360 891 360 782 c 0,30,31
 360 429 360 429 402 92 c 1,32,33
 292 77 292 77 160 0 c 1,0,-1
EndSplineSet
Validated: 1
EndChar

StartChar: i
Encoding: 105 105 58
Width: 552
GlyphClass: 2
Flags: W
HStem: 0 21G<150 226> 1110 20G<326 402> 1490 20G<314 386>
VStem: 150 252<84.1953 484.152 741.203 1045.8> 154 228<1236.98 1303.37 1306.26 1360.8 1363.73 1430.81> 170 202<1249.4 1419.6> 188 166<124.559 1030.53>
LayerCount: 2
Fore
SplineSet
376 1510 m 1,0,-1
 386 1504 l 1,1,2
 372 1417 372 1417 372 1362 c 0,3,4
 372 1324 372 1324 382 1247 c 1,5,6
 288 1230 288 1230 164 1159 c 1,7,-1
 154 1165 l 1,8,9
 170 1253 170 1253 170 1305 c 0,10,11
 170 1345 170 1345 157 1422 c 1,12,13
 252 1438 252 1438 376 1510 c 1,0,-1
160 0 m 1,14,-1
 150 6 l 1,15,16
 188 339 188 339 188 565 c 0,17,18
 188 799 188 799 150 1038 c 1,19,20
 260 1053 260 1053 392 1130 c 1,21,-1
 402 1124 l 1,22,23
 354 838 354 838 354 627 c 0,24,25
 354 352 354 352 402 92 c 1,26,27
 292 77 292 77 160 0 c 1,14,-1
EndSplineSet
Validated: 1
EndChar

StartChar: j
Encoding: 106 106 59
Width: 552
GlyphClass: 2
Flags: W
HStem: -380 21G<7 76.5> 1110 20G<326 402> 1490 20G<314 386>
VStem: 154 228<1236.98 1303.37 1306.26 1360.8 1363.73 1430.81> 170 202<1249.4 1419.6> 188 166<179.74 1030.07>
LayerCount: 2
Fore
SplineSet
402 1124 m 1,0,1
 354 838 354 838 354 627 c 0,2,3
 354 420 354 420 388 172 c 1,4,5
 347 24 347 24 231 -142 c 0,6,7
 135 -282 135 -282 18 -380 c 9,8,-1
 7 -377 l 17,9,10
 145 -101 145 -101 166 78 c 0,11,12
 188 267 188 267 188 565 c 0,13,14
 188 784 188 784 150 1038 c 1,15,16
 260 1053 260 1053 392 1130 c 1,17,-1
 402 1124 l 1,0,1
376 1510 m 1,18,-1
 386 1504 l 1,19,20
 372 1417 372 1417 372 1362 c 0,21,22
 372 1324 372 1324 382 1247 c 1,23,24
 288 1230 288 1230 164 1159 c 1,25,-1
 154 1165 l 1,26,27
 170 1253 170 1253 170 1305 c 0,28,29
 170 1345 170 1345 157 1422 c 1,30,31
 252 1438 252 1438 376 1510 c 1,18,-1
EndSplineSet
Validated: 1
EndChar

StartChar: k
Encoding: 107 107 60
Width: 1055
GlyphClass: 2
Flags: W
HStem: 0 21G<150 226 793 869> 1110 20G<729.5 836> 1490 20G<326 405>
VStem: 150 252<84.1953 434.562 918.621 1424.89> 194 166<620 1231.74>
LayerCount: 2
Fore
SplineSet
160 0 m 1,0,-1
 150 6 l 1,1,2
 194 364 194 364 194 730 c 0,3,4
 194 1065 194 1065 153 1418 c 1,5,6
 257 1430 257 1430 395 1510 c 1,7,-1
 405 1504 l 1,8,9
 360 1112 360 1112 360 782 c 0,10,11
 360 700 360 700 362 620 c 1,12,13
 633 843 633 843 826 1130 c 1,14,-1
 836 1129 l 1,15,16
 895 1070 895 1070 953 1045 c 1,17,18
 763 905 763 905 606 727 c 1,19,20
 762 409 762 409 1045 92 c 1,21,22
 935 77 935 77 803 0 c 1,23,-1
 793 6 l 1,24,25
 655 370 655 370 467 584 c 1,26,27
 397 500 397 500 369 440 c 1,28,29
 378 266 378 266 402 92 c 1,30,31
 292 77 292 77 160 0 c 1,0,-1
EndSplineSet
Validated: 1
EndChar

StartChar: l
Encoding: 108 108 61
Width: 555
GlyphClass: 2
Flags: W
HStem: 0 21G<150 226> 1490 20G<326.5 405>
VStem: 150 252<84.1953 593.031 920.727 1425.2> 194 166<282.828 1230.96>
LayerCount: 2
Fore
SplineSet
160 0 m 1,0,-1
 150 6 l 1,1,2
 194 364 194 364 194 730 c 0,3,4
 194 1063 194 1063 153 1418 c 1,5,6
 258 1431 258 1431 395 1510 c 1,7,-1
 405 1504 l 1,8,9
 361 1154 361 1154 360 782 c 0,10,11
 360 429 360 429 402 92 c 1,12,13
 292 77 292 77 160 0 c 1,0,-1
EndSplineSet
Validated: 1
EndChar

StartChar: m
Encoding: 109 109 62
Width: 1818
GlyphClass: 2
Flags: W
HStem: 0 21G<150 226 808 884 1466 1542> 942 188<1121.95 1284.27>
VStem: 150 252<84.1953 484.152> 188 166<124.559 978.328> 846 168<96.5137 730.506> 1504 168<96.606 730.609>
LayerCount: 2
Fore
SplineSet
160 0 m 1,0,-1
 150 6 l 1,1,2
 188 339 188 339 188 565 c 0,3,4
 188 799 188 799 150 1038 c 1,5,6
 260 1053 260 1053 392 1130 c 1,7,-1
 402 1124 l 1,8,9
 394 1078 394 1078 388 1033 c 1,10,11
 463 1093 463 1093 551 1130 c 1,12,-1
 561 1130 l 1,13,14
 735 1068 735 1068 849 961 c 0,15,16
 880 932 880 932 904 900 c 1,17,18
 1040 1058 1040 1058 1209 1130 c 1,19,-1
 1219 1130 l 1,20,21
 1400 1065 1400 1065 1507 961 c 0,22,23
 1672 802 1672 802 1672 562 c 0,24,25
 1672 238 1672 238 1718 92 c 1,26,27
 1608 77 1608 77 1476 0 c 1,28,-1
 1466 6 l 1,29,30
 1504 322 1504 322 1504 537 c 0,31,32
 1504 726 1504 726 1378.5 834 c 128,-1,33
 1253 942 1253 942 1126 942 c 0,34,35
 996 942 996 942 937 852 c 1,36,37
 1014 727 1014 727 1014 562 c 0,38,39
 1014 235 1014 235 1060 92 c 1,40,41
 950 77 950 77 818 0 c 1,42,-1
 808 6 l 1,43,44
 846 322 846 322 846 537 c 0,45,46
 846 724 846 724 720 834 c 0,47,48
 590 948 590 948 381 985 c 1,49,50
 354 785 354 785 354 627 c 0,51,52
 354 352 354 352 402 92 c 1,53,54
 292 77 292 77 160 0 c 1,0,-1
EndSplineSet
Validated: 1
EndChar

StartChar: n
Encoding: 110 110 63
Width: 1160
GlyphClass: 2
Flags: W
HStem: 0 21G<150 226 808 884> 1110 20G<326 402 507 651>
VStem: 150 252<84.1953 484.152> 188 166<124.559 978.328> 846 168<96.5137 731.547>
LayerCount: 2
Fore
SplineSet
160 0 m 1,0,-1
 150 6 l 1,1,2
 188 339 188 339 188 565 c 0,3,4
 188 799 188 799 150 1038 c 1,5,6
 260 1053 260 1053 392 1130 c 1,7,-1
 402 1124 l 1,8,9
 394 1078 394 1078 388 1033 c 1,10,11
 463 1093 463 1093 551 1130 c 1,12,-1
 561 1130 l 1,13,14
 741 1065 741 1065 849 961 c 0,15,16
 1014 804 1014 804 1014 562 c 0,17,18
 1014 235 1014 235 1060 92 c 1,19,20
 950 77 950 77 818 0 c 1,21,-1
 808 6 l 1,22,23
 846 322 846 322 846 537 c 0,24,25
 846 724 846 724 720 834 c 0,26,27
 590 948 590 948 381 985 c 1,28,29
 354 785 354 785 354 627 c 0,30,31
 354 352 354 352 402 92 c 1,32,33
 292 77 292 77 160 0 c 1,0,-1
EndSplineSet
Validated: 1
EndChar

StartChar: o
Encoding: 111 111 64
Width: 1079
GlyphClass: 2
Flags: W
HStem: 0 21G<463 644.5> 1110 20G<431.5 617>
VStem: 100 154<418.513 782.158> 825 154<346.473 712.233>
LayerCount: 2
Fore
SplineSet
563 0 m 1,0,1
 553 0 l 1,2,3
 373 66 373 66 265 170 c 8,4,5
 100 329 100 329 100 569 c 0,6,7
 100 761 100 761 222 908 c 24,8,9
 347 1058 347 1058 516 1130 c 1,10,-1
 526 1130 l 1,11,12
 708 1064 708 1064 814 961 c 8,13,14
 979 802 979 802 979 562 c 0,15,16
 979 364 979 364 857 222 c 0,17,18
 726 69 726 69 563 0 c 1,0,1
752 142 m 1,19,20
 825 318 825 318 825 514 c 0,21,22
 825 714 825 714 686 834 c 0,23,24
 546 955 546 955 327 988 c 1,25,26
 254 811 254 811 254 616 c 0,27,28
 254 417 254 417 393.5 296 c 128,-1,29
 533 175 533 175 752 142 c 1,19,20
EndSplineSet
Validated: 1
EndChar

StartChar: p
Encoding: 112 112 65
Width: 1143
GlyphClass: 2
Flags: W
HStem: -380 21G<147 223> 0 21G<583 710.5> 1110 20G<326 402 527 680.5>
VStem: 147 252<-295.805 176.948 1010 1045.62> 192 171<-155.899 183 345.745 856.535> 889 154<346.129 710.449>
LayerCount: 2
Fore
SplineSet
627 0 m 1,0,-1
 617 0 l 1,1,2
 549 24 549 24 477 62 c 128,-1,3
 405 100 405 100 363 183 c 1,4,5
 368 -10 368 -10 399 -288 c 1,6,7
 289 -303 289 -303 157 -380 c 1,8,-1
 147 -374 l 1,9,10
 192 -4 192 -4 192 348 c 0,11,12
 192 749 192 749 150 1038 c 1,13,14
 260 1053 260 1053 392 1130 c 1,15,-1
 402 1124 l 1,16,17
 395 1067 395 1067 389 1010 c 1,18,19
 474 1085 474 1085 580 1130 c 1,20,-1
 590 1130 l 1,21,22
 771 1063 771 1063 878 960 c 0,23,24
 1043 800 1043 800 1043 561 c 0,25,26
 1043 367 1043 367 921 222 c 0,27,28
 794 70 794 70 627 0 c 1,0,-1
816 142 m 1,29,30
 889 314 889 314 889 514 c 0,31,32
 889 710 889 710 750 833.5 c 128,-1,33
 611 957 611 957 387 988 c 1,34,35
 363 775 363 775 358 420 c 1,36,37
 399 345 399 345 457 296 c 0,38,39
 604 173 604 173 816 142 c 1,29,30
EndSplineSet
Validated: 1
EndChar

StartChar: q
Encoding: 113 113 66
Width: 1174
GlyphClass: 2
Flags: W
HStem: -380 21G<772 848> 0 21G<462 621.5> 1110 20G<433 615>
VStem: 100 154<418.505 784.275> 825 154<-281.338 709.338>
LayerCount: 2
Fore
SplineSet
563 0 m 1,0,-1
 553 0 l 1,1,2
 371 66 371 66 265 169 c 24,3,4
 100 328 100 328 100 568 c 0,5,6
 100 764 100 764 222 908 c 0,7,8
 350 1059 350 1059 516 1130 c 1,9,-1
 526 1130 l 1,10,11
 704 1065 704 1065 814 960 c 0,12,13
 979 800 979 800 979 561 c 1,14,15
 985 233 985 233 985 162 c 0,16,17
 985 -75 985 -75 1024 -288 c 1,18,19
 914 -303 914 -303 782 -380 c 1,20,-1
 772 -374 l 1,21,22
 798 -210 798 -210 817 168 c 0,23,24
 825 328 825 328 825 514 c 0,25,26
 825 711 825 711 686 834 c 0,27,28
 552 952 552 952 327 988 c 1,29,30
 254 817 254 817 254 616 c 0,31,32
 254 419 254 419 394 296 c 0,33,34
 536 170 536 170 777 138 c 1,35,36
 680 50 680 50 563 0 c 1,0,-1
EndSplineSet
Validated: 1
EndChar

StartChar: r
Encoding: 114 114 67
Width: 997
GlyphClass: 2
Flags: W
HStem: 0 21G<150 226> 1110 20G<326 402 508.5 649.5>
VStem: 150 252<84.1953 484.152> 188 166<124.559 978.328>
LayerCount: 2
Fore
SplineSet
160 0 m 1,0,-1
 150 6 l 1,1,2
 188 339 188 339 188 565 c 0,3,4
 188 799 188 799 150 1038 c 1,5,6
 260 1053 260 1053 392 1130 c 1,7,-1
 402 1124 l 1,8,9
 394 1078 394 1078 388 1033 c 1,10,11
 466 1095 466 1095 551 1130 c 1,12,-1
 561 1130 l 1,13,14
 738 1066 738 1066 849 961 c 0,15,16
 936 879 936 879 977 773 c 9,17,-1
 814 706 l 17,18,19
 783 778 783 778 720 834 c 0,20,21
 591 948 591 948 381 985 c 1,22,23
 354 785 354 785 354 627 c 0,24,25
 354 352 354 352 402 92 c 1,26,27
 292 77 292 77 160 0 c 1,0,-1
EndSplineSet
Validated: 1
EndChar

StartChar: s
Encoding: 115 115 68
Width: 948
GlyphClass: 2
Flags: W
HStem: 0 21G<387.5 570.5> 1110 20G<340 542>
VStem: 112 114<713 921.508> 717 131<252.356 414.295>
DStem2: 401 723 314 568 0.943058 -0.332629<-177.244 386.586>
LayerCount: 2
Fore
SplineSet
487 0 m 1,0,-1
 477 0 l 1,1,2
 298 66 298 66 189 170 c 0,3,4
 133 223 133 223 100 284 c 1,5,-1
 250 371 l 1,6,7
 277 333 277 333 318 296 c 0,8,9
 447 180 447 180 676 142 c 1,10,11
 717 231 717 231 717 299 c 0,12,13
 717 425 717 425 572 477 c 0,14,15
 482 509 482 509 314 568 c 0,16,17
 112 639 112 639 112 787 c 0,18,19
 112 858 112 858 146 908 c 0,20,21
 240 1042 240 1042 440 1130 c 1,22,-1
 450 1130 l 1,23,24
 634 1062 634 1062 738 961 c 0,25,26
 767 934 767 934 790 904 c 1,27,-1
 638 808 l 1,28,29
 634 813 634 813 610 834 c 0,30,31
 472 953 472 953 251 988 c 1,32,33
 226 939 226 939 226 897 c 0,34,35
 226 787 226 787 401 723 c 0,36,37
 601 651 601 651 640 637 c 0,38,39
 848 560 848 560 848 399 c 0,40,41
 848 302 848 302 781 222 c 0,42,43
 654 72 654 72 487 0 c 1,0,-1
EndSplineSet
Validated: 1
EndChar

StartChar: t
Encoding: 116 116 69
Width: 741
GlyphClass: 2
Flags: W
HStem: 0 21G<243 319> 984 146<57.5613 270.528 464.424 683.438> 1009.05 95.94<460.404 662.464> 1490 20G<421 498>
VStem: 243 252<84.1953 593.031 1111.27 1425.5> 287 166<282.828 1008.94>
LayerCount: 2
Fore
SplineSet
253 0 m 1,0,-1
 243 6 l 1,1,2
 287 364 287 364 287 730 c 0,3,4
 287 826 287 826 278.829 1008.94 c 1,5,6
 151 1004 151 1004 16 984 c 1,7,-1
 10 994 l 1,8,9
 53 1066 53 1066 75.3896 1130 c 1,10,11
 171 1111 171 1111 273.737 1105.56 c 1,12,13
 264 1265 264 1265 246 1418 c 1,14,15
 354 1432 354 1432 488 1510 c 1,16,-1
 498 1504 l 1,17,18
 472 1306 472 1306 460.404 1104.99 c 1,19,20
 589 1110 589 1110 725 1130 c 1,21,-1
 731 1120 l 1,22,23
 688 1048 688 1048 665.61 984 c 1,24,25
 565 1004 565 1004 455.688 1009.05 c 1,26,27
 453 901 453 901 453 782 c 0,28,29
 453 429 453 429 495 92 c 1,30,31
 385 77 385 77 253 0 c 1,0,-1
EndSplineSet
Validated: 1
EndChar

StartChar: u
Encoding: 117 117 70
Width: 1160
GlyphClass: 2
Flags: W
HStem: 0 21G<509 653 758 834> 1110 20G<276 352 934 1010>
VStem: 146 168<398.453 1033.49> 758 252<645.848 1045.8> 806 166<151.672 1005.44>
LayerCount: 2
Fore
SplineSet
609 0 m 1,0,-1
 599 0 l 1,1,2
 419 65 419 65 311 169 c 0,3,4
 146 326 146 326 146 568 c 0,5,6
 146 895 146 895 100 1038 c 1,7,8
 210 1053 210 1053 342 1130 c 1,9,-1
 352 1124 l 1,10,11
 314 808 314 808 314 593 c 0,12,13
 314 406 314 406 440 296 c 0,14,15
 570 182 570 182 779 145 c 1,16,17
 806 345 806 345 806 503 c 0,18,19
 806 778 806 778 758 1038 c 1,20,21
 868 1053 868 1053 1000 1130 c 1,22,-1
 1010 1124 l 1,23,24
 972 791 972 791 972 565 c 0,25,26
 972 331 972 331 1010 92 c 1,27,28
 900 77 900 77 768 0 c 1,29,-1
 758 6 l 1,30,31
 766 52 766 52 772 97 c 1,32,33
 697 37 697 37 609 0 c 1,0,-1
EndSplineSet
Validated: 1
EndChar

StartChar: v
Encoding: 118 118 71
Width: 1027
GlyphClass: 2
Flags: W
HStem: 0 21G<403 472> 1110 20G<154.5 227 974.5 1022>
LayerCount: 2
Fore
SplineSet
413 0 m 1,0,-1
 403 6 l 1,1,2
 285 550 285 550 5 1043 c 1,3,4
 92 1059 92 1059 217 1130 c 1,5,-1
 227 1124 l 1,6,7
 340 614 340 614 554 258 c 1,8,9
 718 599 718 599 856 1058 c 1,10,11
 937 1086 937 1086 1012 1130 c 1,12,-1
 1022 1124 l 1,13,14
 756 592 756 592 625 87 c 1,15,16
 531 68 531 68 413 0 c 1,0,-1
EndSplineSet
Validated: 1
EndChar

StartChar: w
Encoding: 119 119 72
Width: 1818
GlyphClass: 2
Flags: W
HStem: 0 188<533.727 696.045> 1110 20G<276 352 934 1010 1592 1668>
VStem: 146 168<399.391 1033.39> 804 168<399.494 1033.49> 1416 252<645.848 1045.8> 1464 166<151.672 1005.44>
LayerCount: 2
Fore
SplineSet
609 0 m 1,0,-1
 599 0 l 1,1,2
 418 65 418 65 311 169 c 0,3,4
 146 328 146 328 146 568 c 0,5,6
 146 892 146 892 100 1038 c 1,7,8
 210 1053 210 1053 342 1130 c 1,9,-1
 352 1124 l 1,10,11
 314 808 314 808 314 593 c 0,12,13
 314 404 314 404 439.5 296 c 128,-1,14
 565 188 565 188 692 188 c 0,15,16
 822 188 822 188 881 278 c 1,17,18
 804 403 804 403 804 568 c 0,19,20
 804 895 804 895 758 1038 c 1,21,22
 868 1053 868 1053 1000 1130 c 1,23,-1
 1010 1124 l 1,24,25
 972 808 972 808 972 593 c 0,26,27
 972 406 972 406 1098 296 c 0,28,29
 1228 182 1228 182 1437 145 c 1,30,31
 1464 345 1464 345 1464 503 c 0,32,33
 1464 778 1464 778 1416 1038 c 1,34,35
 1526 1053 1526 1053 1658 1130 c 1,36,-1
 1668 1124 l 1,37,38
 1630 791 1630 791 1630 565 c 0,39,40
 1630 331 1630 331 1668 92 c 1,41,42
 1558 77 1558 77 1426 0 c 1,43,-1
 1416 6 l 1,44,45
 1424 52 1424 52 1430 97 c 1,46,47
 1355 37 1355 37 1267 0 c 1,48,-1
 1257 0 l 1,49,50
 1083 62 1083 62 969 169 c 0,51,52
 938 198 938 198 914 230 c 1,53,54
 778 72 778 72 609 0 c 1,0,-1
EndSplineSet
Validated: 1
EndChar

StartChar: x
Encoding: 120 120 73
Width: 978
GlyphClass: 2
Flags: W
HStem: 0 21G<127 205.5 721 796> 1110 20G<187 263 746.5 831>
LayerCount: 2
Fore
SplineSet
137 0 m 1,0,-1
 127 1 l 1,1,2
 68 60 68 60 10 85 c 1,3,4
 248 314 248 314 408 550 c 1,5,6
 252 798 252 798 18 1038 c 1,7,8
 121 1053 121 1053 253 1130 c 1,9,-1
 263 1124 l 1,10,11
 362 884 362 884 504 680 c 1,12,13
 672 888 672 888 821 1130 c 1,14,-1
 831 1129 l 1,15,16
 890 1070 890 1070 948 1045 c 1,17,18
 726 842 726 842 555 606 c 1,19,20
 732 324 732 324 968 91 c 1,21,22
 861 77 861 77 731 0 c 1,23,-1
 721 6 l 1,24,25
 590 282 590 282 460 472 c 1,26,27
 274 254 274 254 137 0 c 1,0,-1
EndSplineSet
Validated: 1
EndChar

StartChar: y
Encoding: 121 121 74
Width: 1160
GlyphClass: 2
Flags: W
HStem: -380 21G<755 833.5> 0 21G<511.5 661.5> 1110 20G<276 352 934 1010>
VStem: 146 168<398.565 1033.49> 755 252<-296.004 107.282 536.969 1045.8> 800 166<-101.349 115 142 847.172>
LayerCount: 2
Fore
SplineSet
609 0 m 1,0,-1
 599 0 l 1,1,2
 424 62 424 62 311 169 c 0,3,4
 146 324 146 324 146 568 c 0,5,6
 146 895 146 895 100 1038 c 1,7,8
 210 1053 210 1053 342 1130 c 1,9,-1
 352 1124 l 1,10,11
 314 808 314 808 314 593 c 0,12,13
 314 407 314 407 440 296 c 0,14,15
 576 177 576 177 796 142 c 1,16,17
 800 239 800 239 800 348 c 0,18,19
 800 701 800 701 758 1038 c 1,20,21
 868 1053 868 1053 1000 1130 c 1,22,-1
 1010 1124 l 1,23,24
 966 766 966 766 966 400 c 0,25,26
 966 66 966 66 1007 -288 c 1,27,28
 902 -301 902 -301 765 -380 c 1,29,-1
 755 -374 l 1,30,31
 783 -132 783 -132 795 115 c 1,32,33
 714 45 714 45 609 0 c 1,0,-1
EndSplineSet
Validated: 1
EndChar

StartChar: z
Encoding: 122 122 75
Width: 969
GlyphClass: 2
Flags: W
HStem: 0 21G<50 159.5 749.5 834.5> 45 91<371 737.792> 994 92<210.327 575.066> 1110 20G<159.5 259 790.5 898>
LayerCount: 2
Fore
SplineSet
56 0 m 1,0,-1
 50 10 l 1,1,2
 414 507 414 507 579 989 c 1,3,4
 507 994 507 994 420 994 c 0,5,6
 244 994 244 994 81 878 c 1,7,-1
 75 888 l 1,8,9
 152 1020 152 1020 167 1130 c 1,10,11
 351 1086 351 1086 522 1086 c 0,12,13
 689 1086 689 1086 892 1130 c 1,14,-1
 898 1120 l 1,15,16
 688 820 688 820 366 138 c 1,17,18
 435 136 435 136 473 136 c 0,19,20
 686 136 686 136 913 252 c 1,21,-1
 919 242 l 1,22,23
 842 110 842 110 827 0 c 1,24,25
 672 45 672 45 478 45 c 0,26,27
 263 45 263 45 56 0 c 1,0,-1
EndSplineSet
Validated: 1
EndChar

StartChar: braceleft
Encoding: 123 123 76
Width: 997
GlyphClass: 2
Flags: W
HStem: -20 20G<836.5 856.812> 652 192<144.403 284>
VStem: 284 146<420.427 652 844 1291.92>
LayerCount: 2
Fore
SplineSet
56 622 m 1,0,-1
 50 632 l 1,1,2
 122 752 122 752 142 874 c 1,3,4
 219 844 219 844 284 844 c 1,5,6
 284 1183 284 1183 355 1392 c 0,7,8
 490 1789 490 1789 779 1927 c 1,9,10
 842 1887 842 1887 887 1824 c 128,-1,11
 932 1761 932 1761 947 1689 c 1,12,-1
 815 1515 l 1,13,14
 789 1631 789 1631 755 1677 c 0,15,16
 705 1746 705 1746 659 1746 c 1,17,18
 430 1612 430 1612 430 832 c 0,19,20
 430 395 430 395 590 105 c 0,21,22
 689 -74 689 -74 822 -182 c 1,23,24
 853 -141 853 -141 853 -95 c 0,25,26
 853 -44 853 -44 820 0 c 1,27,-1
 947 -69 l 1,28,29
 911 -167 911 -167 866 -223 c 0,30,31
 801 -303 801 -303 719 -345 c 1,32,33
 569 -217 569 -217 453 -13 c 0,34,35
 284 284 284 284 284 652 c 1,36,37
 159 652 159 652 56 622 c 1,0,-1
EndSplineSet
Validated: 1
EndChar

StartChar: bar
Encoding: 124 124 77
Width: 620
GlyphClass: 2
Flags: W
VStem: 200 220<-73.2959 408.064 1104.65 1583.3> 244 132<350.064 1184.42>
LayerCount: 2
Fore
SplineSet
210 -150 m 1,0,-1
 200 -144 l 1,1,2
 244 288 244 288 244 716.5 c 128,-1,3
 244 1145 244 1145 200 1571 c 1,4,5
 264 1584 264 1584 410 1660 c 1,6,-1
 420 1654 l 1,7,8
 376 1265 376 1265 376 817 c 0,9,10
 376 377 376 377 420 -61 c 1,11,12
 356 -74 356 -74 210 -150 c 1,0,-1
EndSplineSet
Validated: 1
EndChar

StartChar: braceright
Encoding: 125 125 78
Width: 997
GlyphClass: 2
Flags: W
HStem: 652 192<713 852.597>
VStem: 567 146<290.084 652 844 1161.57>
LayerCount: 2
Fore
SplineSet
941 874 m 1,0,-1
 947 864 l 1,1,2
 875 744 875 744 855 622 c 1,3,4
 778 652 778 652 713 652 c 1,5,6
 713 399 713 399 642 190 c 0,7,8
 507 -207 507 -207 218 -345 c 1,9,10
 155 -305 155 -305 110 -242 c 128,-1,11
 65 -179 65 -179 50 -107 c 1,12,-1
 182 67 l 1,13,14
 208 -49 208 -49 242 -95 c 0,15,16
 292 -164 292 -164 338 -164 c 1,17,18
 567 -30 567 -30 567 750 c 0,19,20
 567 1187 567 1187 407 1477 c 0,21,22
 308 1656 308 1656 175 1764 c 1,23,24
 144 1723 144 1723 144 1677 c 0,25,26
 144 1626 144 1626 177 1582 c 1,27,-1
 50 1651 l 1,28,29
 86 1749 86 1749 131 1805 c 0,30,31
 196 1885 196 1885 278 1927 c 1,32,33
 428 1799 428 1799 544 1595 c 0,34,35
 713 1298 713 1298 713 844 c 1,36,37
 838 844 838 844 941 874 c 1,0,-1
EndSplineSet
Validated: 1
EndChar

StartChar: asciitilde
Encoding: 126 126 79
Width: 1236
GlyphClass: 2
Flags: W
HStem: 692 6<515 725>
LayerCount: 2
Fore
SplineSet
156 538 m 1,0,-1
 150 548 l 1,1,2
 223 692 223 692 240 802 c 1,3,4
 312 860 312 860 387 860 c 0,5,6
 483 860 483 860 582 757 c 0,7,8
 639 698 639 698 725 698 c 0,9,10
 865 698 865 698 1080 856 c 1,11,-1
 1086 846 l 1,12,13
 1013 702 1013 702 996 592 c 1,14,15
 924 529 924 529 843 529 c 0,16,17
 752 529 752 529 654 636 c 0,18,19
 603 692 603 692 515 692 c 0,20,21
 382 692 382 692 156 538 c 1,0,-1
EndSplineSet
Validated: 1
EndChar

StartChar: exclamdown
Encoding: 161 161 81
Width: 612
GlyphClass: 2
Flags: W
HStem: 0 21G<170 247> 1490 20G<350 422>
VStem: 204 202<1233.57 1419.6> 243 145<164.661 1119>
LayerCount: 2
Fore
SplineSet
180 0 m 1,0,-1
 170 6 l 1,1,2
 224 262 224 262 243 585 c 0,3,4
 256 805 256 805 256 1119 c 1,5,6
 334 1135 334 1135 381 1176 c 1,7,8
 381 869 381 869 388 595 c 128,-1,9
 395 321 395 321 442 92 c 1,10,11
 314 79 314 79 180 0 c 1,0,-1
412 1510 m 1,12,-1
 422 1504 l 1,13,14
 406 1416 406 1416 406 1364 c 0,15,16
 406 1324 406 1324 419 1247 c 1,17,18
 324 1231 324 1231 200 1159 c 1,19,-1
 190 1165 l 1,20,21
 204 1252 204 1252 204 1307 c 0,22,23
 204 1345 204 1345 194 1422 c 1,24,25
 288 1439 288 1439 412 1510 c 1,12,-1
EndSplineSet
Validated: 1
EndChar

StartChar: sterling
Encoding: 163 163 82
Width: 1169
GlyphClass: 2
Flags: W
HStem: 0 21G<200 313.5 899.5 984.5> 45 91<448.012 885.888> 658 146<147.394 242.121 473.191 773.606> 685 92<411 751.496> 1490 20G<587 767>
VStem: 244 167<177.926 675 792 1021.05>
LayerCount: 2
Fore
SplineSet
210 0 m 1,0,-1
 200 6 l 1,1,2
 241 342 241 342 244 675 c 1,3,4
 184 669 184 669 106 658 c 1,5,-1
 100 668 l 1,6,7
 143 740 143 740 165 804 c 1,8,9
 192 796 192 796 244 792 c 1,10,11
 240 930 240 930 220 1024 c 1,12,13
 246 1131 246 1131 377 1288 c 0,14,15
 504 1441 504 1441 670 1510 c 1,16,-1
 680 1510 l 1,17,18
 854 1449 854 1449 969 1341 c 9,19,-1
 840 1214 l 17,20,21
 703 1332 703 1332 482 1368 c 1,22,23
 414 1054 414 1054 410 778 c 1,24,25
 449 777 449 777 468 777 c 0,26,27
 634 777 634 777 815 804 c 1,28,-1
 821 794 l 1,29,30
 778 722 778 722 756 658 c 1,31,32
 612 685 612 685 453 685 c 0,33,34
 440 685 440 685 411 684 c 1,35,36
 416 408 416 408 446 145 c 1,37,38
 510 136 510 136 623 136 c 0,39,40
 832 136 832 136 1063 252 c 1,41,-1
 1069 242 l 1,42,43
 992 110 992 110 977 0 c 1,44,45
 822 45 822 45 628 45 c 0,46,47
 417 45 417 45 210 0 c 1,0,-1
EndSplineSet
Validated: 1
EndChar

StartChar: currency
Encoding: 164 164 83
Width: 1497
GlyphClass: 2
Flags: W
VStem: 309 136<684.797 952.388> 1051 137<594.312 870.533>
LayerCount: 2
Fore
SplineSet
973 501 m 1,0,1
 1051 618 1051 618 1051 743 c 0,2,3
 1051 874 1051 874 903 952 c 0,4,5
 754 1031 754 1031 523 1052 c 1,6,7
 445 938 445 938 445 810 c 0,8,9
 445 680 445 680 593 601.5 c 128,-1,10
 741 523 741 523 973 501 c 1,0,1
772 315 m 1,11,-1
 762 315 l 1,12,13
 604 362 604 362 502 432 c 1,14,15
 427 337 427 337 364 226 c 1,16,17
 284 280 284 280 153 315 c 1,18,-1
 150 326 l 1,19,20
 298 420 298 420 409 513 c 1,21,22
 309 625 309 625 309 778 c 0,23,24
 309 920 309 920 410 1032 c 1,25,26
 299 1126 299 1126 150 1220 c 1,27,-1
 153 1231 l 1,28,29
 284 1266 284 1266 364 1320 c 1,30,31
 427 1209 427 1209 501 1114 c 1,32,33
 601 1191 601 1191 725 1234 c 1,34,-1
 735 1234 l 1,35,36
 895 1187 895 1187 997 1116 c 1,37,38
 1071 1210 1071 1210 1133 1320 c 1,39,40
 1213 1266 1213 1266 1344 1231 c 1,41,-1
 1347 1220 l 1,42,43
 1200 1127 1200 1127 1090 1034 c 1,44,45
 1188 922 1188 922 1188 772 c 0,46,47
 1188 625 1188 625 1086 515 c 1,48,49
 1198 421 1198 421 1347 326 c 1,50,-1
 1344 315 l 1,51,52
 1213 280 1213 280 1133 226 c 1,53,54
 1070 338 1070 338 994 434 c 1,55,56
 891 356 891 356 772 315 c 1,11,-1
EndSplineSet
Validated: 1
EndChar

StartChar: yen
Encoding: 165 165 84
Width: 1265
GlyphClass: 2
Flags: W
HStem: 0 21G<509 587> 365 222<226.343 409.203 851.678 1039.66> 714 106<626 715.563> 1490 20G<223.5 302 1157.5 1215>
VStem: 509 252<83.9956 412.891>
LayerCount: 2
Fore
SplineSet
519 0 m 1,0,-1
 509 6 l 1,1,2
 533 209 533 209 545 421 c 1,3,4
 372 413 372 413 156 365 c 1,5,-1
 150 375 l 1,6,7
 218 493 218 493 237 587 c 1,8,9
 375 549 375 549 508 536 c 1,10,11
 475 620 475 620 439 704 c 1,12,13
 307 690 307 690 154 656 c 1,14,-1
 148 666 l 1,15,16
 216 784 216 784 235 878 c 1,17,18
 305 859 305 859 374 846 c 1,19,20
 234 1137 234 1137 50 1418 c 1,21,22
 155 1431 155 1431 292 1510 c 1,23,-1
 302 1504 l 1,24,25
 416 1119 416 1119 568 822 c 1,26,27
 606 820 606 820 644 820 c 0,28,29
 707 820 707 820 776 826 c 1,30,31
 914 1108 914 1108 1010 1427 c 1,32,33
 1110 1453 1110 1453 1205 1510 c 1,34,-1
 1215 1504 l 1,35,36
 1024 1164 1024 1164 879 837 c 1,37,38
 986 851 986 851 1108 878 c 1,39,-1
 1114 868 l 1,40,41
 1046 750 1046 750 1027 656 c 1,42,43
 922 685 922 685 820 699 c 1,44,-1
 753 533 l 1,45,46
 914 544 914 544 1110 587 c 1,47,-1
 1116 577 l 1,48,49
 1048 459 1048 459 1029 365 c 1,50,51
 877 407 877 407 731 419 c 1,52,53
 744 223 744 223 761 92 c 1,54,55
 655 79 655 79 519 0 c 1,0,-1
717 710 m 1,56,57
 671 714 671 714 626 714 c 1,58,-1
 674 633 l 1,59,-1
 717 710 l 1,56,57
EndSplineSet
Validated: 1
EndChar

StartChar: brokenbar
Encoding: 166 166 85
Width: 644
GlyphClass: 2
Flags: W
VStem: 212 220<-74.302 175.796 863.472 1079.22 1334.2 1584.3> 260 124<-47.8926 631.973 878.027 1557.89>
LayerCount: 2
Fore
SplineSet
422 1660 m 1,0,-1
 432 1654 l 1,1,2
 384 1416 384 1416 384 1240.5 c 128,-1,3
 384 1065 384 1065 420 872 c 1,4,5
 352 857 352 857 210 783 c 1,6,-1
 200 789 l 1,7,8
 260 977 260 977 260 1169 c 128,-1,9
 260 1361 260 1361 212 1571 c 1,10,11
 287 1589 287 1589 422 1660 c 1,0,-1
222 -150 m 1,12,-1
 212 -144 l 1,13,14
 260 94 260 94 260 269.5 c 128,-1,15
 260 445 260 445 224 638 c 1,16,17
 292 653 292 653 434 727 c 1,18,-1
 444 721 l 1,19,20
 384 533 384 533 384 341 c 128,-1,21
 384 149 384 149 432 -61 c 1,22,23
 357 -79 357 -79 222 -150 c 1,12,-1
EndSplineSet
Validated: 1
EndChar

StartChar: section
Encoding: 167 167 86
Width: 1127
GlyphClass: 2
Flags: W
HStem: 0 21G<459.5 660> 1490 20G<467 667.5>
VStem: 150 131<715.615 877.045> 241 114<1093 1301.42> 772 114<208.581 417> 846 131<632.955 794.385>
DStem2: 426 653 358 493 0.943058 -0.332629<-143.196 415.695> 530 1103 443 948 0.943058 -0.332629<-177.244 386.286>
LayerCount: 2
Fore
SplineSet
558 0 m 1,0,1
 548 0 l 1,2,3
 371 65 371 65 260 169 c 0,4,5
 231 196 231 196 208 226 c 1,6,-1
 360 322 l 1,7,8
 364 317 364 317 388 296 c 0,9,10
 526 177 526 177 747 142 c 1,11,12
 772 191 772 191 772 233 c 0,13,14
 772 343 772 343 597 407 c 0,15,16
 567 418 567 418 358 493 c 0,17,18
 150 568 150 568 150 731 c 0,19,20
 150 828 150 828 217 908 c 0,21,22
 250 950 250 950 310 1003 c 1,23,24
 281 917 281 917 281 831 c 0,25,26
 281 705 281 705 426 653 c 0,27,28
 479 634 479 634 684 562 c 0,29,30
 886 491 886 491 886 343 c 0,31,32
 886 272 886 272 852 222 c 0,33,34
 762 90 762 90 558 0 c 1,0,1
569 1510 m 1,35,-1
 579 1510 l 1,36,37
 756 1445 756 1445 867 1341 c 0,38,39
 896 1314 896 1314 919 1284 c 1,40,-1
 767 1188 l 1,41,42
 763 1193 763 1193 739 1214 c 0,43,44
 601 1333 601 1333 380 1368 c 1,45,46
 355 1319 355 1319 355 1277 c 0,47,48
 355 1167 355 1167 530 1103 c 0,49,50
 560 1092 560 1092 769 1017 c 0,51,52
 977 942 977 942 977 779 c 0,53,54
 977 682 977 682 910 602 c 0,55,56
 877 560 877 560 817 507 c 1,57,58
 846 593 846 593 846 679 c 0,59,60
 846 805 846 805 701 857 c 0,61,62
 648 876 648 876 443 948 c 0,63,64
 241 1019 241 1019 241 1167 c 0,65,66
 241 1238 241 1238 275 1288 c 0,67,68
 365 1420 365 1420 569 1510 c 1,35,-1
EndSplineSet
Validated: 1
EndChar

StartChar: dieresis
Encoding: 168 168 87
Width: 817
GlyphClass: 2
Flags: W
HStem: 1169 351
VStem: 150 228<1246.98 1313.37 1316.26 1370.8 1373.73 1440.81> 166 202<1259.4 1429.6> 435 228<1246.98 1313.37 1316.26 1370.8 1373.73 1440.81> 451 202<1259.4 1429.6>
LayerCount: 2
Fore
SplineSet
657 1520 m 1,0,-1
 667 1514 l 1,1,2
 653 1427 653 1427 653 1372 c 0,3,4
 653 1334 653 1334 663 1257 c 1,5,6
 569 1240 569 1240 445 1169 c 1,7,-1
 435 1175 l 1,8,9
 451 1263 451 1263 451 1315 c 0,10,11
 451 1355 451 1355 438 1432 c 1,12,13
 533 1448 533 1448 657 1520 c 1,0,-1
372 1520 m 1,14,-1
 382 1514 l 1,15,16
 368 1427 368 1427 368 1372 c 0,17,18
 368 1334 368 1334 378 1257 c 1,19,20
 284 1240 284 1240 160 1169 c 1,21,-1
 150 1175 l 1,22,23
 166 1263 166 1263 166 1315 c 0,24,25
 166 1355 166 1355 153 1432 c 1,26,27
 248 1448 248 1448 372 1520 c 1,14,-1
EndSplineSet
Validated: 1
EndChar

StartChar: copyright
Encoding: 169 169 88
Width: 1401
GlyphClass: 2
Flags: W
HStem: 187 73<514.363 878.202> 1110 20G<624 727.5> 1254 77<516.855 884.384>
VStem: 150 74<569.815 952.807> 396 115<658.038 926.506> 1176 75<558.376 958.928>
LayerCount: 2
Fore
SplineSet
701 1331 m 0,0,1
 941 1331 941 1331 1099 1158 c 0,2,3
 1251 987 1251 987 1251 754 c 0,4,5
 1251 502 1251 502 1090 350 c 0,6,7
 919 187 919 187 699 187 c 0,8,9
 476 187 476 187 311 350 c 0,10,11
 150 509 150 509 150 754 c 0,12,13
 150 1000 150 1000 308 1163 c 0,14,15
 469 1331 469 1331 701 1331 c 0,0,1
699 1254 m 0,16,17
 509 1254 509 1254 367 1113 c 0,18,19
 224 971 224 971 224 754 c 0,20,21
 224 561 224 561 364 406 c 0,22,23
 495 260 495 260 701 260 c 0,24,25
 892 260 892 260 1037 406 c 0,26,27
 1176 546 1176 546 1176 754 c 0,28,29
 1176 975 1176 975 1039 1110 c 0,30,31
 893 1254 893 1254 699 1254 c 0,16,17
680 1130 m 1,32,33
 685 1130 685 1130 690 1130 c 1,34,35
 765 1112 765 1112 823 1076 c 0,36,37
 898 1029 898 1029 942 954 c 1,38,-1
 812 870 l 1,39,40
 779 917 779 917 725 955 c 0,41,42
 668 995 668 995 555 1005 c 1,43,44
 511 907 511 907 511 800 c 0,45,46
 511 631 511 631 697 550 c 0,47,48
 766 520 766 520 848 513 c 1,49,50
 855 542 855 542 855 559 c 0,51,52
 855 595 855 595 839 639 c 1,53,-1
 969 590 l 1,54,55
 950 551 950 551 933 531 c 0,56,57
 851 438 851 438 717 382 c 1,58,59
 707 382 l 1,60,61
 588 421 588 421 510 492 c 0,62,63
 396 595 396 595 396 752 c 0,64,65
 396 897 396 897 498 1004 c 0,66,67
 568 1079 568 1079 680 1130 c 1,32,33
EndSplineSet
Validated: 1
EndChar

StartChar: ordfeminine
Encoding: 170 170 89
Width: 1021
GlyphClass: 2
Flags: W
HStem: 717 146<197.394 497.778 507.996 513.035 523.191 823.176> 744 92<219.504 800.558> 1417 93<460.54 506.192>
VStem: 253 125<1088.88 1215.6> 614 125<1031.63 1328.27>
LayerCount: 2
Fore
SplineSet
150 727 m 1,0,1
 193 799 193 799 215 863 c 1,2,3
 359 836 359 836 518 836 c 0,4,5
 684 836 684 836 865 863 c 1,6,-1
 871 853 l 1,7,8
 828 781 828 781 805 717 c 1,9,10
 663 744 663 744 503 744 c 0,11,12
 336 744 336 744 156 717 c 1,13,-1
 150 727 l 1,0,1
598 917 m 1,14,-1
 589 920 l 1,15,16
 596 951 596 951 601 994 c 1,17,-1
 500 919 l 1,18,-1
 487 919 l 1,19,20
 393 953 393 953 332 999 c 0,21,22
 253 1058 253 1058 253 1128 c 0,23,24
 253 1204 253 1204 317 1247 c 0,25,26
 362 1277 362 1277 420 1277 c 0,27,28
 466 1277 466 1277 520 1258 c 1,29,30
 439 1229 439 1229 424 1217 c 0,31,32
 378 1184 378 1184 378 1138 c 0,33,34
 378 1105 378 1105 450 1075 c 0,35,36
 532 1041 532 1041 605 1029 c 1,37,38
 614 1113 614 1113 614 1210 c 0,39,40
 614 1294 614 1294 557 1342 c 0,41,42
 495 1394 495 1394 339 1417 c 1,43,44
 407 1473 407 1473 488 1510 c 1,45,-1
 498 1510 l 1,46,47
 576 1484 576 1484 648 1423 c 0,48,49
 739 1345 739 1345 739 1225 c 0,50,51
 739 1069 739 1069 768 988 c 1,52,53
 690 986 690 986 598 917 c 1,14,-1
EndSplineSet
Validated: 1
EndChar

StartChar: guillemotleft
Encoding: 171 171 90
Width: 1523
GlyphClass: 2
Flags: W
LayerCount: 2
Fore
SplineSet
678 630 m 1,0,1
 757 766 757 766 770 872 c 1,2,3
 1030 999 1030 999 1317 1263 c 1,4,-1
 1323 1253 l 1,5,6
 1266 1158 1266 1158 1240 1058 c 1,7,8
 1064 959 1064 959 886 776 c 1,9,10
 1034 540 1034 540 1317 445 c 1,11,-1
 1323 435 l 1,12,13
 1244 298 1244 298 1231 193 c 1,14,15
 1046 446 1046 446 684 620 c 1,16,-1
 678 630 l 1,0,1
150 630 m 1,17,18
 229 766 229 766 242 872 c 1,19,20
 502 999 502 999 789 1263 c 1,21,-1
 795 1253 l 1,22,23
 738 1158 738 1158 712 1058 c 1,24,25
 536 959 536 959 358 776 c 1,26,27
 506 540 506 540 789 445 c 1,28,-1
 795 435 l 1,29,30
 716 298 716 298 703 193 c 1,31,32
 518 446 518 446 156 620 c 1,33,-1
 150 630 l 1,17,18
EndSplineSet
Validated: 1
EndChar

StartChar: logicalnot
Encoding: 172 172 91
Width: 1266
GlyphClass: 2
Flags: W
HStem: 693 106<291.734 928.58>
VStem: 934 43<241 658>
LayerCount: 2
Fore
SplineSet
156 635 m 1,0,-1
 150 645 l 1,1,2
 218 763 218 763 237 857 c 1,3,4
 447 799 447 799 646.5 799 c 128,-1,5
 846 799 846 799 1110 857 c 1,6,-1
 1116 847 l 1,7,8
 977 498 977 498 977 241 c 1,9,10
 905 220 905 220 807 164 c 1,11,-1
 797 170 l 1,12,13
 934 503 934 503 934 658 c 1,14,15
 774 693 774 693 620 693 c 0,16,17
 420 693 420 693 156 635 c 1,0,-1
EndSplineSet
Validated: 1
EndChar

StartChar: uni00AD
Encoding: 173 173 92
Width: 1266
GlyphClass: 2
Flags: W
HStem: 635 222<226.343 411.101 854.899 1039.66> 693 106<291.699 974.301>
LayerCount: 2
Fore
SplineSet
156 635 m 1,0,-1
 150 645 l 1,1,2
 218 763 218 763 237 857 c 1,3,4
 447 799 447 799 646.5 799 c 128,-1,5
 846 799 846 799 1110 857 c 1,6,-1
 1116 847 l 1,7,8
 1048 729 1048 729 1029 635 c 1,9,10
 819 693 819 693 619.5 693 c 128,-1,11
 420 693 420 693 156 635 c 1,0,-1
EndSplineSet
Validated: 1
EndChar

StartChar: registered
Encoding: 174 174 93
Width: 1401
GlyphClass: 2
Flags: W
HStem: 187 73<515.181 876.204> 534 73<594.898 782.148> 1027 132<481.716 788.954> 1254 77<517.099 884.384>
VStem: 150 74<570.315 952.561> 460 127<382.257 552 631.126 927.74> 878 141<679.056 941.799> 1176 75<559.861 958.928>
LayerCount: 2
Fore
SplineSet
412 1097 m 1,0,1
 540 1159 540 1159 662 1159 c 0,2,3
 814 1159 814 1159 910 1064 c 0,4,5
 1019 956 1019 956 1019 822 c 0,6,7
 1019 756 1019 756 984 686 c 0,8,9
 957 632 957 632 884 583 c 1,10,11
 952 481 952 481 1048 418 c 1,12,13
 1176 555 1176 555 1176 754 c 0,14,15
 1176 975 1176 975 1039 1110 c 0,16,17
 893 1254 893 1254 699 1254 c 0,18,19
 509 1254 509 1254 367 1113 c 0,20,21
 224 971 224 971 224 754 c 0,22,23
 224 563 224 563 364 406 c 0,24,25
 397 369 397 369 435 342 c 1,26,27
 460 498 460 498 460 680 c 0,28,29
 460 764 460 764 432 933 c 1,30,31
 520 942 520 942 619 994 c 1,32,33
 587 833 587 833 587 708 c 0,34,35
 587 666 587 666 590 630 c 1,36,37
 636 607 636 607 674 607 c 0,38,39
 772 607 772 607 815 656 c 0,40,41
 878 728 878 728 878 814 c 0,42,43
 878 909 878 909 806 970 c 0,44,45
 742 1027 742 1027 656 1027 c 0,46,47
 527 1027 527 1027 360 912 c 1,48,-1
 412 1097 l 1,0,1
701 1331 m 0,49,50
 941 1331 941 1331 1099 1158 c 1,51,52
 1251 987 1251 987 1251 754 c 0,53,54
 1251 503 1251 503 1090 350 c 0,55,56
 918 187 918 187 699 187 c 0,57,58
 476 187 476 187 311 350 c 0,59,60
 150 509 150 509 150 754 c 128,-1,61
 150 999 150 999 308 1163 c 0,62,63
 470 1331 470 1331 701 1331 c 0,49,50
999 370 m 1,64,65
 944 354 944 354 896 324 c 1,66,67
 842 458 842 458 766 539 c 1,68,69
 704 534 704 534 695 534 c 0,70,71
 642 534 642 534 594 552 c 1,72,73
 603 452 603 452 620 380 c 1,74,75
 523 362 523 362 448 333 c 1,76,77
 556 260 556 260 701 260 c 0,78,79
 867 260 867 260 999 370 c 1,64,65
EndSplineSet
Validated: 1
EndChar

StartChar: macron
Encoding: 175 175 94
Width: 1266
GlyphClass: 2
Flags: W
HStem: 1288 222<226.343 411.101 854.899 1039.66> 1346 106<291.699 974.301>
LayerCount: 2
Fore
SplineSet
156 1288 m 1,0,-1
 150 1298 l 1,1,2
 218 1416 218 1416 237 1510 c 1,3,4
 447 1452 447 1452 646.5 1452 c 128,-1,5
 846 1452 846 1452 1110 1510 c 1,6,-1
 1116 1500 l 1,7,8
 1048 1382 1048 1382 1029 1288 c 1,9,10
 819 1346 819 1346 619.5 1346 c 128,-1,11
 420 1346 420 1346 156 1288 c 1,0,-1
EndSplineSet
Validated: 1
EndChar

StartChar: degree
Encoding: 176 176 95
Width: 875
GlyphClass: 2
Flags: W
HStem: 847 663
VStem: 150 128<1104.06 1329.26> 607 118<1027.73 1257.98>
LayerCount: 2
Fore
SplineSet
420 1510 m 1,0,-1
 430 1510 l 1,1,2
 526 1476 526 1476 608 1411 c 0,3,4
 725 1318 725 1318 725 1178 c 0,5,6
 725 1056 725 1056 625 959 c 0,7,8
 559 896 559 896 455 847 c 1,9,-1
 445 847 l 1,10,11
 349 881 349 881 267 946 c 0,12,13
 150 1039 150 1039 150 1179 c 0,14,15
 150 1301 150 1301 250 1398 c 0,16,17
 316 1461 316 1461 420 1510 c 1,0,-1
328 1371 m 1,18,19
 278 1319 278 1319 278 1224 c 0,20,21
 278 1103 278 1103 410 1042 c 0,22,23
 483 1009 483 1009 549 988 c 1,24,25
 607 1067 607 1067 607 1135 c 0,26,27
 607 1259 607 1259 481 1317 c 0,28,29
 425 1343 425 1343 328 1371 c 1,18,19
EndSplineSet
Validated: 1
EndChar

StartChar: plusminus
Encoding: 177 177 96
Width: 1266
GlyphClass: 2
Flags: W
HStem: 162 222<226.343 411.101 854.899 1039.66> 220 106<291.699 974.301> 796 222<226.343 413.473 852.527 1039.66>
VStem: 522 222<500.343 687.473 1126.53 1313.66>
LayerCount: 2
Fore
SplineSet
156 162 m 1,0,-1
 150 172 l 1,1,2
 218 290 218 290 237 384 c 1,3,4
 447 326 447 326 646.5 326 c 128,-1,5
 846 326 846 326 1110 384 c 1,6,-1
 1116 374 l 1,7,8
 1048 256 1048 256 1029 162 c 1,9,10
 819 220 819 220 619.5 220 c 128,-1,11
 420 220 420 220 156 162 c 1,0,-1
156 796 m 1,12,-1
 150 806 l 1,13,14
 218 924 218 924 237 1018 c 1,15,16
 411 970 411 970 578 962 c 1,17,18
 570 1129 570 1129 522 1303 c 1,19,20
 616 1322 616 1322 734 1390 c 1,21,-1
 744 1384 l 1,22,23
 692 1146 692 1146 687 961 c 1,24,25
 872 966 872 966 1110 1018 c 1,26,-1
 1116 1008 l 1,27,28
 1048 890 1048 890 1029 796 c 1,29,30
 855 844 855 844 688 852 c 1,31,32
 696 685 696 685 744 511 c 1,33,34
 650 492 650 492 532 424 c 1,35,-1
 522 430 l 1,36,37
 574 668 574 668 579 853 c 1,38,39
 394 848 394 848 156 796 c 1,12,-1
EndSplineSet
Validated: 1
EndChar

StartChar: uni00B2
Encoding: 178 178 97
Width: 870
GlyphClass: 2
Flags: W
HStem: 728 97<262.169 668.616> 1490 20G<367 451.5>
VStem: 157 105<831.921 905 1217.18 1361.88> 553 133<1137.05 1286.4>
LayerCount: 2
Fore
SplineSet
158 704 m 1,0,-1
 150 710 l 1,1,2
 150 864 150 864 240 954 c 0,3,4
 291 1005 291 1005 500 1131 c 0,5,6
 553 1163 553 1163 553 1214 c 0,7,8
 553 1261 553 1261 470 1315 c 0,9,10
 363 1385 363 1385 276 1402 c 1,11,12
 262 1362 262 1362 262 1316 c 0,13,14
 262 1274 262 1274 314 1261 c 1,15,-1
 195 1168 l 1,16,17
 157 1204 157 1204 157 1249 c 0,18,19
 157 1330 157 1330 248 1409 c 0,20,21
 340 1489 340 1489 394 1510 c 1,22,-1
 404 1510 l 1,23,24
 499 1477 499 1477 575 1418 c 0,25,26
 686 1333 686 1333 686 1229 c 0,27,28
 686 1100 686 1100 529 1035 c 0,29,30
 260 924 260 924 260 839 c 1,31,32
 329 825 329 825 452 825 c 0,33,34
 619 825 619 825 715 882 c 1,35,-1
 720 875 l 1,36,37
 678 792 678 792 672 704 c 1,38,39
 564 728 564 728 419 728 c 0,40,41
 291 728 291 728 158 704 c 1,0,-1
EndSplineSet
Validated: 1
EndChar

StartChar: uni00B3
Encoding: 179 179 98
Width: 872
GlyphClass: 2
Flags: W
HStem: 1490 20G<385.5 451.5>
VStem: 206 98<1249.75 1387.15> 536 112<1203.42 1334.29> 619 103<854.719 1010.46>
LayerCount: 2
Fore
SplineSet
413 1510 m 1,0,1
 423 1510 l 1,2,3
 480 1489 480 1489 532 1456 c 0,4,5
 648 1385 648 1385 648 1297 c 0,6,7
 648 1212 648 1212 532 1155 c 1,8,9
 623 1134 623 1134 665 1101 c 0,10,11
 722 1057 722 1057 722 973 c 0,12,13
 722 875 722 875 620 802 c 0,14,15
 524 735 524 735 441 704 c 1,16,-1
 431 704 l 1,17,18
 348 738 348 738 283 781 c 0,19,20
 233 814 233 814 150 898 c 1,21,-1
 268 959 l 1,22,23
 303 915 303 915 370 875 c 0,24,25
 442 832 442 832 552 810 c 1,26,27
 619 851 619 851 619 936 c 0,28,29
 619 994 619 994 544 1028 c 1,30,-1
 333 1112 l 1,31,32
 536 1180 536 1180 536 1270 c 0,33,34
 536 1319 536 1319 462 1349 c 0,35,-1
 326 1406 l 1,36,37
 304 1369 304 1369 304 1337 c 0,38,39
 304 1294 304 1294 355 1270 c 1,40,-1
 244 1219 l 1,41,42
 206 1247 206 1247 206 1302 c 0,43,44
 206 1354 206 1354 294 1429 c 0,45,46
 358 1485 358 1485 413 1510 c 1,0,1
EndSplineSet
Validated: 1
EndChar

StartChar: acute
Encoding: 180 180 99
Width: 709
GlyphClass: 2
Flags: W
HStem: 1166 344
VStem: 150 404
LayerCount: 2
Fore
SplineSet
359 1510 m 1,0,1
 489 1429 489 1429 554 1418 c 1,2,-1
 559 1408 l 1,3,4
 394 1328 394 1328 282 1166 c 1,5,-1
 272 1160 l 1,6,7
 224 1192 224 1192 150 1215 c 1,8,-1
 150 1225 l 1,9,10
 292 1330 292 1330 349 1504 c 1,11,-1
 359 1510 l 1,0,1
EndSplineSet
Validated: 1
EndChar

StartChar: periodcentered
Encoding: 183 183 100
Width: 532
GlyphClass: 2
Flags: W
HStem: 572 351
VStem: 150 228<649.979 716.366 719.259 773.803 776.727 843.811> 166 202<662.397 832.603>
LayerCount: 2
Fore
SplineSet
372 923 m 5,0,-1
 382 917 l 5,1,2
 368 830 368 830 368 775 c 4,3,4
 368 737 368 737 378 660 c 5,5,6
 284 643 284 643 160 572 c 5,7,-1
 150 578 l 5,8,9
 166 666 166 666 166 718 c 4,10,11
 166 758 166 758 153 835 c 5,12,13
 248 851 248 851 372 923 c 5,0,-1
EndSplineSet
Validated: 1
EndChar

StartChar: cedilla
Encoding: 184 184 101
Width: 637
GlyphClass: 2
Flags: W
HStem: -380 9<124 130.17>
VStem: 323 154<-253.08 -36.3701>
LayerCount: 2
Fore
SplineSet
216 67 m 1,0,1
 477 19 477 19 477 -163 c 0,2,3
 477 -280 477 -280 368 -348 c 1,4,5
 238 -348 238 -348 128 -380 c 1,6,7
 124 -371 l 1,8,9
 323 -267 323 -267 323 -137 c 0,10,11
 323 -31 323 -31 216 57 c 1,12,-1
 216 67 l 1,0,1
EndSplineSet
Validated: 1
EndChar

StartChar: uni00B9
Encoding: 185 185 102
Width: 701
GlyphClass: 2
Flags: W
HStem: 1490 20G<450 501>
VStem: 330 134<789.379 1329.88>
LayerCount: 2
Fore
SplineSet
491 1510 m 1,0,-1
 501 1504 l 1,1,2
 464 1335 464 1335 464 1145.5 c 128,-1,3
 464 956 464 956 500 784 c 1,4,5
 393 763 393 763 305 704 c 1,6,-1
 295 710 l 1,7,8
 330 861 330 861 330 1087 c 0,9,10
 330 1219 330 1219 315 1335 c 1,11,12
 260 1272 260 1272 227 1188 c 1,13,14
 187 1208 187 1208 100 1227 c 1,15,16
 203 1306 203 1306 295 1433 c 1,17,18
 409 1454 409 1454 491 1510 c 1,0,-1
EndSplineSet
Validated: 1
EndChar

StartChar: ordmasculine
Encoding: 186 186 103
Width: 1021
GlyphClass: 2
Flags: W
HStem: 717 146<197.394 497.778 507.996 513.035 523.191 823.176> 744 92<219.504 800.558> 1490 20G<453 553.5>
VStem: 271 108<1103.85 1364.44> 642 108<1051.38 1305.12>
LayerCount: 2
Fore
SplineSet
150 727 m 1,0,1
 193 799 193 799 215 863 c 1,2,3
 359 836 359 836 518 836 c 0,4,5
 684 836 684 836 865 863 c 1,6,-1
 871 853 l 1,7,8
 828 781 828 781 805 717 c 1,9,10
 663 744 663 744 503 744 c 0,11,12
 336 744 336 744 156 717 c 1,13,-1
 150 727 l 1,0,1
495 1510 m 1,14,15
 506 1510 l 1,16,17
 601 1479 601 1479 662 1418 c 0,18,19
 750 1331 750 1331 750 1204 c 0,20,21
 750 1100 750 1100 684 1021 c 128,-1,22
 618 942 618 942 526 902 c 1,23,-1
 516 902 l 1,24,25
 416 936 416 936 359 993 c 0,26,27
 271 1081 271 1081 271 1207 c 0,28,29
 271 1316 271 1316 339 1395 c 0,30,31
 411 1478 411 1478 495 1510 c 1,14,15
407 1393 m 1,32,33
 379 1324 379 1324 379 1245 c 0,34,35
 379 1134 379 1134 443 1085 c 0,36,37
 509 1033 509 1033 614 1018 c 1,38,39
 642 1088 642 1088 642 1166 c 0,40,41
 642 1273 642 1273 575 1329 c 0,42,43
 513 1381 513 1381 407 1393 c 1,32,33
EndSplineSet
Validated: 1
EndChar

StartChar: guillemotright
Encoding: 187 187 104
Width: 1523
GlyphClass: 2
Flags: W
LayerCount: 2
Fore
SplineSet
845 826 m 1,0,1
 766 690 766 690 753 584 c 1,2,3
 493 457 493 457 206 193 c 1,4,-1
 200 203 l 1,5,6
 257 298 257 298 283 398 c 1,7,8
 459 497 459 497 637 680 c 1,9,10
 489 916 489 916 206 1011 c 1,11,-1
 200 1021 l 1,12,13
 279 1158 279 1158 292 1263 c 1,14,15
 477 1010 477 1010 839 836 c 1,16,-1
 845 826 l 1,0,1
1373 826 m 1,17,18
 1294 690 1294 690 1281 584 c 1,19,20
 1021 457 1021 457 734 193 c 1,21,-1
 728 203 l 1,22,23
 785 298 785 298 811 398 c 1,24,25
 987 497 987 497 1165 680 c 1,26,27
 1017 916 1017 916 734 1011 c 1,28,-1
 728 1021 l 1,29,30
 807 1158 807 1158 820 1263 c 1,31,32
 1005 1010 1005 1010 1367 836 c 1,33,-1
 1373 826 l 1,17,18
EndSplineSet
Validated: 1
EndChar

StartChar: onequarter
Encoding: 188 188 105
Width: 1443
GlyphClass: 2
Flags: W
HStem: 0 21G<349.5 410 1037 1091> 207 51<816.469 1064.66> 1490 20G<450 501 1008 1068.5>
VStem: 330 134<789.379 1329.88> 1037 205<69.9009 197.446> 1067 139<262.028 614.652>
LayerCount: 2
Fore
SplineSet
491 1510 m 1,0,-1
 501 1504 l 1,1,2
 464 1335 464 1335 464 1145.5 c 128,-1,3
 464 956 464 956 500 784 c 1,4,5
 393 763 393 763 305 704 c 1,6,-1
 295 710 l 1,7,8
 330 861 330 861 330 1087 c 0,9,10
 330 1219 330 1219 315 1335 c 1,11,12
 260 1272 260 1272 227 1188 c 1,13,14
 187 1208 187 1208 100 1227 c 1,15,16
 203 1306 203 1306 295 1433 c 1,17,18
 409 1454 409 1454 491 1510 c 1,0,-1
410 6 m 1,19,-1
 400 0 l 1,20,21
 299 58 299 58 210 82 c 1,22,23
 424 390 424 390 672 830 c 0,24,25
 858 1160 858 1160 1008 1504 c 1,26,-1
 1018 1510 l 1,27,28
 1119 1452 1119 1452 1208 1428 c 1,29,30
 947 1063 947 1063 782 772 c 0,31,32
 532 331 532 331 410 6 c 1,19,-1
1047 0 m 1,33,-1
 1037 6 l 1,34,35
 1057 87 1057 87 1067 201 c 1,36,37
 992 207 992 207 917 207 c 0,38,39
 793 207 793 207 692 195 c 1,40,-1
 659 250 l 1,41,42
 892 471 892 471 1037 729 c 1,43,44
 1151 750 1151 750 1233 806 c 1,45,-1
 1243 800 l 1,46,47
 1206 631 1206 631 1206 441.5 c 128,-1,48
 1206 252 1206 252 1242 80 c 1,49,50
 1135 59 1135 59 1047 0 c 1,33,-1
1045 620 m 1,51,52
 892 432 892 432 815 267 c 1,53,54
 841 258 841 258 948 258 c 0,55,56
 1005 258 1005 258 1070 267 c 1,57,58
 1070 368 1070 368 1066 443 c 0,59,60
 1062 537 1062 537 1045 620 c 1,51,52
EndSplineSet
Validated: 1
EndChar

StartChar: onehalf
Encoding: 189 189 106
Width: 1550
GlyphClass: 2
Flags: W
HStem: 0 21G<830 904.5 1298 1355> 24 97<942.169 1348.62> 1490 20G<450 501>
VStem: 330 134<789.379 1329.88> 837 105<127.921 201 513.185 657.88> 1233 133<433.05 582.402>
LayerCount: 2
Fore
SplineSet
838 0 m 1,0,-1
 830 6 l 1,1,2
 830 160 830 160 920 250 c 0,3,4
 971 301 971 301 1180 427 c 0,5,6
 1233 459 1233 459 1233 510 c 0,7,8
 1233 557 1233 557 1150 611 c 0,9,10
 1043 681 1043 681 956 698 c 1,11,12
 942 658 942 658 942 612 c 0,13,14
 942 570 942 570 994 557 c 1,15,-1
 875 464 l 1,16,17
 837 500 837 500 837 545 c 0,18,19
 837 626 837 626 928 705 c 0,20,21
 1020 785 1020 785 1074 806 c 1,22,-1
 1084 806 l 1,23,24
 1179 773 1179 773 1255 714 c 0,25,26
 1366 629 1366 629 1366 525 c 0,27,28
 1366 396 1366 396 1209 331 c 0,29,30
 940 220 940 220 940 135 c 1,31,32
 1009 121 1009 121 1132 121 c 0,33,34
 1299 121 1299 121 1395 178 c 1,35,-1
 1400 171 l 1,36,37
 1358 88 1358 88 1352 0 c 1,38,39
 1244 24 1244 24 1099 24 c 0,40,41
 971 24 971 24 838 0 c 1,0,-1
491 1510 m 1,42,-1
 501 1504 l 1,43,44
 464 1335 464 1335 464 1145.5 c 128,-1,45
 464 956 464 956 500 784 c 1,46,47
 393 763 393 763 305 704 c 1,48,-1
 295 710 l 1,49,50
 330 861 330 861 330 1087 c 0,51,52
 330 1219 330 1219 315 1335 c 1,53,54
 260 1272 260 1272 227 1188 c 1,55,56
 187 1208 187 1208 100 1227 c 1,57,58
 203 1306 203 1306 295 1433 c 1,59,60
 409 1454 409 1454 491 1510 c 1,42,-1
382 3 m 1,61,-1
 372 -3 l 1,62,63
 271 55 271 55 182 79 c 1,64,65
 396 387 396 387 644 827 c 0,66,67
 830 1157 830 1157 980 1501 c 1,68,-1
 990 1507 l 1,69,70
 1091 1449 1091 1449 1180 1425 c 1,71,72
 919 1060 919 1060 754 769 c 0,73,74
 504 328 504 328 382 3 c 1,61,-1
EndSplineSet
Validated: 1
EndChar

StartChar: threequarters
Encoding: 190 190 107
Width: 1620
GlyphClass: 2
Flags: W
HStem: 0 21G<523.5 584 1214 1268> 207 51<993.469 1241.66> 1490 20G<385.5 451.5 1182 1242.5>
VStem: 206 98<1249.75 1387.15> 536 112<1203.42 1334.29> 619 103<854.719 1010.46> 1214 205<69.9009 197.446> 1244 139<262.028 614.652>
LayerCount: 2
Fore
SplineSet
413 1510 m 1,0,1
 423 1510 l 1,2,3
 480 1489 480 1489 532 1456 c 0,4,5
 648 1385 648 1385 648 1297 c 0,6,7
 648 1212 648 1212 532 1155 c 1,8,9
 623 1134 623 1134 665 1101 c 0,10,11
 722 1057 722 1057 722 973 c 0,12,13
 722 875 722 875 620 802 c 0,14,15
 524 735 524 735 441 704 c 1,16,-1
 431 704 l 1,17,18
 348 738 348 738 283 781 c 0,19,20
 233 814 233 814 150 898 c 1,21,-1
 268 959 l 1,22,23
 303 915 303 915 370 875 c 0,24,25
 442 832 442 832 552 810 c 1,26,27
 619 851 619 851 619 936 c 0,28,29
 619 994 619 994 544 1028 c 1,30,-1
 333 1112 l 1,31,32
 536 1180 536 1180 536 1270 c 0,33,34
 536 1319 536 1319 462 1349 c 0,35,-1
 326 1406 l 1,36,37
 304 1369 304 1369 304 1337 c 0,38,39
 304 1294 304 1294 355 1270 c 1,40,-1
 244 1219 l 1,41,42
 206 1247 206 1247 206 1302 c 0,43,44
 206 1354 206 1354 294 1429 c 0,45,46
 358 1485 358 1485 413 1510 c 1,0,1
1224 0 m 1,47,-1
 1214 6 l 1,48,49
 1234 87 1234 87 1244 201 c 1,50,51
 1169 207 1169 207 1094 207 c 0,52,53
 970 207 970 207 869 195 c 1,54,-1
 836 250 l 1,55,56
 1069 471 1069 471 1214 729 c 1,57,58
 1328 750 1328 750 1410 806 c 1,59,-1
 1420 800 l 1,60,61
 1383 631 1383 631 1383 441.5 c 128,-1,62
 1383 252 1383 252 1419 80 c 1,63,64
 1312 59 1312 59 1224 0 c 1,47,-1
1222 620 m 1,65,66
 1069 432 1069 432 992 267 c 1,67,68
 1018 258 1018 258 1125 258 c 0,69,70
 1182 258 1182 258 1247 267 c 1,71,72
 1247 368 1247 368 1243 443 c 0,73,74
 1239 537 1239 537 1222 620 c 1,65,66
584 6 m 1,75,-1
 574 0 l 1,76,77
 473 58 473 58 384 82 c 1,78,79
 598 390 598 390 846 830 c 0,80,81
 1032 1160 1032 1160 1182 1504 c 1,82,-1
 1192 1510 l 1,83,84
 1293 1452 1293 1452 1382 1428 c 1,85,86
 1121 1063 1121 1063 956 772 c 0,87,88
 706 331 706 331 584 6 c 1,75,-1
EndSplineSet
Validated: 1
EndChar

StartChar: questiondown
Encoding: 191 191 108
Width: 1229
GlyphClass: 2
Flags: W
HStem: 0 21G<495.5 738.5> 1490 20G<723 795>
VStem: 150 170<411.404 625.633> 577 202<1233.57 1419.6> 625 157<960.683 1101.84> 930 149<319.694 477.391>
LayerCount: 2
Fore
SplineSet
785 1510 m 1,0,-1
 795 1504 l 1,1,2
 779 1416 779 1416 779 1364 c 0,3,4
 779 1324 779 1324 792 1247 c 1,5,6
 697 1231 697 1231 573 1159 c 1,7,-1
 563 1165 l 1,8,9
 577 1252 577 1252 577 1307 c 0,10,11
 577 1345 577 1345 567 1422 c 1,12,13
 661 1439 661 1439 785 1510 c 1,0,-1
644 0 m 1,14,-1
 634 0 l 1,15,16
 357 125 357 125 236 260 c 0,17,18
 150 358 150 358 150 482 c 0,19,20
 150 659 150 659 346 793 c 0,21,-1
 555 938 l 0,22,23
 625 984 625 984 625 1051 c 0,24,25
 625 1072 625 1072 608 1093 c 1,26,27
 699 1114 699 1114 761 1159 c 1,28,29
 782 1128 782 1128 782 1091 c 0,30,31
 782 981 782 981 663 881 c 0,32,33
 579 811 579 811 441 700 c 0,34,35
 320 603 320 603 320 528 c 0,36,37
 320 440 320 440 430 337 c 0,38,39
 608 173 608 173 849 145 c 1,40,41
 930 223 930 223 930 369 c 8,42,43
 930 480 930 480 797 536 c 1,44,-1
 993 670 l 1,45,46
 1079 603 1079 603 1079 458 c 24,47,48
 1079 359 1079 359 984 253 c 0,49,50
 833 86 833 86 644 0 c 1,14,-1
EndSplineSet
Validated: 1
EndChar

StartChar: multiply
Encoding: 215 215 109
Width: 1132
GlyphClass: 2
Flags: W
VStem: 490 152<670 822>
LayerCount: 2
Fore
SplineSet
150 1005 m 1,0,-1
 153 1016 l 1,1,2
 284 1051 284 1051 364 1105 c 1,3,4
 453 947 453 947 566 823 c 1,5,6
 678 947 678 947 767 1105 c 1,7,8
 847 1051 847 1051 979 1016 c 1,9,-1
 982 1005 l 1,10,11
 776 874 776 874 642 746 c 1,12,13
 776 618 776 618 982 487 c 1,14,-1
 979 476 l 1,15,16
 847 441 847 441 767 387 c 1,17,18
 678 545 678 545 566 669 c 1,19,20
 453 545 453 545 364 387 c 1,21,22
 284 441 284 441 153 476 c 1,23,-1
 150 487 l 1,24,25
 355 618 355 618 490 746 c 1,26,27
 355 874 355 874 150 1005 c 1,0,-1
EndSplineSet
Validated: 1
EndChar

StartChar: divide
Encoding: 247 247 110
Width: 1266
GlyphClass: 2
Flags: W
HStem: 635 222<226.343 411.101 854.899 1039.66> 693 106<291.699 974.301>
VStem: 517 228<281.979 348.366 351.259 405.803 408.727 475.811 1008.98 1075.37 1078.26 1132.8 1135.73 1202.81> 533 202<294.397 464.603 1021.4 1191.6>
LayerCount: 2
Fore
SplineSet
156 635 m 1,0,-1
 150 645 l 1,1,2
 218 763 218 763 237 857 c 1,3,4
 447 799 447 799 646.5 799 c 128,-1,5
 846 799 846 799 1110 857 c 1,6,-1
 1116 847 l 1,7,8
 1048 729 1048 729 1029 635 c 1,9,10
 819 693 819 693 619.5 693 c 128,-1,11
 420 693 420 693 156 635 c 1,0,-1
739 1282 m 1,12,-1
 749 1276 l 1,13,14
 735 1189 735 1189 735 1134 c 0,15,16
 735 1096 735 1096 745 1019 c 1,17,18
 651 1002 651 1002 527 931 c 1,19,-1
 517 937 l 1,20,21
 533 1025 533 1025 533 1077 c 0,22,23
 533 1117 533 1117 520 1194 c 1,24,25
 615 1210 615 1210 739 1282 c 1,12,-1
527 204 m 1,26,-1
 517 210 l 1,27,28
 533 298 533 298 533 350 c 0,29,30
 533 390 533 390 520 467 c 1,31,32
 615 483 615 483 739 555 c 1,33,-1
 749 549 l 1,34,35
 735 462 735 462 735 407 c 0,36,37
 735 369 735 369 745 292 c 1,38,39
 651 275 651 275 527 204 c 1,26,-1
EndSplineSet
Validated: 1
EndChar

StartChar: Delta
Encoding: 916 916 111
Width: 1296
GlyphClass: 2
Flags: W
HStem: 0 21G<5 141.5 1120 1291> 44 98<233.601 990.708> 1490 20G<688 766>
LayerCount: 2
Fore
SplineSet
15 0 m 1,0,-1
 5 6 l 1,1,2
 341 691 341 691 514 1418 c 1,3,4
 620 1431 620 1431 756 1510 c 1,5,-1
 766 1504 l 1,6,7
 960 691 960 691 1291 6 c 1,8,-1
 1281 0 l 1,9,10
 959 44 959 44 600 44 c 0,11,12
 268 44 268 44 15 0 c 1,0,-1
621 1247 m 1,13,14
 388 719 388 719 228 153 c 1,15,16
 358 142 358 142 614 142 c 0,17,18
 827 142 827 142 996 165 c 1,19,20
 840 775 840 775 621 1247 c 1,13,14
EndSplineSet
Validated: 1
EndChar

StartChar: Pi
Encoding: 928 928 112
Width: 1322
GlyphClass: 2
Flags: W
HStem: 0 21G<158 234 917 993> 1382 80<400.831 921.35> 1490 20G<150 283.5 1038.5 1172>
VStem: 202 166<281.615 1235.68> 917 252<84.1953 592.422> 961 166<282.424 1233.89>
LayerCount: 2
Fore
SplineSet
168 0 m 1,0,1
 158 6 l 1,2,3
 202 373 202 373 202 730 c 0,4,5
 202 1112 202 1112 150 1504 c 1,6,-1
 160 1510 l 1,7,8
 407 1462 407 1462 655 1462 c 0,9,10
 915 1462 915 1462 1162 1510 c 1,11,-1
 1172 1504 l 1,12,13
 1127 1142 1127 1142 1127 782 c 0,14,15
 1127 428 1127 428 1169 92 c 1,16,17
 1059 77 1059 77 927 0 c 1,18,-1
 917 6 l 1,19,20
 961 362 961 362 961 730 c 0,21,22
 961 1037 961 1037 926 1367 c 1,23,24
 777 1382 777 1382 655 1382 c 0,25,26
 551 1381 551 1381 396 1370 c 1,27,28
 368 975 368 975 368 782 c 0,29,30
 368 426 368 426 410 92 c 1,31,32
 300 77 300 77 168 0 c 1,0,1
EndSplineSet
Validated: 1
EndChar

StartChar: Sigma
Encoding: 931 931 113
Width: 1169
GlyphClass: 2
Flags: W
HStem: 0 21G<50 163.5 899.5 984.5> 45 91<403.011 878.259> 1258 205<644.957 896.105> 1490 20G<257 381.5 904 981>
LayerCount: 2
Fore
SplineSet
60 0 m 1,0,1
 50 6 l 1,2,3
 343 363 343 363 576 741 c 1,4,5
 418 1078 418 1078 83 1418 c 1,6,7
 189 1431 189 1431 325 1510 c 1,8,9
 438 1463 438 1463 642 1463 c 0,10,11
 833 1463 833 1463 975 1510 c 1,12,-1
 981 1500 l 1,13,14
 904 1368 904 1368 889 1258 c 1,15,16
 725 1266 725 1266 581 1327 c 0,17,18
 400 1404 400 1404 338 1472 c 1,19,20
 474 1067 474 1067 824 747 c 1,21,22
 557 441 557 441 401 145 c 1,23,24
 465 136 465 136 573 136 c 0,25,26
 832 136 832 136 1063 252 c 1,27,-1
 1069 242 l 1,28,29
 992 110 992 110 977 0 c 1,30,31
 822 45 822 45 578 45 c 0,32,33
 267 45 267 45 60 0 c 1,0,1
EndSplineSet
Validated: 1
EndChar

StartChar: Omega
Encoding: 937 937 114
Width: 1416
VWidth: 0
GlyphClass: 2
Flags: W
HStem: 0 21G<55 115.5 508.5 557 859 907.5 1215 1276.5> 20 86<288.606 455.516 941.823 1161.49> 1490 20G<581.5 824.5>
VStem: 151 168<581.869 1015.22> 456 101<106 183.043> 1097 168<496.805 932.541>
LayerCount: 2
Fore
SplineSet
61 0 m 1,0,-1
 55 10 l 1,1,2
 132 142 132 142 147 252 c 1,3,4
 295 106 295 106 456 106 c 1,5,6
 456 128 456 128 456 149 c 1,7,8
 382 203 382 203 329 260 c 0,9,10
 151 451 151 451 151 750 c 0,11,12
 151 1044 151 1044 339 1257 c 0,13,14
 484 1421 484 1421 679 1510 c 1,15,-1
 689 1510 l 1,16,17
 960 1389 960 1389 1087 1250 c 0,18,19
 1265 1053 1265 1053 1265 760 c 0,20,21
 1265 466 1265 466 1077 253 c 0,22,23
 1008 175 1008 175 941 123 c 1,24,-1
 939 106 l 1,25,26
 1150 106 1150 106 1355 252 c 1,27,-1
 1361 242 l 1,28,29
 1284 110 1284 110 1269 0 c 1,30,31
 1161 20 1161 20 1058.5 20 c 128,-1,32
 956 20 956 20 859 0 c 1,33,-1
 859 113 l 1,34,35
 1097 320 1097 320 1097 699 c 0,36,37
 1097 971 1097 971 883 1174 c 0,38,39
 709 1339 709 1339 474 1365 c 1,40,41
 319 1159 319 1159 319 811 c 0,42,43
 319 522 319 522 557 315 c 1,44,-1
 557 0 l 1,45,46
 460 20 460 20 315 20 c 128,-1,47
 170 20 170 20 61 0 c 1,0,-1
EndSplineSet
Validated: 1
EndChar

StartChar: mu
Encoding: 956 956 115
Width: 1213
GlyphClass: 2
Flags: W
HStem: -380 21G<150 226> 0 21G<564.5 705.5 811 887> 1110 20G<329 405 987 1063>
VStem: 150 252<-295.805 160.783 599.743 1045.8> 194 173<-160.732 168 397.601 861.875> 811 252<645.848 1045.8> 859 166<151.672 1005.44>
LayerCount: 2
Fore
SplineSet
662 0 m 1,0,-1
 652 0 l 1,1,2
 477 62 477 62 365 168 c 1,3,4
 374 -63 374 -63 402 -288 c 1,5,6
 292 -303 292 -303 160 -380 c 1,7,-1
 150 -374 l 1,8,9
 194 -16 194 -16 194 350 c 0,10,11
 194 683 194 683 153 1038 c 1,12,13
 263 1053 263 1053 395 1130 c 1,14,-1
 405 1124 l 1,15,16
 367 808 367 808 367 593 c 0,17,18
 367 405 367 405 492 296 c 0,19,20
 623 182 623 182 832 145 c 1,21,22
 859 345 859 345 859 503 c 0,23,24
 859 778 859 778 811 1038 c 1,25,26
 921 1053 921 1053 1053 1130 c 1,27,-1
 1063 1124 l 1,28,29
 1025 791 1025 791 1025 565 c 0,30,31
 1025 331 1025 331 1063 92 c 1,32,33
 953 77 953 77 821 0 c 1,34,-1
 811 6 l 1,35,36
 819 52 819 52 825 97 c 1,37,38
 749 36 749 36 662 0 c 1,0,-1
EndSplineSet
Validated: 1
EndChar

StartChar: pi
Encoding: 960 960 116
Width: 1198
GlyphClass: 2
Flags: W
HStem: 0 21G<165 240 796 869.5> 995 99<397.818 801.411> 1110 20G<150 278 908 1048>
VStem: 203 166<125.027 971.101> 796 252<83.5859 490.438> 834 166<124.559 973.316>
LayerCount: 2
Fore
SplineSet
175 0 m 1,0,-1
 165 6 l 1,1,2
 203 331 203 331 203 565 c 0,3,4
 203 860 203 860 150 1124 c 1,5,-1
 160 1130 l 1,6,7
 396 1094 396 1094 597 1094 c 0,8,9
 778 1094 778 1094 1038 1130 c 1,10,-1
 1048 1124 l 1,11,12
 1000 839 1000 839 1000 627 c 0,13,14
 1000 352 1000 352 1048 92 c 1,15,16
 933 75 933 75 806 0 c 1,17,-1
 796 6 l 1,18,19
 834 334 834 334 834 565 c 0,20,21
 834 766 834 766 805 980 c 1,22,23
 690 995 690 995 596 995 c 0,24,25
 485 995 485 995 395 977 c 1,26,27
 369 788 369 788 369 627 c 0,28,29
 369 356 369 356 417 92 c 1,30,31
 305 76 305 76 175 0 c 1,0,-1
EndSplineSet
Validated: 1
EndChar

StartChar: uni2010
Encoding: 8208 8208 117
Width: 1201
GlyphClass: 2
Flags: W
HStem: 635 222<261.343 428.155 772.845 939.657> 693 106<323.281 877.719>
LayerCount: 2
Fore
SplineSet
191 635 m 1,0,-1
 185 645 l 1,1,2
 253 763 253 763 272 857 c 1,3,4
 482 799 482 799 614 799 c 128,-1,5
 746 799 746 799 1010 857 c 1,6,-1
 1016 847 l 1,7,8
 948 729 948 729 929 635 c 1,9,10
 719 693 719 693 587 693 c 128,-1,11
 455 693 455 693 191 635 c 1,0,-1
EndSplineSet
Validated: 1
EndChar

StartChar: uni2011
Encoding: 8209 8209 118
Width: 1201
GlyphClass: 2
Flags: W
HStem: 635 222<261.343 428.155 772.845 939.657> 693 106<323.281 877.719>
LayerCount: 2
Fore
SplineSet
191 635 m 5,0,-1
 185 645 l 5,1,2
 253 763 253 763 272 857 c 5,3,4
 482 799 482 799 614 799 c 132,-1,5
 746 799 746 799 1010 857 c 5,6,-1
 1016 847 l 5,7,8
 948 729 948 729 929 635 c 5,9,10
 719 693 719 693 587 693 c 132,-1,11
 455 693 455 693 191 635 c 5,0,-1
EndSplineSet
Validated: 1
EndChar

StartChar: figuredash
Encoding: 8210 8210 119
Width: 1266
GlyphClass: 2
Flags: W
HStem: 635 222<226.343 411.101 854.899 1039.66> 693 106<291.699 974.301>
LayerCount: 2
Fore
SplineSet
156 635 m 1,0,-1
 150 645 l 1,1,2
 218 763 218 763 237 857 c 1,3,4
 447 799 447 799 646.5 799 c 128,-1,5
 846 799 846 799 1110 857 c 1,6,-1
 1116 847 l 1,7,8
 1048 729 1048 729 1029 635 c 1,9,10
 819 693 819 693 619.5 693 c 128,-1,11
 420 693 420 693 156 635 c 1,0,-1
EndSplineSet
Validated: 1
EndChar

StartChar: endash
Encoding: 8211 8211 120
Width: 1266
GlyphClass: 2
Flags: W
HStem: 635 222<226.343 411.101 854.899 1039.66> 693 106<291.699 974.301>
LayerCount: 2
Fore
SplineSet
156 635 m 1,0,-1
 150 645 l 1,1,2
 218 763 218 763 237 857 c 1,3,4
 447 799 447 799 646.5 799 c 128,-1,5
 846 799 846 799 1110 857 c 1,6,-1
 1116 847 l 1,7,8
 1048 729 1048 729 1029 635 c 1,9,10
 819 693 819 693 619.5 693 c 128,-1,11
 420 693 420 693 156 635 c 1,0,-1
EndSplineSet
Validated: 1
EndChar

StartChar: emdash
Encoding: 8212 8212 121
Width: 1181
GlyphClass: 2
Flags: W
HStem: 635 222<101.343 308.036 872.964 1079.66> 693 106<165.625 1015.38>
LayerCount: 2
Fore
SplineSet
31 635 m 1,0,-1
 25 645 l 1,1,2
 93 763 93 763 112 857 c 1,3,4
 322 799 322 799 604 799 c 128,-1,5
 886 799 886 799 1150 857 c 1,6,-1
 1156 847 l 1,7,8
 1088 729 1088 729 1069 635 c 1,9,10
 859 693 859 693 577 693 c 128,-1,11
 295 693 295 693 31 635 c 1,0,-1
EndSplineSet
Validated: 1
EndChar

StartChar: afii00208
Encoding: 8213 8213 122
Width: 1181
GlyphClass: 2
Flags: W
HStem: 635 222<101.343 308.036 872.964 1079.66> 693 106<165.625 1015.38>
LayerCount: 2
Fore
SplineSet
31 635 m 1,0,-1
 25 645 l 1,1,2
 93 763 93 763 112 857 c 1,3,4
 322 799 322 799 604 799 c 128,-1,5
 886 799 886 799 1150 857 c 1,6,-1
 1156 847 l 1,7,8
 1088 729 1088 729 1069 635 c 1,9,10
 859 693 859 693 577 693 c 128,-1,11
 295 693 295 693 31 635 c 1,0,-1
EndSplineSet
Validated: 1
EndChar

StartChar: underscoredbl
Encoding: 8215 8215 123
Width: 1221
GlyphClass: 2
Flags: W
HStem: -380 146<197.394 594.677 626.292 1023.18> -353 92<219.528 1000.53> -172 146<197.394 594.677 626.292 1023.18> -145 92<219.528 1000.53>
LayerCount: 2
Fore
SplineSet
150 -162 m 1,0,1
 193 -90 193 -90 215 -26 c 1,2,3
 359 -53 359 -53 618 -53 c 0,4,5
 884 -53 884 -53 1065 -26 c 1,6,-1
 1071 -36 l 1,7,8
 1028 -108 1028 -108 1005 -172 c 1,9,10
 863 -145 863 -145 603 -145 c 0,11,12
 336 -145 336 -145 156 -172 c 1,13,-1
 150 -162 l 1,0,1
150 -370 m 1,14,15
 193 -298 193 -298 215 -234 c 1,16,17
 359 -261 359 -261 618 -261 c 0,18,19
 884 -261 884 -261 1065 -234 c 1,20,-1
 1071 -244 l 1,21,22
 1028 -316 1028 -316 1005 -380 c 1,23,24
 863 -353 863 -353 603 -353 c 0,25,26
 336 -353 336 -353 156 -380 c 1,27,-1
 150 -370 l 1,14,15
EndSplineSet
Validated: 1
EndChar

StartChar: quoteleft
Encoding: 8216 8216 124
Width: 631
GlyphClass: 2
Flags: W
HStem: 1534 16<496.849 507>
VStem: 160 182<1172.24 1381.7>
LayerCount: 2
Fore
SplineSet
507 1550 m 1,0,1
 507 1543 507 1543 507 1534 c 1,2,3
 342 1441 342 1441 342 1286 c 0,4,5
 342 1174 342 1174 464 1119 c 1,6,7
 369 1103 369 1103 245 1031 c 1,8,-1
 235 1037 l 1,9,10
 160 1136 160 1136 160 1238 c 0,11,12
 160 1464 160 1464 507 1550 c 1,0,1
EndSplineSet
Validated: 1
EndChar

StartChar: quoteright
Encoding: 8217 8217 125
Width: 631
GlyphClass: 2
Flags: W
HStem: 1031 16<124 134.151>
VStem: 289 182<1199.3 1408.76>
LayerCount: 2
Fore
SplineSet
386 1550 m 1,0,-1
 396 1544 l 1,1,2
 471 1445 471 1445 471 1343 c 0,3,4
 471 1117 471 1117 124 1031 c 1,5,6
 124 1038 124 1038 124 1047 c 1,7,8
 289 1140 289 1140 289 1295 c 0,9,10
 289 1407 289 1407 167 1462 c 1,11,12
 262 1478 262 1478 386 1550 c 1,0,-1
EndSplineSet
Validated: 1
EndChar

StartChar: quotesinglbase
Encoding: 8218 8218 126
Width: 631
GlyphClass: 2
Flags: W
HStem: -222 16<124 134.151>
VStem: 289 182<-53.7 155.76>
LayerCount: 2
Fore
SplineSet
386 297 m 1,0,-1
 396 291 l 1,1,2
 471 192 471 192 471 90 c 0,3,4
 471 -136 471 -136 124 -222 c 1,5,6
 124 -215 124 -215 124 -206 c 1,7,8
 289 -113 289 -113 289 42 c 0,9,10
 289 154 289 154 167 209 c 1,11,12
 262 225 262 225 386 297 c 1,0,-1
EndSplineSet
Validated: 1
EndChar

StartChar: quotereversed
Encoding: 8219 8219 127
Width: 631
GlyphClass: 2
Flags: W
HStem: 1031 16<496.849 507>
VStem: 160 182<1199.3 1408.76>
LayerCount: 2
Fore
SplineSet
245 1550 m 1,0,1
 369 1478 369 1478 464 1462 c 1,2,3
 342 1407 342 1407 342 1295 c 0,4,5
 342 1140 342 1140 507 1047 c 1,6,7
 507 1038 507 1038 507 1031 c 1,8,9
 160 1117 160 1117 160 1343 c 0,10,11
 160 1445 160 1445 235 1544 c 1,12,-1
 245 1550 l 1,0,1
EndSplineSet
Validated: 1
EndChar

StartChar: quotedblleft
Encoding: 8220 8220 128
Width: 937
GlyphClass: 2
Flags: W
HStem: 1534 16<496.849 507 802.849 813>
VStem: 160 182<1172.24 1381.7> 466 182<1172.24 1381.7>
LayerCount: 2
Fore
SplineSet
507 1550 m 1,0,1
 507 1543 507 1543 507 1534 c 1,2,3
 342 1441 342 1441 342 1286 c 0,4,5
 342 1174 342 1174 464 1119 c 1,6,7
 369 1103 369 1103 245 1031 c 1,8,-1
 235 1037 l 1,9,10
 160 1136 160 1136 160 1238 c 0,11,12
 160 1464 160 1464 507 1550 c 1,0,1
813 1550 m 1,13,14
 813 1543 813 1543 813 1534 c 1,15,16
 648 1441 648 1441 648 1286 c 0,17,18
 648 1174 648 1174 770 1119 c 1,19,20
 675 1103 675 1103 551 1031 c 1,21,-1
 541 1037 l 1,22,23
 466 1136 466 1136 466 1238 c 0,24,25
 466 1464 466 1464 813 1550 c 1,13,14
EndSplineSet
Validated: 1
EndChar

StartChar: quotedblright
Encoding: 8221 8221 129
Width: 937
GlyphClass: 2
Flags: W
HStem: 1031 16<124 134.151 430 440.151>
VStem: 289 182<1199.3 1408.76> 595 182<1199.3 1408.76>
LayerCount: 2
Fore
SplineSet
692 1550 m 1,0,-1
 702 1544 l 1,1,2
 777 1445 777 1445 777 1343 c 0,3,4
 777 1117 777 1117 430 1031 c 1,5,6
 430 1038 430 1038 430 1047 c 1,7,8
 595 1140 595 1140 595 1295 c 0,9,10
 595 1407 595 1407 473 1462 c 1,11,12
 568 1478 568 1478 692 1550 c 1,0,-1
386 1550 m 1,13,-1
 396 1544 l 1,14,15
 471 1445 471 1445 471 1343 c 0,16,17
 471 1117 471 1117 124 1031 c 1,18,19
 124 1038 124 1038 124 1047 c 1,20,21
 289 1140 289 1140 289 1295 c 0,22,23
 289 1407 289 1407 167 1462 c 1,24,25
 262 1478 262 1478 386 1550 c 1,13,-1
EndSplineSet
Validated: 1
EndChar

StartChar: quotedblbase
Encoding: 8222 8222 130
Width: 937
GlyphClass: 2
Flags: W
HStem: -222 16<124 134.151 430 440.151>
VStem: 289 182<-53.7 155.76> 595 182<-53.7 155.76>
LayerCount: 2
Fore
SplineSet
692 297 m 1,0,-1
 702 291 l 1,1,2
 777 192 777 192 777 90 c 0,3,4
 777 -136 777 -136 430 -222 c 1,5,6
 430 -215 430 -215 430 -206 c 1,7,8
 595 -113 595 -113 595 42 c 0,9,10
 595 154 595 154 473 209 c 1,11,12
 568 225 568 225 692 297 c 1,0,-1
386 297 m 1,13,-1
 396 291 l 1,14,15
 471 192 471 192 471 90 c 0,16,17
 471 -136 471 -136 124 -222 c 1,18,19
 124 -215 124 -215 124 -206 c 1,20,21
 289 -113 289 -113 289 42 c 0,22,23
 289 154 289 154 167 209 c 1,24,25
 262 225 262 225 386 297 c 1,13,-1
EndSplineSet
Validated: 1
EndChar

StartChar: uni201F
Encoding: 8223 8223 131
Width: 937
GlyphClass: 2
Flags: W
HStem: 1031 16<496.849 507 802.849 813>
VStem: 160 182<1199.3 1408.76> 466 182<1199.3 1408.76>
LayerCount: 2
Fore
SplineSet
245 1550 m 1,0,1
 369 1478 369 1478 464 1462 c 1,2,3
 342 1407 342 1407 342 1295 c 0,4,5
 342 1140 342 1140 507 1047 c 1,6,7
 507 1038 507 1038 507 1031 c 1,8,9
 160 1117 160 1117 160 1343 c 0,10,11
 160 1445 160 1445 235 1544 c 1,12,-1
 245 1550 l 1,0,1
551 1550 m 1,13,14
 675 1478 675 1478 770 1462 c 1,15,16
 648 1407 648 1407 648 1295 c 0,17,18
 648 1140 648 1140 813 1047 c 1,19,20
 813 1038 813 1038 813 1031 c 1,21,22
 466 1117 466 1117 466 1343 c 0,23,24
 466 1445 466 1445 541 1544 c 1,25,-1
 551 1550 l 1,13,14
EndSplineSet
Validated: 1
EndChar

StartChar: dagger
Encoding: 8224 8224 132
Width: 1266
GlyphClass: 2
Flags: W
HStem: 0 21G<505 581> 940 222<226.343 413.822 853.148 1039.66> 1490 20G<681.5 760>
VStem: 505 252<84.1953 593.031 1112.78 1425.2> 549 166<282.828 994>
LayerCount: 2
Fore
SplineSet
515 0 m 1,0,-1
 505 6 l 1,1,2
 549 364 549 364 549 730 c 0,3,4
 549 861 549 861 543 996 c 1,5,6
 371 987 371 987 156 940 c 1,7,-1
 150 950 l 1,8,9
 218 1068 218 1068 237 1162 c 1,10,11
 389 1120 389 1120 536 1108 c 1,12,13
 526 1261 526 1261 508 1418 c 1,14,15
 613 1431 613 1431 750 1510 c 1,16,-1
 760 1504 l 1,17,18
 735 1308 735 1308 724 1106 c 1,19,20
 896 1115 896 1115 1110 1162 c 1,21,-1
 1116 1152 l 1,22,23
 1048 1034 1048 1034 1029 940 c 1,24,25
 871 984 871 984 719 994 c 1,26,27
 715 889 715 889 715 782 c 0,28,29
 715 429 715 429 757 92 c 1,30,31
 647 77 647 77 515 0 c 1,0,-1
EndSplineSet
Validated: 1
EndChar

StartChar: daggerdbl
Encoding: 8225 8225 133
Width: 1266
GlyphClass: 2
Flags: W
HStem: 0 21G<505 581> 348 222<226.343 411.669 850.897 1039.66> 940 222<226.343 413.822 853.148 1039.66> 1490 20G<681.5 760>
VStem: 505 252<84.1953 397.095 1112.78 1425.2> 549 166<516 994>
LayerCount: 2
Fore
SplineSet
515 0 m 1,0,-1
 505 6 l 1,1,2
 529 204 529 204 540 404 c 1,3,4
 369 395 369 395 156 348 c 1,5,-1
 150 358 l 1,6,7
 218 476 218 476 237 570 c 1,8,9
 394 527 394 527 545 516 c 1,10,11
 549 622 549 622 549 730 c 0,12,13
 549 861 549 861 543 996 c 1,14,15
 371 987 371 987 156 940 c 1,16,-1
 150 950 l 1,17,18
 218 1068 218 1068 237 1162 c 1,19,20
 389 1120 389 1120 536 1108 c 1,21,22
 526 1261 526 1261 508 1418 c 1,23,24
 613 1431 613 1431 750 1510 c 1,25,-1
 760 1504 l 1,26,27
 735 1308 735 1308 724 1106 c 1,28,29
 896 1115 896 1115 1110 1162 c 1,30,-1
 1116 1152 l 1,31,32
 1048 1034 1048 1034 1029 940 c 1,33,34
 871 984 871 984 719 994 c 1,35,36
 715 889 715 889 715 782 c 0,37,38
 715 647 715 647 721 514 c 1,39,40
 894 523 894 523 1110 570 c 1,41,-1
 1116 560 l 1,42,43
 1048 442 1048 442 1029 348 c 1,44,45
 875 390 875 390 727 402 c 1,46,47
 738 245 738 245 757 92 c 1,48,49
 647 77 647 77 515 0 c 1,0,-1
EndSplineSet
Validated: 1
EndChar

StartChar: bullet
Encoding: 8226 8226 134
Width: 875
GlyphClass: 2
Flags: W
HStem: 418 663<347.344 527.656>
VStem: 150 575<599.642 899.358>
LayerCount: 2
Fore
SplineSet
420 1081 m 1,0,-1
 430 1081 l 1,1,2
 526 1047 526 1047 608 982 c 0,3,4
 725 889 725 889 725 749 c 0,5,6
 725 627 725 627 625 530 c 0,7,8
 559 467 559 467 455 418 c 1,9,-1
 445 418 l 1,10,11
 349 452 349 452 267 517 c 0,12,13
 150 610 150 610 150 750 c 0,14,15
 150 872 150 872 250 969 c 0,16,17
 316 1032 316 1032 420 1081 c 1,0,-1
EndSplineSet
Validated: 1
EndChar

StartChar: uni2023
Encoding: 8227 8227 135
Width: 878
GlyphClass: 2
Flags: W
VStem: 150 628
LayerCount: 2
Fore
SplineSet
159 366 m 1,0,-1
 150 372 l 1,1,2
 189 565 189 565 189 750 c 128,-1,3
 189 935 189 935 150 1128 c 1,4,-1
 159 1134 l 1,5,6
 331 987 331 987 467 907 c 24,7,8
 634 809 634 809 778 766 c 1,9,-1
 778 756 l 9,10,11
 656 711 656 711 482 601 c 0,12,13
 366 528 366 528 159 366 c 1,0,-1
EndSplineSet
Validated: 1
EndChar

StartChar: onedotenleader
Encoding: 8228 8228 136
Width: 532
GlyphClass: 2
Flags: W
HStem: 0 351
VStem: 166 202<90.3967 276.43>
LayerCount: 2
Fore
SplineSet
160 0 m 1,0,-1
 150 6 l 1,1,2
 166 94 166 94 166 146 c 0,3,4
 166 186 166 186 153 263 c 1,5,6
 248 279 248 279 372 351 c 1,7,-1
 382 345 l 1,8,9
 368 258 368 258 368 203 c 0,10,11
 368 165 368 165 378 88 c 1,12,13
 284 71 284 71 160 0 c 1,0,-1
EndSplineSet
Validated: 1
EndChar

StartChar: twodotenleader
Encoding: 8229 8229 137
Width: 880
GlyphClass: 2
Flags: W
HStem: 0 351
VStem: 166 202<90.3967 276.43> 514 202<90.3967 276.43>
LayerCount: 2
Fore
SplineSet
508 0 m 1,0,-1
 498 6 l 1,1,2
 514 94 514 94 514 146 c 0,3,4
 514 186 514 186 501 263 c 1,5,6
 596 279 596 279 720 351 c 1,7,-1
 730 345 l 1,8,9
 716 258 716 258 716 203 c 0,10,11
 716 165 716 165 726 88 c 1,12,13
 632 71 632 71 508 0 c 1,0,-1
160 0 m 1,14,-1
 150 6 l 1,15,16
 166 94 166 94 166 146 c 0,17,18
 166 186 166 186 153 263 c 1,19,20
 248 279 248 279 372 351 c 1,21,-1
 382 345 l 1,22,23
 368 258 368 258 368 203 c 0,24,25
 368 165 368 165 378 88 c 1,26,27
 284 71 284 71 160 0 c 1,14,-1
EndSplineSet
Validated: 1
EndChar

StartChar: ellipsis
Encoding: 8230 8230 138
Width: 1228
GlyphClass: 2
Flags: W
HStem: 0 351
VStem: 166 202<90.3967 276.43> 514 202<90.3967 276.43> 862 202<90.3967 276.43>
CounterMasks: 1 70
LayerCount: 2
Fore
SplineSet
856 0 m 1,0,-1
 846 6 l 1,1,2
 862 94 862 94 862 146 c 0,3,4
 862 186 862 186 849 263 c 1,5,6
 944 279 944 279 1068 351 c 1,7,-1
 1078 345 l 1,8,9
 1064 258 1064 258 1064 203 c 0,10,11
 1064 165 1064 165 1074 88 c 1,12,13
 980 71 980 71 856 0 c 1,0,-1
508 0 m 1,14,-1
 498 6 l 1,15,16
 514 94 514 94 514 146 c 0,17,18
 514 186 514 186 501 263 c 1,19,20
 596 279 596 279 720 351 c 1,21,-1
 730 345 l 1,22,23
 716 258 716 258 716 203 c 0,24,25
 716 165 716 165 726 88 c 1,26,27
 632 71 632 71 508 0 c 1,14,-1
160 0 m 1,28,-1
 150 6 l 1,29,30
 166 94 166 94 166 146 c 0,31,32
 166 186 166 186 153 263 c 1,33,34
 248 279 248 279 372 351 c 1,35,-1
 382 345 l 1,36,37
 368 258 368 258 368 203 c 0,38,39
 368 165 368 165 378 88 c 1,40,41
 284 71 284 71 160 0 c 1,28,-1
EndSplineSet
Validated: 1
EndChar

StartChar: uni2027
Encoding: 8231 8231 139
Width: 532
GlyphClass: 2
Flags: W
HStem: 572 351
VStem: 150 228<649.979 716.366 719.259 773.803 776.727 843.811> 166 202<662.397 832.603>
LayerCount: 2
Fore
SplineSet
372 923 m 5,0,-1
 382 917 l 5,1,2
 368 830 368 830 368 775 c 4,3,4
 368 737 368 737 378 660 c 5,5,6
 284 643 284 643 160 572 c 5,7,-1
 150 578 l 5,8,9
 166 666 166 666 166 718 c 4,10,11
 166 758 166 758 153 835 c 5,12,13
 248 851 248 851 372 923 c 5,0,-1
EndSplineSet
Validated: 1
EndChar

StartChar: perthousand
Encoding: 8240 8240 140
Width: 2169
GlyphClass: 2
Flags: W
HStem: 0 21G<435.5 496 1070 1180 1691 1801> 1490 20G<368 478 1094 1154.5>
VStem: 150 128<1104.06 1329.26> 607 118<1027.73 1257.98> 823 128<257.058 482.264> 1280 118<180.727 410.983> 1444 128<257.058 482.264> 1901 118<180.727 410.983>
LayerCount: 2
Fore
SplineSet
1749 0 m 1,0,-1
 1739 0 l 1,1,2
 1643 34 1643 34 1561 99 c 0,3,4
 1444 192 1444 192 1444 332 c 0,5,6
 1444 454 1444 454 1544 551 c 0,7,8
 1610 614 1610 614 1714 663 c 1,9,-1
 1724 663 l 1,10,11
 1820 629 1820 629 1902 564 c 0,12,13
 2019 471 2019 471 2019 331 c 0,14,15
 2019 209 2019 209 1919 112 c 0,16,17
 1853 49 1853 49 1749 0 c 1,0,-1
1622 524 m 1,18,19
 1572 472 1572 472 1572 377 c 0,20,21
 1572 256 1572 256 1704 195 c 0,22,23
 1777 162 1777 162 1843 141 c 1,24,25
 1901 220 1901 220 1901 288 c 0,26,27
 1901 412 1901 412 1775 470 c 0,28,29
 1719 496 1719 496 1622 524 c 1,18,19
1128 0 m 1,30,-1
 1118 0 l 1,31,32
 1022 34 1022 34 940 99 c 0,33,34
 823 192 823 192 823 332 c 0,35,36
 823 454 823 454 923 551 c 0,37,38
 989 614 989 614 1093 663 c 1,39,-1
 1103 663 l 1,40,41
 1199 629 1199 629 1281 564 c 0,42,43
 1398 471 1398 471 1398 331 c 0,44,45
 1398 209 1398 209 1298 112 c 0,46,47
 1232 49 1232 49 1128 0 c 1,30,-1
1001 524 m 1,48,49
 951 472 951 472 951 377 c 0,50,51
 951 256 951 256 1083 195 c 0,52,53
 1156 162 1156 162 1222 141 c 1,54,55
 1280 220 1280 220 1280 288 c 0,56,57
 1280 412 1280 412 1154 470 c 0,58,59
 1098 496 1098 496 1001 524 c 1,48,49
420 1510 m 1,60,-1
 430 1510 l 1,61,62
 526 1476 526 1476 608 1411 c 0,63,64
 725 1318 725 1318 725 1178 c 0,65,66
 725 1056 725 1056 625 959 c 0,67,68
 559 896 559 896 455 847 c 1,69,-1
 445 847 l 1,70,71
 349 881 349 881 267 946 c 0,72,73
 150 1039 150 1039 150 1179 c 0,74,75
 150 1301 150 1301 250 1398 c 0,76,77
 316 1461 316 1461 420 1510 c 1,60,-1
496 6 m 1,78,-1
 486 0 l 1,79,80
 385 58 385 58 296 82 c 1,81,82
 510 390 510 390 758 830 c 0,83,84
 944 1160 944 1160 1094 1504 c 1,85,-1
 1104 1510 l 1,86,87
 1205 1452 1205 1452 1294 1428 c 1,88,89
 1033 1063 1033 1063 868 772 c 0,90,91
 618 331 618 331 496 6 c 1,78,-1
328 1371 m 1,92,93
 278 1319 278 1319 278 1224 c 0,94,95
 278 1103 278 1103 410 1042 c 0,96,97
 483 1009 483 1009 549 988 c 1,98,99
 607 1067 607 1067 607 1135 c 0,100,101
 607 1259 607 1259 481 1317 c 0,102,103
 425 1343 425 1343 328 1371 c 1,92,93
EndSplineSet
Validated: 1
EndChar

StartChar: minute
Encoding: 8242 8242 141
Width: 838
VWidth: 2058
GlyphClass: 2
Flags: W
HStem: 1018 532
VStem: 150 533
LayerCount: 2
Fore
SplineSet
446 1550 m 1,0,1
 583 1471 583 1471 683 1458 c 1,2,3
 688 1448 l 1,4,5
 468 1295 468 1295 316 1018 c 1,6,-1
 306 1012 l 1,7,8
 222 1060 222 1060 150 1084 c 1,9,10
 150 1094 l 1,11,12
 363 1280 363 1280 436 1544 c 1,13,-1
 446 1550 l 1,0,1
EndSplineSet
Validated: 1
EndChar

StartChar: second
Encoding: 8243 8243 142
Width: 1169
VWidth: 2058
GlyphClass: 2
Flags: W
HStem: 1018 532
LayerCount: 2
Fore
SplineSet
777 1550 m 1,0,1
 914 1471 914 1471 1014 1458 c 1,2,3
 1019 1448 l 1,4,5
 799 1295 799 1295 647 1018 c 1,6,-1
 637 1012 l 1,7,8
 553 1060 553 1060 481 1084 c 1,9,10
 481 1094 l 1,11,12
 694 1280 694 1280 767 1544 c 1,13,-1
 777 1550 l 1,0,1
446 1550 m 1,14,15
 583 1471 583 1471 683 1458 c 1,16,-1
 688 1448 l 1,17,18
 468 1295 468 1295 316 1018 c 1,19,-1
 306 1012 l 1,20,21
 222 1060 222 1060 150 1084 c 1,22,-1
 150 1094 l 1,23,24
 363 1280 363 1280 436 1544 c 1,25,-1
 446 1550 l 1,14,15
EndSplineSet
Validated: 1
EndChar

StartChar: uni2034
Encoding: 8244 8244 143
Width: 1500
VWidth: 2058
GlyphClass: 2
Flags: W
HStem: 1018 532
LayerCount: 2
Fore
SplineSet
1108 1550 m 1,0,1
 1245 1471 1245 1471 1345 1458 c 1,2,3
 1350 1448 l 1,4,5
 1130 1295 1130 1295 978 1018 c 1,6,-1
 968 1012 l 1,7,8
 884 1060 884 1060 812 1084 c 1,9,10
 812 1094 l 1,11,12
 1025 1280 1025 1280 1098 1544 c 1,13,-1
 1108 1550 l 1,0,1
777 1550 m 1,14,15
 914 1471 914 1471 1014 1458 c 1,16,-1
 1019 1448 l 1,17,18
 799 1295 799 1295 647 1018 c 1,19,-1
 637 1012 l 1,20,21
 553 1060 553 1060 481 1084 c 1,22,-1
 481 1094 l 1,23,24
 694 1280 694 1280 767 1544 c 1,25,-1
 777 1550 l 1,14,15
446 1550 m 1,26,27
 583 1471 583 1471 683 1458 c 1,28,-1
 688 1448 l 1,29,30
 468 1295 468 1295 316 1018 c 1,31,-1
 306 1012 l 1,32,33
 222 1060 222 1060 150 1084 c 1,34,-1
 150 1094 l 1,35,36
 363 1280 363 1280 436 1544 c 1,37,-1
 446 1550 l 1,26,27
EndSplineSet
Validated: 1
EndChar

StartChar: uni2035
Encoding: 8245 8245 144
Width: 838
VWidth: 2058
GlyphClass: 2
Flags: W
HStem: 1012 538
VStem: 150 538
LayerCount: 2
Fore
SplineSet
392 1550 m 1,0,1
 402 1544 l 1,2,3
 475 1280 475 1280 688 1094 c 1,4,-1
 688 1084 l 1,5,6
 616 1060 616 1060 532 1012 c 1,7,8
 522 1018 l 1,9,10
 370 1295 370 1295 150 1448 c 1,11,-1
 155 1458 l 1,12,13
 255 1471 255 1471 392 1550 c 1,0,1
EndSplineSet
Validated: 1
EndChar

StartChar: uni2036
Encoding: 8246 8246 145
Width: 1169
VWidth: 2058
GlyphClass: 2
Flags: W
HStem: 1012 538
LayerCount: 2
Fore
SplineSet
392 1550 m 1,0,1
 402 1544 l 1,2,3
 475 1280 475 1280 688 1094 c 1,4,-1
 688 1084 l 1,5,6
 616 1060 616 1060 532 1012 c 1,7,8
 522 1018 l 1,9,10
 370 1295 370 1295 150 1448 c 1,11,-1
 155 1458 l 1,12,13
 255 1471 255 1471 392 1550 c 1,0,1
723 1550 m 1,14,15
 733 1544 l 1,16,17
 806 1280 806 1280 1019 1094 c 1,18,-1
 1019 1084 l 1,19,20
 947 1060 947 1060 863 1012 c 1,21,-1
 853 1018 l 1,22,23
 701 1295 701 1295 481 1448 c 1,24,-1
 486 1458 l 1,25,26
 586 1471 586 1471 723 1550 c 1,14,15
EndSplineSet
Validated: 1
EndChar

StartChar: uni2037
Encoding: 8247 8247 146
Width: 1500
VWidth: 2058
GlyphClass: 2
Flags: W
HStem: 1012 538
LayerCount: 2
Fore
SplineSet
392 1550 m 1,0,1
 402 1544 l 1,2,3
 475 1280 475 1280 688 1094 c 1,4,-1
 688 1084 l 1,5,6
 616 1060 616 1060 532 1012 c 1,7,8
 522 1018 l 1,9,10
 370 1295 370 1295 150 1448 c 1,11,-1
 155 1458 l 1,12,13
 255 1471 255 1471 392 1550 c 1,0,1
723 1550 m 1,14,15
 733 1544 l 1,16,17
 806 1280 806 1280 1019 1094 c 1,18,-1
 1019 1084 l 1,19,20
 947 1060 947 1060 863 1012 c 1,21,-1
 853 1018 l 1,22,23
 701 1295 701 1295 481 1448 c 1,24,-1
 486 1458 l 1,25,26
 586 1471 586 1471 723 1550 c 1,14,15
1054 1550 m 1,27,-1
 1064 1544 l 1,28,29
 1137 1280 1137 1280 1350 1094 c 1,30,-1
 1350 1084 l 1,31,32
 1278 1060 1278 1060 1194 1012 c 1,33,-1
 1184 1018 l 1,34,35
 1032 1295 1032 1295 812 1448 c 1,36,-1
 817 1458 l 1,37,38
 917 1471 917 1471 1054 1550 c 1,27,-1
EndSplineSet
Validated: 1
EndChar

StartChar: guilsinglleft
Encoding: 8249 8249 147
Width: 995
GlyphClass: 2
Flags: W
VStem: 150 639
LayerCount: 2
Fore
SplineSet
150 630 m 5,0,1
 229 766 229 766 242 872 c 5,2,3
 502 999 502 999 789 1263 c 5,4,-1
 795 1253 l 5,5,6
 738 1158 738 1158 712 1058 c 5,7,8
 536 959 536 959 358 776 c 5,9,10
 509 566 509 566 789 445 c 5,11,-1
 795 435 l 5,12,13
 716 298 716 298 703 193 c 5,14,15
 508 430 508 430 156 620 c 5,16,-1
 150 630 l 5,0,1
EndSplineSet
Validated: 1
EndChar

StartChar: guilsinglright
Encoding: 8250 8250 148
Width: 995
GlyphClass: 2
Flags: W
VStem: 206 639
LayerCount: 2
Fore
SplineSet
845 826 m 5,0,1
 766 690 766 690 753 584 c 5,2,3
 493 457 493 457 206 193 c 5,4,-1
 200 203 l 5,5,6
 257 298 257 298 283 398 c 5,7,8
 459 497 459 497 637 680 c 5,9,10
 486 890 486 890 206 1011 c 5,11,-1
 200 1021 l 5,12,13
 279 1158 279 1158 292 1263 c 5,14,15
 487 1026 487 1026 839 836 c 5,16,-1
 845 826 l 5,0,1
EndSplineSet
Validated: 1
EndChar

StartChar: uni2043
Encoding: 8259 8259 149
Width: 1238
GlyphClass: 2
Flags: W
VStem: 508 222<971.174 1153.6>
LayerCount: 2
Fore
SplineSet
720 1229 m 1,0,-1
 730 1223 l 1,1,2
 683 1013 683 1013 674 845 c 1,3,4
 795 928 795 928 906 1040 c 1,5,6
 969 968 969 968 1088 900 c 1,7,-1
 1087 889 l 1,8,9
 880 823 880 823 729 746 c 1,10,11
 880 669 880 669 1087 604 c 1,12,-1
 1088 592 l 1,13,14
 969 524 969 524 906 452 c 1,15,16
 796 563 796 563 676 647 c 1,17,18
 687 501 687 501 730 350 c 1,19,20
 635 331 635 331 518 263 c 1,21,-1
 508 269 l 1,22,23
 553 479 553 479 563 648 c 1,24,25
 441 564 441 564 331 452 c 1,26,27
 267 524 267 524 150 592 c 1,28,-1
 150 604 l 1,29,30
 356 669 356 669 508 746 c 1,31,32
 356 823 356 823 150 889 c 1,33,-1
 150 900 l 1,34,35
 267 968 267 968 331 1040 c 1,36,37
 440 929 440 929 561 846 c 1,38,39
 549 991 549 991 508 1142 c 1,40,41
 601 1161 601 1161 720 1229 c 1,0,-1
EndSplineSet
Validated: 1
EndChar

StartChar: fraction
Encoding: 8260 8260 150
Width: 1076
GlyphClass: 2
Flags: W
LayerCount: 2
Fore
SplineSet
210 -144 m 1,0,1
 200 -150 l 1,2,3
 99 -92 99 -92 10 -68 c 1,4,5
 287 369 287 369 518 835 c 0,6,7
 745 1293 745 1293 866 1654 c 1,8,-1
 876 1660 l 1,9,10
 977 1602 977 1602 1066 1578 c 1,11,12
 836 1195 836 1195 628 777 c 0,13,14
 384 288 384 288 210 -144 c 1,0,1
EndSplineSet
Validated: 1
EndChar

StartChar: Euro
Encoding: 8364 8364 151
Width: 1487
VWidth: 0
GlyphClass: 2
Flags: W
HStem: 0 21G<712.5 950> 573 146<167.394 268.819 596.292 993.176> 600 92<473 970.534> 781 146<167.394 268.565 596.292 993.176> 808 92<441 970.534> 1490 20G<700.5 934>
VStem: 271 167<707.562 797>
LayerCount: 2
Fore
SplineSet
856 0 m 1,0,-1
 846 0 l 1,1,2
 579 116 579 116 448 260 c 0,3,4
 321 401 321 401 285 590 c 1,5,6
 198 584 198 584 126 573 c 1,7,-1
 120 583 l 1,8,9
 163 655 163 655 185 719 c 1,10,11
 224 712 224 712 271 706 c 1,12,13
 270 728 270 728 270 750 c 0,14,15
 270 774 270 774 271 797 c 1,16,17
 193 791 193 791 126 781 c 1,18,-1
 120 791 l 1,19,20
 163 863 163 863 185 927 c 1,21,22
 230 919 230 919 286 913 c 1,23,24
 326 1107 326 1107 458 1257 c 0,25,26
 603 1420 603 1420 798 1510 c 1,27,-1
 808 1510 l 1,28,29
 1060 1397 1060 1397 1206 1250 c 0,30,31
 1216 1240 1216 1240 1229 1223 c 1,32,-1
 1048 1127 l 1,33,34
 1038 1139 1038 1139 1002 1174 c 0,35,36
 836 1335 836 1335 593 1365 c 1,37,38
 459 1189 459 1189 441 903 c 1,39,40
 509 900 509 900 588 900 c 0,41,42
 854 900 854 900 1035 927 c 1,43,-1
 1041 917 l 1,44,45
 998 845 998 845 975 781 c 1,46,47
 833 808 833 808 573 808 c 0,48,49
 502 808 502 808 438 806 c 1,50,51
 438 748 438 748 448 694 c 1,52,53
 513 692 513 692 588 692 c 0,54,55
 854 692 854 692 1035 719 c 1,56,-1
 1041 709 l 1,57,58
 998 637 998 637 975 573 c 1,59,60
 833 600 833 600 573 600 c 0,61,62
 522 600 522 600 473 599 c 1,63,64
 525 454 525 454 652 336 c 0,65,66
 828 172 828 172 1061 145 c 1,67,68
 1132 226 1132 226 1132 401 c 0,69,70
 1132 497 1132 497 1116 552 c 1,71,-1
 1337 484 l 1,72,73
 1289 356 1289 356 1196 253 c 0,74,75
 1044 86 1044 86 856 0 c 1,0,-1
EndSplineSet
Validated: 1
EndChar

StartChar: afii61248
Encoding: 8453 8453 152
Width: 1726
GlyphClass: 2
Flags: W
HStem: 0 21G<483.5 544 1222.5 1348> 1490 20G<378 481.5 1142 1202.5>
VStem: 150 115<1038.04 1306.51> 971 115<276.038 543.513> 1461 115<203.081 471.962>
LayerCount: 2
Fore
SplineSet
1292 0 m 1,0,-1
 1282 0 l 1,1,2
 1163 39 1163 39 1085 110 c 0,3,4
 971 213 971 213 971 370 c 0,5,6
 971 515 971 515 1073 622 c 0,7,8
 1143 697 1143 697 1255 748 c 1,9,10
 1260 748 1260 748 1265 748 c 1,11,12
 1384 709 1384 709 1462 638 c 0,13,14
 1576 535 1576 535 1576 378 c 0,15,16
 1576 233 1576 233 1474 126 c 0,17,18
 1404 51 1404 51 1292 0 c 1,0,-1
1420 131 m 1,19,20
 1461 223 1461 223 1461 330 c 0,21,22
 1461 499 1461 499 1275 580 c 0,23,24
 1206 610 1206 610 1127 617 c 1,25,26
 1086 519 1086 519 1086 418 c 0,27,28
 1086 249 1086 249 1272 168 c 0,29,30
 1341 138 1341 138 1420 131 c 1,19,20
434 1510 m 1,31,32
 439 1510 439 1510 444 1510 c 1,33,34
 519 1492 519 1492 577 1456 c 0,35,36
 652 1409 652 1409 696 1334 c 1,37,-1
 566 1250 l 1,38,39
 533 1297 533 1297 479 1335 c 0,40,41
 422 1375 422 1375 309 1385 c 1,42,43
 265 1287 265 1287 265 1180 c 0,44,45
 265 1011 265 1011 451 930 c 0,46,47
 520 900 520 900 602 893 c 1,48,49
 609 922 609 922 609 939 c 0,50,51
 609 975 609 975 593 1019 c 1,52,-1
 723 970 l 1,53,54
 704 931 704 931 687 911 c 0,55,56
 605 818 605 818 471 762 c 1,57,-1
 461 762 l 1,58,59
 342 801 342 801 264 872 c 0,60,61
 150 975 150 975 150 1132 c 0,62,63
 150 1277 150 1277 252 1384 c 0,64,65
 322 1459 322 1459 434 1510 c 1,31,32
544 6 m 1,66,-1
 534 0 l 1,67,68
 433 58 433 58 344 82 c 1,69,70
 558 390 558 390 806 830 c 0,71,72
 992 1160 992 1160 1142 1504 c 1,73,-1
 1152 1510 l 1,74,75
 1253 1452 1253 1452 1342 1428 c 1,76,77
 1081 1063 1081 1063 916 772 c 0,78,79
 666 331 666 331 544 6 c 1,66,-1
EndSplineSet
Validated: 1
EndChar

StartChar: afii61289
Encoding: 8467 8467 153
Width: 958
GlyphClass: 2
Flags: W
HStem: 0 136<451.354 569.961> 1490 20G<628 696>
VStem: 232 158<500 792.828> 655 153<1042.58 1357.17>
LayerCount: 2
Fore
SplineSet
390 500 m 1,0,1
 460 605 460 605 554 860 c 0,2,3
 655 1134 655 1134 655 1359 c 1,4,5
 583 1260 583 1260 494 1004 c 0,6,7
 390 706 390 706 390 500 c 1,0,1
502 0 m 0,8,9
 374 0 374 0 303 101 c 1,10,-1
 251 21 l 1,11,-1
 50 21 l 1,12,13
 172 168 172 168 242 292 c 1,14,15
 232 362 232 362 232 443 c 0,16,17
 232 590 232 590 261 732 c 0,18,19
 363 1228 363 1228 518 1424 c 0,20,21
 586 1510 586 1510 670 1510 c 0,22,23
 722 1510 722 1510 760 1478 c 0,24,25
 808 1439 808 1439 808 1318 c 0,26,27
 808 1226 808 1226 778 1072 c 0,28,29
 708 722 708 722 422 271 c 1,30,31
 445 136 445 136 511 136 c 0,32,33
 530 136 530 136 553 160 c 0,34,35
 584 192 584 192 616 248 c 1,36,-1
 792 248 l 1,37,38
 715 120 715 120 650.5 60 c 128,-1,39
 586 0 586 0 502 0 c 0,8,9
EndSplineSet
Validated: 1
EndChar

StartChar: trademark
Encoding: 8482 8482 154
Width: 1728
GlyphClass: 2
Flags: W
HStem: 1490 20G<145 204.5 661 731 901.5 947 1421.5 1468>
VStem: 351 123<799.115 1410.57> 724 120<763.325 924.449>
LayerCount: 2
Fore
SplineSet
326 729 m 1,0,-1
 316 735 l 1,1,2
 351 898 351 898 351 1122 c 0,3,4
 351 1278 351 1278 337 1415 c 1,5,6
 230 1406 230 1406 110 1337 c 1,7,-1
 100 1343 l 1,8,9
 135 1421 135 1421 155 1510 c 1,10,11
 254 1484 254 1484 424 1484 c 0,12,13
 601 1484 601 1484 721 1510 c 1,14,-1
 731 1504 l 1,15,16
 696 1426 696 1426 676 1337 c 1,17,18
 588 1392 588 1392 490 1415 c 1,19,20
 474 1273 474 1273 474 1144 c 0,21,22
 474 989 474 989 498 793 c 1,23,24
 419 783 419 783 326 729 c 1,0,-1
734 729 m 1,25,-1
 724 735 l 1,26,27
 799 1021 799 1021 831 1360 c 1,28,29
 811 1401 811 1401 774 1440 c 1,30,31
 866 1462 866 1462 937 1510 c 1,32,-1
 947 1504 l 1,33,34
 1033 1177 1033 1177 1134 934 c 1,35,36
 1231 1153 1231 1153 1313 1412 c 1,37,38
 1307 1428 1307 1428 1299 1441 c 1,39,40
 1385 1461 1385 1461 1458 1510 c 1,41,-1
 1468 1504 l 1,42,43
 1491 1118 1491 1118 1578 794 c 1,44,45
 1511 789 1511 789 1412 729 c 1,46,-1
 1402 735 l 1,47,48
 1402 1047 1402 1047 1355 1279 c 1,49,50
 1264 1063 1264 1063 1204 786 c 1,51,52
 1122 775 1122 775 1052 729 c 1,53,-1
 1042 735 l 1,54,55
 980 1003 980 1003 892 1241 c 1,56,57
 844 1018 844 1018 844 774 c 1,58,59
 786 766 786 766 734 729 c 1,25,-1
EndSplineSet
Validated: 1
EndChar

StartChar: uni2126
Encoding: 8486 8486 155
Width: 1416
VWidth: 0
GlyphClass: 2
Flags: W
HStem: 0 21G<55 115.5 508.5 557 859 907.5 1215 1276.5> 20 86<288.606 455.516 941.823 1161.49> 1490 20G<581.5 824.5>
VStem: 151 168<581.869 1015.22> 456 101<106 183.043> 1097 168<496.805 932.541>
LayerCount: 2
Fore
SplineSet
61 0 m 1,0,-1
 55 10 l 1,1,2
 132 142 132 142 147 252 c 1,3,4
 295 106 295 106 456 106 c 1,5,6
 456 128 456 128 456 149 c 1,7,8
 382 203 382 203 329 260 c 0,9,10
 151 451 151 451 151 750 c 0,11,12
 151 1044 151 1044 339 1257 c 0,13,14
 484 1421 484 1421 679 1510 c 1,15,-1
 689 1510 l 1,16,17
 960 1389 960 1389 1087 1250 c 0,18,19
 1265 1053 1265 1053 1265 760 c 0,20,21
 1265 466 1265 466 1077 253 c 0,22,23
 1008 175 1008 175 941 123 c 1,24,-1
 939 106 l 1,25,26
 1150 106 1150 106 1355 252 c 1,27,-1
 1361 242 l 1,28,29
 1284 110 1284 110 1269 0 c 1,30,31
 1161 20 1161 20 1058.5 20 c 128,-1,32
 956 20 956 20 859 0 c 1,33,-1
 859 113 l 1,34,35
 1097 320 1097 320 1097 699 c 0,36,37
 1097 971 1097 971 883 1174 c 0,38,39
 709 1339 709 1339 474 1365 c 1,40,41
 319 1159 319 1159 319 811 c 0,42,43
 319 522 319 522 557 315 c 1,44,-1
 557 0 l 1,45,46
 460 20 460 20 315 20 c 128,-1,47
 170 20 170 20 61 0 c 1,0,-1
EndSplineSet
Validated: 1
EndChar

StartChar: estimated
Encoding: 8494 8494 156
Width: 1358
GlyphClass: 2
Flags: W
HStem: 0 73<501.557 855.461> 565 74<381 977> 1057 73<502.165 850.247>
VStem: 150 231<322.452 565 639 808.838> 977 231<639 804.607>
LayerCount: 2
Fore
SplineSet
679 0 m 0,0,1
 442 0 442 0 296 160 c 128,-1,2
 150 320 150 320 150 565 c 0,3,4
 150 812 150 812 297 971 c 128,-1,5
 444 1130 444 1130 679 1130 c 0,6,7
 893 1130 893 1130 1045 988 c 128,-1,8
 1197 846 1197 846 1208 565 c 1,9,-1
 381 565 l 1,10,-1
 381 194 l 1,11,12
 501 73 501 73 679 73 c 0,13,14
 933 73 933 73 1074 319 c 1,15,-1
 1146 276 l 1,16,17
 1026 103 1026 103 914 51.5 c 128,-1,18
 802 0 802 0 679 0 c 0,0,1
381 639 m 1,19,-1
 977 639 l 1,20,-1
 977 936 l 1,21,22
 849 1057 849 1057 677 1057 c 0,23,24
 502 1057 502 1057 381 935 c 1,25,-1
 381 639 l 1,19,-1
EndSplineSet
Validated: 1
EndChar

StartChar: partialdiff
Encoding: 8706 8706 157
Width: 1147
GlyphClass: 2
Flags: W
HStem: 0 145<369.644 584.454> 805 160<555.015 833> 1382 128<558.552 744.997>
VStem: 100 212<203.866 523.767> 833 184<574.283 805 965 1263.1>
LayerCount: 2
Fore
SplineSet
335 1222 m 1,0,1
 406 1381 406 1381 503 1445 c 0,2,3
 602 1510 602 1510 695 1510 c 0,4,5
 845 1510 845 1510 925 1385 c 24,6,7
 1017 1242 1017 1242 1017 951 c 0,8,9
 1017 663 1017 663 930.5 438.5 c 128,-1,10
 844 214 844 214 697 107 c 128,-1,11
 550 0 550 0 408 0 c 0,12,13
 271 0 271 0 185.5 91 c 128,-1,14
 100 182 100 182 100 347 c 0,15,16
 100 556 100 556 253 734 c 0,17,18
 453 965 453 965 836 965 c 1,19,20
 836 1101 836 1101 810 1202 c 0,21,22
 764 1382 764 1382 644 1382 c 24,23,24
 590 1382 590 1382 540 1316 c 0,25,26
 528 1300 528 1300 470 1162 c 1,27,-1
 335 1222 l 1,0,1
833 805 m 1,28,29
 764 805 764 805 696 805 c 0,30,31
 624 804 624 804 544 755 c 0,32,33
 460 703 460 703 386 581 c 128,-1,34
 312 459 312 459 312 333 c 0,35,36
 312 253 312 253 363 196 c 0,37,38
 409 145 409 145 468 145 c 0,39,40
 532 145 532 145 586 189 c 0,41,42
 689 273 689 273 740 392 c 0,43,44
 833 615 833 615 833 805 c 1,28,29
EndSplineSet
Validated: 1
EndChar

StartChar: uni2206
Encoding: 8710 8710 158
Width: 1296
GlyphClass: 2
Flags: W
HStem: 0 21G<5 141.5 1120 1291> 44 98<233.601 990.708> 1490 20G<688 766>
LayerCount: 2
Fore
SplineSet
15 0 m 1,0,-1
 5 6 l 1,1,2
 341 691 341 691 514 1418 c 1,3,4
 620 1431 620 1431 756 1510 c 1,5,-1
 766 1504 l 1,6,7
 960 691 960 691 1291 6 c 1,8,-1
 1281 0 l 1,9,10
 959 44 959 44 600 44 c 0,11,12
 268 44 268 44 15 0 c 1,0,-1
621 1247 m 1,13,14
 388 719 388 719 228 153 c 1,15,16
 358 142 358 142 614 142 c 0,17,18
 827 142 827 142 996 165 c 1,19,20
 840 775 840 775 621 1247 c 1,13,14
EndSplineSet
Validated: 1
EndChar

StartChar: product
Encoding: 8719 8719 159
Width: 1322
GlyphClass: 2
Flags: W
HStem: -380 21G<158 234 917 993> 1382 80<400.831 921.012> 1490 20G<150 283.5 1038.5 1172>
VStem: 202 166<95.7402 1036.7> 917 252<-295.805 210.977> 961 166<86.3008 1046.29>
LayerCount: 2
Fore
SplineSet
168 -380 m 1,0,1
 158 -374 l 1,2,3
 202 -7 202 -7 202 540 c 0,4,5
 202 1112 202 1112 150 1504 c 1,6,-1
 160 1510 l 1,7,8
 407 1462 407 1462 655 1462 c 0,9,10
 915 1462 915 1462 1162 1510 c 1,11,-1
 1172 1504 l 1,12,13
 1127 1142 1127 1142 1127 592 c 0,14,15
 1127 48 1127 48 1169 -288 c 1,16,17
 1059 -303 1059 -303 927 -380 c 1,18,-1
 917 -374 l 1,19,20
 961 -18 961 -18 961 540 c 0,21,22
 961 1037 961 1037 926 1367 c 1,23,24
 766 1382 766 1382 655 1382 c 0,25,26
 551 1382 551 1382 396 1370 c 1,27,28
 368 975 368 975 368 592 c 0,29,30
 368 236 368 236 410 -288 c 1,31,32
 300 -303 300 -303 168 -380 c 1,0,1
EndSplineSet
Validated: 1
EndChar

StartChar: summation
Encoding: 8721 8721 160
Width: 1169
GlyphClass: 2
Flags: W
HStem: -380 21G<50 163.5 899.5 984.5> -335 91<403.011 878.259> 1258 205<644.957 896.105> 1490 20G<257 381.5 904 981>
LayerCount: 2
Fore
SplineSet
60 -380 m 1,0,1
 50 -374 l 1,2,3
 400 120 400 120 576 551 c 1,4,5
 432 942 432 942 83 1418 c 1,6,7
 189 1431 189 1431 325 1510 c 1,8,9
 438 1463 438 1463 642 1463 c 0,10,11
 833 1463 833 1463 975 1510 c 1,12,-1
 981 1500 l 1,13,14
 904 1368 904 1368 889 1258 c 1,15,16
 725 1266 725 1266 581 1327 c 0,17,18
 400 1404 400 1404 338 1472 c 1,19,20
 464 1064 464 1064 824 557 c 1,21,22
 584 208 584 208 401 -235 c 1,23,24
 465 -244 465 -244 573 -244 c 0,25,26
 832 -244 832 -244 1063 -128 c 1,27,-1
 1069 -138 l 1,28,29
 992 -270 992 -270 977 -380 c 1,30,31
 822 -335 822 -335 578 -335 c 0,32,33
 267 -335 267 -335 60 -380 c 1,0,1
EndSplineSet
Validated: 1
EndChar

StartChar: minus
Encoding: 8722 8722 161
Width: 1266
GlyphClass: 2
Flags: W
HStem: 635 222<226.343 411.101 854.899 1039.66> 693 106<291.699 974.301>
LayerCount: 2
Fore
SplineSet
156 635 m 1,0,-1
 150 645 l 1,1,2
 218 763 218 763 237 857 c 1,3,4
 447 799 447 799 646.5 799 c 128,-1,5
 846 799 846 799 1110 857 c 1,6,-1
 1116 847 l 1,7,8
 1048 729 1048 729 1029 635 c 1,9,10
 819 693 819 693 619.5 693 c 128,-1,11
 420 693 420 693 156 635 c 1,0,-1
EndSplineSet
Validated: 1
EndChar

StartChar: uni2215
Encoding: 8725 8725 162
Width: 1076
GlyphClass: 2
Flags: W
LayerCount: 2
Fore
SplineSet
210 -144 m 1,0,1
 200 -150 l 1,2,3
 99 -92 99 -92 10 -68 c 1,4,5
 287 369 287 369 518 835 c 0,6,7
 745 1293 745 1293 866 1654 c 1,8,-1
 876 1660 l 1,9,10
 977 1602 977 1602 1066 1578 c 1,11,12
 836 1195 836 1195 628 777 c 0,13,14
 384 288 384 288 210 -144 c 1,0,1
EndSplineSet
Validated: 1
EndChar

StartChar: asteriskmath
Encoding: 8727 8727 163
Width: 1238
GlyphClass: 2
Flags: W
VStem: 508 222<971.174 1153.6>
LayerCount: 2
Fore
SplineSet
720 1229 m 1,0,-1
 730 1223 l 1,1,2
 683 1013 683 1013 674 845 c 1,3,4
 795 928 795 928 906 1040 c 1,5,6
 969 968 969 968 1088 900 c 1,7,-1
 1087 889 l 1,8,9
 880 823 880 823 729 746 c 1,10,11
 880 669 880 669 1087 604 c 1,12,-1
 1088 592 l 1,13,14
 969 524 969 524 906 452 c 1,15,16
 796 563 796 563 676 647 c 1,17,18
 687 501 687 501 730 350 c 1,19,20
 635 331 635 331 518 263 c 1,21,-1
 508 269 l 1,22,23
 553 479 553 479 563 648 c 1,24,25
 441 564 441 564 331 452 c 1,26,27
 267 524 267 524 150 592 c 1,28,-1
 150 604 l 1,29,30
 356 669 356 669 508 746 c 1,31,32
 356 823 356 823 150 889 c 1,33,-1
 150 900 l 1,34,35
 267 968 267 968 331 1040 c 1,36,37
 440 929 440 929 561 846 c 1,38,39
 549 991 549 991 508 1142 c 1,40,41
 601 1161 601 1161 720 1229 c 1,0,-1
EndSplineSet
Validated: 1
EndChar

StartChar: uni2218
Encoding: 8728 8728 164
Width: 875
GlyphClass: 2
Flags: W
HStem: 418 663
VStem: 150 128<675.058 900.264> 607 118<598.727 828.983>
LayerCount: 2
Fore
SplineSet
420 1081 m 1,0,-1
 430 1081 l 1,1,2
 526 1047 526 1047 608 982 c 0,3,4
 725 889 725 889 725 749 c 0,5,6
 725 627 725 627 625 530 c 0,7,8
 559 467 559 467 455 418 c 1,9,-1
 445 418 l 1,10,11
 349 452 349 452 267 517 c 0,12,13
 150 610 150 610 150 750 c 0,14,15
 150 872 150 872 250 969 c 0,16,17
 316 1032 316 1032 420 1081 c 1,0,-1
328 942 m 1,18,19
 278 890 278 890 278 795 c 0,20,21
 278 674 278 674 410 613 c 0,22,23
 483 580 483 580 549 559 c 1,24,25
 607 638 607 638 607 706 c 0,26,27
 607 830 607 830 481 888 c 0,28,29
 425 914 425 914 328 942 c 1,18,19
EndSplineSet
Validated: 1
EndChar

StartChar: uni2219
Encoding: 8729 8729 165
Width: 532
GlyphClass: 2
Flags: W
HStem: 572 351
VStem: 150 228<649.979 716.366 719.259 773.803 776.727 843.811> 166 202<662.397 832.603>
LayerCount: 2
Fore
SplineSet
372 923 m 5,0,-1
 382 917 l 5,1,2
 368 830 368 830 368 775 c 4,3,4
 368 737 368 737 378 660 c 5,5,6
 284 643 284 643 160 572 c 5,7,-1
 150 578 l 5,8,9
 166 666 166 666 166 718 c 4,10,11
 166 758 166 758 153 835 c 5,12,13
 248 851 248 851 372 923 c 5,0,-1
EndSplineSet
Validated: 1
EndChar

StartChar: radical
Encoding: 8730 8730 166
Width: 1232
GlyphClass: 2
Flags: W
HStem: 0 21G<385 457> 1490 20G<1074.5 1132>
LayerCount: 2
Fore
SplineSet
395 0 m 1,0,-1
 385 6 l 1,1,2
 308 448 308 448 100 758 c 1,3,4
 187 774 187 774 312 845 c 1,5,-1
 322 839 l 1,6,7
 391 526 391 526 524 278 c 1,8,9
 745 766 745 766 927 1427 c 1,10,11
 1027 1453 1027 1453 1122 1510 c 1,12,-1
 1132 1504 l 1,13,14
 796 819 796 819 623 92 c 1,15,16
 519 73 519 73 395 0 c 1,0,-1
EndSplineSet
Validated: 1
EndChar

StartChar: uni221B
Encoding: 8731 8731 167
Width: 1232
GlyphClass: 2
Flags: W
HStem: 0 21G<385 457> 1490 20G<400.5 454 1074.5 1132>
VStem: 256 80<1297.55 1415.48> 524 90<1253.48 1372> 591 83<974.243 1108.85>
LayerCount: 2
Fore
SplineSet
424 1510 m 1,0,1
 432 1510 l 1,2,3
 476 1494 476 1494 520 1466 c 0,4,5
 614 1407 614 1407 614 1337 c 0,6,7
 614 1269 614 1269 520 1222 c 1,8,9
 595 1205 595 1205 628 1179 c 0,10,11
 674 1143 674 1143 674 1075 c 0,12,13
 674 997 674 997 592 937 c 0,14,15
 519 884 519 884 447 857 c 1,16,-1
 438 857 l 1,17,18
 380 881 380 881 319 920 c 0,19,20
 278 946 278 946 211 1014 c 1,21,-1
 306 1064 l 1,22,23
 334 1029 334 1029 389 996 c 0,24,25
 447 961 447 961 536 943 c 1,26,27
 591 976 591 976 591 1045 c 0,28,29
 591 1092 591 1092 530 1120 c 1,30,-1
 359 1188 l 1,31,32
 524 1243 524 1243 524 1316 c 0,33,34
 524 1355 524 1355 464 1380 c 0,35,-1
 353 1426 l 1,36,37
 336 1397 336 1397 336 1370 c 0,38,39
 336 1335 336 1335 377 1316 c 1,40,-1
 287 1274 l 1,41,42
 256 1297 256 1297 256 1342 c 0,43,44
 256 1385 256 1385 328 1446 c 0,45,46
 377 1488 377 1488 424 1510 c 1,0,1
395 0 m 1,47,-1
 385 6 l 1,48,49
 308 448 308 448 100 758 c 1,50,51
 187 774 187 774 312 845 c 1,52,-1
 322 839 l 1,53,54
 391 526 391 526 524 278 c 1,55,56
 745 766 745 766 927 1427 c 1,57,58
 1027 1453 1027 1453 1122 1510 c 1,59,-1
 1132 1504 l 1,60,61
 796 819 796 819 623 92 c 1,62,63
 519 73 519 73 395 0 c 1,47,-1
EndSplineSet
Validated: 1
EndChar

StartChar: infinity
Encoding: 8734 8734 168
Width: 1332
GlyphClass: 2
Flags: W
HStem: 418 663
VStem: 150 128<675.058 900.264> 607 128<675.724 829.113> 1064 118<598.727 828.983>
LayerCount: 2
Fore
SplineSet
328 942 m 1,0,1
 278 890 278 890 278 795 c 0,2,3
 278 674 278 674 410 613 c 0,4,5
 483 580 483 580 549 559 c 1,6,7
 607 638 607 638 607 706 c 0,8,9
 607 830 607 830 481 888 c 0,10,11
 424 914 424 914 328 942 c 1,0,1
420 1081 m 1,12,-1
 430 1081 l 1,13,14
 526 1047 526 1047 608 982 c 0,15,16
 642 955 642 955 667 923 c 1,17,18
 684 947 684 947 707 969 c 0,19,20
 773 1032 773 1032 877 1081 c 1,21,-1
 887 1081 l 1,22,23
 983 1047 983 1047 1065 982 c 0,24,25
 1182 889 1182 889 1182 749 c 0,26,27
 1182 627 1182 627 1082 530 c 0,28,29
 1016 467 1016 467 912 418 c 1,30,-1
 902 418 l 1,31,32
 806 452 806 452 724 517 c 0,33,34
 690 544 690 544 665 576 c 1,35,36
 648 552 648 552 625 530 c 0,37,38
 559 467 559 467 455 418 c 1,39,-1
 445 418 l 1,40,41
 349 452 349 452 267 517 c 0,42,43
 150 610 150 610 150 750 c 0,44,45
 150 872 150 872 250 969 c 0,46,47
 316 1032 316 1032 420 1081 c 1,12,-1
785 942 m 1,48,49
 735 890 735 890 735 795 c 0,50,51
 735 674 735 674 867 613 c 0,52,53
 940 580 940 580 1006 559 c 1,54,55
 1064 638 1064 638 1064 706 c 0,56,57
 1064 830 1064 830 938 888 c 0,58,59
 881 914 881 914 785 942 c 1,48,49
EndSplineSet
Validated: 1
EndChar

StartChar: approxequal
Encoding: 8776 8776 169
Width: 1236
GlyphClass: 2
Flags: W
HStem: 592 6<515 725> 906 6<515 725>
LayerCount: 2
Fore
SplineSet
156 752 m 1,0,-1
 150 762 l 1,1,2
 223 906 223 906 240 1016 c 1,3,4
 312 1074 312 1074 387 1074 c 0,5,6
 483 1074 483 1074 582 971 c 0,7,8
 639 912 639 912 725 912 c 0,9,10
 865 912 865 912 1080 1070 c 1,11,-1
 1086 1060 l 1,12,13
 1013 916 1013 916 996 806 c 1,14,15
 924 743 924 743 843 743 c 0,16,17
 752 743 752 743 654 850 c 0,18,19
 603 906 603 906 515 906 c 0,20,21
 382 906 382 906 156 752 c 1,0,-1
156 438 m 1,22,-1
 150 448 l 1,23,24
 223 592 223 592 240 702 c 1,25,26
 312 760 312 760 387 760 c 0,27,28
 483 760 483 760 582 657 c 0,29,30
 639 598 639 598 725 598 c 0,31,32
 865 598 865 598 1080 756 c 1,33,-1
 1086 746 l 1,34,35
 1013 602 1013 602 996 492 c 1,36,37
 924 429 924 429 843 429 c 0,38,39
 752 429 752 429 654 536 c 0,40,41
 603 592 603 592 515 592 c 0,42,43
 382 592 382 592 156 438 c 1,22,-1
EndSplineSet
Validated: 1
EndChar

StartChar: notequal
Encoding: 8800 8800 170
Width: 1266
GlyphClass: 2
Flags: W
HStem: 460 222<226.343 408.206 852.639 1039.66> 518 106<638 973.701> 810 222<226.343 412.23 857.794 1039.66> 868 106<291.909 628>
LayerCount: 2
Fore
SplineSet
302 276 m 1,0,1
 296 286 l 1,2,3
 377 392 377 392 447 509 c 1,4,5
 313 495 313 495 156 460 c 1,6,-1
 150 470 l 1,7,8
 218 588 218 588 237 682 c 1,9,10
 379 643 379 643 516 630 c 1,11,12
 540 675 540 675 579 756 c 0,13,14
 606 812 606 812 628 868 c 1,15,16
 419 868 419 868 156 810 c 1,17,-1
 150 820 l 1,18,19
 218 938 218 938 237 1032 c 1,20,21
 447 974 447 974 646 974 c 0,22,23
 657 974 657 974 668 974 c 1,24,25
 714 1107 714 1107 735 1227 c 1,26,27
 793 1207 793 1207 864 1207 c 0,28,29
 912 1207 912 1207 964 1216 c 1,30,-1
 970 1206 l 1,31,32
 889 1100 889 1100 819 983 c 1,33,34
 953 997 953 997 1110 1032 c 1,35,-1
 1116 1022 l 1,36,37
 1048 904 1048 904 1029 810 c 1,38,39
 887 849 887 849 750 862 c 1,40,41
 726 817 726 817 687 736 c 0,42,43
 660 680 660 680 638 624 c 1,44,45
 846 624 846 624 1110 682 c 1,46,-1
 1116 672 l 1,47,48
 1048 554 1048 554 1029 460 c 1,49,50
 819 518 819 518 620 518 c 0,51,52
 609 518 609 518 598 518 c 1,53,54
 552 385 552 385 531 265 c 1,55,56
 477 286 477 286 407 286 c 0,57,58
 353 286 353 286 302 276 c 1,0,1
EndSplineSet
Validated: 1
EndChar

StartChar: equivalence
Encoding: 8801 8801 171
Width: 1266
GlyphClass: 2
Flags: W
HStem: 285 222<226.343 411.101 854.899 1039.66> 343 106<291.699 974.301> 635 222<226.343 411.101 854.899 1039.66> 693 106<291.699 974.301> 985 222<226.343 411.101 854.899 1039.66> 1043 106<291.699 974.301>
LayerCount: 2
Fore
SplineSet
156 985 m 1,0,-1
 150 995 l 1,1,2
 218 1113 218 1113 237 1207 c 1,3,4
 447 1149 447 1149 646.5 1149 c 128,-1,5
 846 1149 846 1149 1110 1207 c 1,6,-1
 1116 1197 l 1,7,8
 1048 1079 1048 1079 1029 985 c 1,9,10
 819 1043 819 1043 619.5 1043 c 128,-1,11
 420 1043 420 1043 156 985 c 1,0,-1
156 285 m 1,12,-1
 150 295 l 1,13,14
 218 413 218 413 237 507 c 1,15,16
 447 449 447 449 646.5 449 c 128,-1,17
 846 449 846 449 1110 507 c 1,18,-1
 1116 497 l 1,19,20
 1048 379 1048 379 1029 285 c 1,21,22
 819 343 819 343 619.5 343 c 128,-1,23
 420 343 420 343 156 285 c 1,12,-1
156 635 m 1,24,-1
 150 645 l 1,25,26
 218 763 218 763 237 857 c 1,27,28
 447 799 447 799 646.5 799 c 128,-1,29
 846 799 846 799 1110 857 c 1,30,-1
 1116 847 l 1,31,32
 1048 729 1048 729 1029 635 c 1,33,34
 819 693 819 693 619.5 693 c 128,-1,35
 420 693 420 693 156 635 c 1,24,-1
EndSplineSet
Validated: 1
EndChar

StartChar: lessequal
Encoding: 8804 8804 172
Width: 1380
GlyphClass: 2
Flags: W
HStem: 84 222<226.343 419.609 910.391 1103.66> 142 106<293.957 1036.04>
LayerCount: 2
Fore
SplineSet
156 84 m 1,0,-1
 150 94 l 1,1,2
 218 212 218 212 237 306 c 1,3,4
 447 248 447 248 678.5 248 c 128,-1,5
 910 248 910 248 1174 306 c 1,6,-1
 1180 296 l 1,7,8
 1112 178 1112 178 1093 84 c 1,9,10
 883 142 883 142 651.5 142 c 128,-1,11
 420 142 420 142 156 84 c 1,0,-1
150 781 m 1,12,13
 218 899 218 899 237 993 c 1,14,15
 645 1109 645 1109 1174 1390 c 1,16,-1
 1180 1380 l 1,17,18
 1136 1305 1136 1305 1108 1224 c 1,19,20
 750 1115 750 1115 408 922 c 1,21,22
 663 737 663 737 1174 595 c 1,23,-1
 1180 585 l 1,24,25
 1109 460 1109 460 1093 373 c 1,26,27
 693 641 693 641 156 771 c 1,28,-1
 150 781 l 1,12,13
EndSplineSet
Validated: 1
EndChar

StartChar: greaterequal
Encoding: 8805 8805 173
Width: 1380
GlyphClass: 2
Flags: W
HStem: 84 222<276.343 469.609 960.391 1153.66> 142 106<343.957 1086.04>
LayerCount: 2
Fore
SplineSet
206 84 m 1,0,-1
 200 94 l 1,1,2
 268 212 268 212 287 306 c 1,3,4
 497 248 497 248 728.5 248 c 128,-1,5
 960 248 960 248 1224 306 c 1,6,-1
 1230 296 l 1,7,8
 1162 178 1162 178 1143 84 c 1,9,10
 933 142 933 142 701.5 142 c 128,-1,11
 470 142 470 142 206 84 c 1,0,-1
1230 982 m 1,12,13
 1162 864 1162 864 1143 770 c 1,14,15
 735 654 735 654 206 373 c 1,16,-1
 200 383 l 1,17,18
 244 458 244 458 272 539 c 1,19,20
 630 648 630 648 972 841 c 1,21,22
 717 1026 717 1026 206 1168 c 1,23,-1
 200 1178 l 1,24,25
 271 1303 271 1303 287 1390 c 1,26,27
 687 1122 687 1122 1224 992 c 1,28,-1
 1230 982 l 1,12,13
EndSplineSet
Validated: 1
EndChar

StartChar: lozenge
Encoding: 9674 9674 174
Width: 1369
GlyphClass: 2
Flags: W
LayerCount: 2
Fore
SplineSet
587 163 m 1,0,1
 412 477 412 477 150 711 c 1,2,3
 432 1026 432 1026 530 1271 c 1,4,5
 635 1284 635 1284 772 1363 c 1,6,-1
 782 1357 l 1,7,8
 952 1028 952 1028 1219 809 c 1,9,10
 937 494 937 494 839 249 c 1,11,12
 729 234 729 234 597 157 c 1,13,-1
 587 163 l 1,0,1
622 1168 m 1,14,15
 447 996 447 996 358 812 c 1,16,17
 519 477 519 477 740 355 c 1,18,19
 889 482 889 482 1011 726 c 1,20,21
 872 996 872 996 622 1168 c 1,14,15
EndSplineSet
Validated: 1
EndChar

StartChar: Y
Encoding: 89 89 175
Width: 1175
Flags: W
HStem: 0 21G<464 542> 1490 20G<178.5 257 1112.5 1170>
VStem: 464 252<83.9956 429.127>
LayerCount: 2
Fore
SplineSet
474 0 m 5,0,-1
 464 6 l 5,1,2
 489 216 489 216 501 436 c 5,3,4
 317 942 317 942 5 1418 c 5,5,6
 110 1431 110 1431 247 1510 c 5,7,-1
 257 1504 l 5,8,9
 409 990 409 990 629 633 c 5,10,11
 836 996 836 996 965 1427 c 5,12,13
 1065 1453 1065 1453 1160 1510 c 5,14,-1
 1170 1504 l 5,15,16
 869 970 869 970 683 466 c 5,17,18
 697 238 697 238 716 92 c 5,19,20
 610 79 610 79 474 0 c 5,0,-1
EndSplineSet
Validated: 1
EndChar

StartChar: X
Encoding: 88 88 176
Width: 1185
Flags: W
HStem: 0 21G<30 107.5 903 981.5> 1490 20G<203.5 282 1075.5 1153>
DStem2: 520 710 573 620 0.548574 0.836102<-425.225 -46.1748 186.7 613.733>
LayerCount: 2
Fore
SplineSet
40 0 m 1,0,-1
 30 6 l 1,1,2
 334 392 334 392 520 710 c 1,3,4
 302 1068 302 1068 30 1418 c 1,5,6
 135 1431 135 1431 272 1510 c 1,7,-1
 282 1504 l 1,8,9
 438 1154 438 1154 618 869 c 1,10,11
 774 1106 774 1106 916 1420 c 1,12,13
 1008 1433 1008 1433 1143 1510 c 1,14,-1
 1153 1504 l 1,15,16
 856 1086 856 1086 674 781 c 1,17,18
 864 454 864 454 1155 92 c 1,19,20
 1050 79 1050 79 913 0 c 1,21,-1
 903 6 l 1,22,23
 743 348 743 348 573 620 c 1,24,25
 384 334 384 334 267 90 c 1,26,27
 175 77 175 77 40 0 c 1,0,-1
EndSplineSet
Validated: 1
EndChar

StartChar: Z
Encoding: 90 90 177
Width: 1168
Flags: W
HStem: 0 21G<80 204 898 1004.5> 45 95<423.949 911.46> 1374 91<342.579 742.959> 1490 20G<248.5 356.5 916 1068>
LayerCount: 2
Fore
SplineSet
90 0 m 1,0,-1
 80 6 l 1,1,2
 513 726 513 726 745 1370 c 1,3,4
 663 1374 663 1374 580 1374 c 0,5,6
 400 1374 400 1374 171 1258 c 1,7,-1
 165 1268 l 1,8,9
 240 1394 240 1394 257 1510 c 1,10,11
 456 1465 456 1465 624 1465 c 0,12,13
 774 1465 774 1465 1058 1510 c 1,14,-1
 1068 1504 l 1,15,16
 626 750 626 750 418 140 c 1,17,18
 478 136 478 136 553 136 c 0,19,20
 860 136 860 136 1082 252 c 1,21,-1
 1088 242 l 1,22,23
 1013 116 1013 116 996 0 c 1,24,25
 800 45 800 45 558 45 c 0,26,27
 318 45 318 45 90 0 c 1,0,-1
EndSplineSet
Validated: 1
EndChar

StartChar: J
Encoding: 74 74 178
Width: 1169
VWidth: 0
Flags: W
HStem: 0 21G<320 546.5> 1490 20G<910.5 989>
VStem: 778 166<554.502 1227.45>
LayerCount: 2
Fore
SplineSet
451 0 m 1,0,-1
 441 0 l 1,1,2
 199 104 199 104 43 260 c 0,3,4
 33 270 33 270 20 287 c 1,5,-1
 201 383 l 1,6,7
 211 371 211 371 247 336 c 0,8,9
 419 174 419 174 656 145 c 1,10,11
 778 250 778 250 778 730 c 0,12,13
 778 1054 778 1054 737 1418 c 1,14,15
 842 1431 842 1431 979 1510 c 1,16,-1
 989 1504 l 1,17,18
 944 1139 944 1139 944 782 c 0,19,20
 944 663 944 663 955 551 c 1,21,22
 898 373 898 373 791 253 c 0,23,24
 642 88 642 88 451 0 c 1,0,-1
EndSplineSet
Validated: 1
EndChar

StartChar: U
Encoding: 85 85 179
Width: 1409
VWidth: 0
Flags: W
HStem: 0 21G<577.5 759.5> 1490 20G<352 432 1152 1229>
VStem: 215 172<440.291 1240.32> 1018 169<461.017 1306.68>
LayerCount: 2
Fore
SplineSet
665 0 m 1,0,-1
 655 0 l 1,1,2
 500 66 500 66 371 159 c 0,3,4
 234 257 234 257 215 459 c 1,5,6
 221 595 221 595 221 730 c 0,7,8
 221 1087 221 1087 180 1418 c 17,9,10
 282 1430 282 1430 422 1510 c 1,11,-1
 432 1504 l 1,12,13
 387 1172 387 1172 387 782 c 0,14,15
 387 387 387 387 546 268 c 0,16,17
 673 173 673 173 870 145 c 1,18,19
 1018 470 1018 470 1018 800 c 0,20,21
 1018 1008 1018 1008 977 1418 c 1,22,23
 1085 1432 1085 1432 1219 1510 c 1,24,-1
 1229 1504 l 1,25,26
 1187 1194 1187 1194 1187 970 c 0,27,28
 1187 606 1187 606 1190 548 c 1,29,30
 1089 345 1089 345 1005 253 c 0,31,32
 854 88 854 88 665 0 c 1,0,-1
EndSplineSet
Validated: 1
EndChar

StartChar: K
Encoding: 75 75 180
Width: 1252
Flags: W
HStem: 0 21G<180 256> 1490 20G<359.5 435 1074.5 1150>
VStem: 180 252<84.1953 380.16 918.289 1428.02> 224 166<613 1235.07>
LayerCount: 2
Fore
SplineSet
190 0 m 1,0,-1
 180 6 l 1,1,2
 224 364 224 364 224 730 c 0,3,4
 224 1068 224 1068 183 1422 c 1,5,6
 294 1434 294 1434 425 1510 c 1,7,-1
 435 1504 l 1,8,9
 390 1146 390 1146 390 782 c 0,10,11
 390 673 390 673 392 613 c 1,12,13
 692 998 692 998 898 1422 c 1,14,15
 1009 1434 1009 1434 1140 1510 c 1,16,-1
 1150 1504 l 1,17,18
 869 1147 869 1147 740 921 c 1,19,20
 898 450 898 450 1152 89 c 1,21,22
 1035 71 1035 71 910 -3 c 1,23,-1
 900 3 l 1,24,25
 800 400 800 400 596 711 c 1,26,27
 488 564 488 564 403 385 c 1,28,29
 414 230 414 230 432 92 c 1,30,31
 322 77 322 77 190 0 c 1,0,-1
EndSplineSet
Validated: 1
EndChar

StartChar: Q
Encoding: 81 81 181
Width: 1354
VWidth: 0
Flags: W
HStem: 0 21G<562.5 757.5 933 1005.5> 1490 20G<550.5 793.5>
VStem: 120 168<576.22 1015.22> 1066 168<492.972 933.533>
LayerCount: 2
Fore
SplineSet
658 463 m 1,0,1
 775 481 775 481 900 555 c 1,2,-1
 910 549 l 1,3,4
 937 432 937 432 1005 318 c 1,5,6
 1066 480 1066 480 1066 699 c 0,7,8
 1066 975 1066 975 852 1174 c 0,9,10
 678 1336 678 1336 443 1365 c 1,11,12
 288 1159 288 1159 288 811 c 0,13,14
 288 534 288 534 502 336 c 0,15,16
 672 179 672 179 889 148 c 1,17,18
 816 323 816 323 658 463 c 1,0,1
706 0 m 1,19,20
 696 0 l 1,21,22
 429 116 429 116 298 260 c 0,23,24
 120 457 120 457 120 750 c 0,25,26
 120 1044 120 1044 308 1257 c 0,27,28
 453 1420 453 1420 648 1510 c 1,29,-1
 658 1510 l 1,30,31
 929 1389 929 1389 1056 1250 c 0,32,33
 1234 1053 1234 1053 1234 760 c 0,34,35
 1234 461 1234 461 1046 253 c 1,36,37
 1099 171 1099 171 1185 92 c 1,38,39
 1068 74 1068 74 943 0 c 1,40,-1
 933 6 l 1,41,42
 921 63 921 63 901 118 c 1,43,44
 809 47 809 47 706 0 c 1,19,20
EndSplineSet
Validated: 1
EndChar

StartChar: P
Encoding: 80 80 182
Width: 1331
VWidth: 0
Flags: W
HStem: 0 21G<226 302> 388 84<457.886 851.352> 1110 20G<402 478> 1332 178<343.137 804.687>
VStem: 226 252<84.1953 424.626 741.203 1045.8> 264 166<112.773 430 508.308 1030.53> 1040 171<698.696 1099.85>
LayerCount: 2
Fore
SplineSet
236 0 m 1,0,-1
 226 6 l 1,1,2
 264 339 264 339 264 565 c 0,3,4
 264 799 264 799 226 1038 c 1,5,6
 336 1053 336 1053 468 1130 c 1,7,-1
 478 1124 l 1,8,9
 430 838 430 838 430 627 c 0,10,11
 430 575 430 575 432 523 c 1,12,13
 571 472 571 472 682 472 c 0,14,15
 878 472 878 472 976 637 c 0,16,17
 1040 746 1040 746 1040 912 c 0,18,19
 1040 1093 1040 1093 898 1227 c 0,20,21
 788 1332 788 1332 577 1332 c 0,22,23
 344 1332 344 1332 126 1163 c 1,24,-1
 120 1173 l 1,25,26
 197 1305 197 1305 212 1415 c 1,27,28
 364 1510 364 1510 577 1510 c 0,29,30
 872 1510 872 1510 1041 1346 c 0,31,32
 1211 1182 1211 1182 1211 928 c 0,33,34
 1211 704 1211 704 1071 551 c 0,35,36
 922 388 922 388 682 388 c 0,37,38
 578 388 578 388 436 430 c 1,39,40
 447 258 447 258 478 92 c 1,41,42
 368 77 368 77 236 0 c 1,0,-1
EndSplineSet
Validated: 1
EndChar

StartChar: D
Encoding: 68 68 183
Width: 1413
VWidth: 0
Flags: W
HStem: 0 91<696 872.81> 1110 20G<402 478> 1332 178<341.914 793.648>
VStem: 226 244<572.314 619.19 633.612 1045.8> 264 166<146.44 1030.53> 1119 174<457.464 977.092>
LayerCount: 2
Fore
SplineSet
236 0 m 1,0,-1
 226 6 l 1,1,2
 264 339 264 339 264 565 c 0,3,4
 264 799 264 799 226 1038 c 1,5,6
 336 1053 336 1053 468 1130 c 1,7,-1
 478 1124 l 1,8,9
 430 838 430 838 430 627 c 0,10,11
 430 377 430 377 470 139 c 1,12,13
 595 91 595 91 697 91 c 0,14,15
 933 91 933 91 1038 328 c 0,16,17
 1119 510 1119 510 1119 741 c 0,18,19
 1119 996 1119 996 949 1178 c 0,20,21
 805 1332 805 1332 577 1332 c 0,22,23
 342 1332 342 1332 126 1163 c 1,24,-1
 120 1173 l 1,25,26
 197 1305 197 1305 212 1415 c 1,27,28
 361 1510 361 1510 577 1510 c 0,29,30
 872 1510 872 1510 1064 1328 c 0,31,32
 1293 1111 1293 1111 1293 739 c 0,33,34
 1293 505 1293 505 1184 312 c 0,35,36
 1008 -0 1008 -0 696 0 c 1,37,-1
 478 92 l 1,38,39
 368 77 368 77 236 0 c 1,0,-1
EndSplineSet
Validated: 1
EndChar

StartChar: R
Encoding: 82 82 184
Width: 1372
VWidth: 0
Flags: W
HStem: 0 21G<226 302 990 1062.5> 388 84<458.12 745.482> 1110 20G<402 478> 1332 178<339.883 804.227>
VStem: 226 252<84.1953 424.626 741.203 1045.8> 264 166<112.773 430 508.308 1030.53> 1040 171<698.943 1099.85>
LayerCount: 2
Fore
SplineSet
236 0 m 1,0,1
 226 6 l 1,2,3
 264 339 264 339 264 565 c 0,4,5
 264 799 264 799 226 1038 c 1,6,7
 336 1053 336 1053 468 1130 c 1,8,-1
 478 1124 l 1,9,10
 430 838 430 838 430 627 c 0,11,12
 430 575 430 575 432 523 c 1,13,14
 571 472 571 472 682 472 c 0,15,16
 878 472 878 472 976 637 c 0,17,18
 1040 746 1040 746 1040 912 c 0,19,20
 1040 1093 1040 1093 898 1227 c 0,21,22
 786 1332 786 1332 577 1332 c 0,23,24
 342 1332 342 1332 126 1163 c 1,25,-1
 120 1173 l 1,26,27
 197 1305 197 1305 212 1415 c 1,28,29
 364 1510 364 1510 577 1510 c 0,30,31
 872 1510 872 1510 1041 1346 c 0,32,33
 1211 1182 1211 1182 1211 928 c 0,34,35
 1211 705 1211 705 1071 551 c 0,36,37
 992 464 992 464 886 424 c 1,38,39
 1044 244 1044 244 1242 92 c 1,40,41
 1125 74 1125 74 1000 0 c 1,42,-1
 990 6 l 1,43,44
 879 212 879 212 709 388 c 1,45,46
 578 388 578 388 436 430 c 1,47,48
 447 258 447 258 478 92 c 1,49,50
 368 77 368 77 236 0 c 1,0,1
EndSplineSet
Validated: 1
EndChar

StartChar: S
Encoding: 83 83 185
Width: 1179
VWidth: 0
Flags: W
HStem: 0 21G<466.5 707.5> 1490 20G<459 700.5>
VStem: 128 135<1029.25 1201.85> 897 162<339.204 547.244>
DStem2: 418 954 380 758 0.929807 -0.368048<-154.692 585.114>
LayerCount: 2
Fore
SplineSet
613 0 m 1,0,-1
 603 0 l 1,1,2
 330 120 330 120 205 260 c 0,3,4
 153 318 153 318 120 377 c 1,5,-1
 298 465 l 1,6,7
 335 405 335 405 409 336 c 0,8,9
 584 173 584 173 818 145 c 1,10,11
 897 269 897 269 897 415 c 0,12,13
 897 571 897 571 724 634 c 0,14,15
 416 745 416 745 380 758 c 0,16,17
 128 847 128 847 128 1056 c 0,18,19
 128 1160 128 1160 215 1257 c 0,20,21
 363 1422 363 1422 555 1510 c 1,22,-1
 565 1510 l 1,23,24
 836 1389 836 1389 963 1250 c 0,25,26
 975 1237 975 1237 987 1222 c 1,27,-1
 815 1117 l 1,28,29
 792 1144 792 1144 759 1174 c 0,30,31
 579 1336 579 1336 350 1370 c 1,32,33
 263 1250 263 1250 263 1151 c 0,34,35
 263 1016 263 1016 418 954 c 0,36,37
 594 884 594 884 802 802 c 0,38,39
 1059 701 1059 701 1059 505 c 0,40,41
 1059 370 1059 370 953 253 c 0,42,43
 802 86 802 86 613 0 c 1,0,-1
EndSplineSet
Validated: 1
EndChar

StartChar: two
Encoding: 50 50 186
Width: 1228
VWidth: 0
Flags: W
HStem: 0 21G<120 244 918 1024.5> 45 117<293.065 985.094> 1490 20G<507.5 754.5>
VStem: 167 149<1032.61 1190.31> 907 192<858.457 1121.6>
LayerCount: 2
Fore
SplineSet
130 0 m 1,0,-1
 120 6 l 1,1,2
 181 317 181 317 482 565 c 0,3,4
 516 593 516 593 795 790 c 0,5,6
 907 869 907 869 907 999 c 0,7,8
 907 1088 907 1088 816 1173 c 0,9,10
 641 1337 641 1337 397 1365 c 1,11,12
 316 1287 316 1287 316 1141 c 0,13,14
 316 1030 316 1030 449 974 c 1,15,-1
 253 840 l 1,16,17
 167 907 167 907 167 1052 c 0,18,19
 167 1151 167 1151 262 1257 c 0,20,21
 413 1424 413 1424 602 1510 c 1,22,-1
 612 1510 l 1,23,24
 897 1381 897 1381 1010 1250 c 0,25,26
 1099 1148 1099 1148 1099 1001 c 0,27,28
 1099 759 1099 759 837 627 c 0,29,30
 665 541 665 541 570 478 c 0,31,32
 380 352 380 352 290 198 c 1,33,34
 387 162 387 162 622 162 c 0,35,36
 932 162 932 162 1102 252 c 1,37,-1
 1108 242 l 1,38,39
 1033 116 1033 116 1016 0 c 1,40,41
 820 45 820 45 578 45 c 0,42,43
 358 45 358 45 130 0 c 1,0,-1
EndSplineSet
Validated: 1
EndChar

StartChar: three
Encoding: 51 51 187
Width: 1179
Flags: W
HStem: 0 21G<465.5 709.5> 1490 20G<472.5 660>
VStem: 188 127<1064.06 1250.65> 767 171<1045.56 1212.62> 897 162<339.469 546.147>
DStem2: 653 861 724 634 0.932297 -0.361694<0 312.947>
LayerCount: 2
Fore
SplineSet
613 0 m 1,0,-1
 603 0 l 1,1,2
 328 121 328 121 205 260 c 0,3,4
 153 319 153 319 120 377 c 1,5,-1
 298 465 l 1,6,7
 335 405 335 405 409 336 c 0,8,9
 584 173 584 173 814 145 c 1,10,11
 897 268 897 268 897 415 c 0,12,13
 897 567 897 567 724 634 c 2,14,-1
 425 750 l 1,15,-1
 610 878 l 1,16,17
 767 995 767 995 767 1104 c 0,18,19
 767 1190 767 1190 683 1247 c 0,20,21
 536 1346 536 1346 366 1368 c 1,22,23
 315 1270 315 1270 315 1204.5 c 128,-1,24
 315 1139 315 1139 390 1087 c 9,25,-1
 230 992 l 17,26,27
 188 1030 188 1030 188 1122 c 8,28,29
 188 1201 188 1201 261 1288 c 0,30,31
 390 1441 390 1441 555 1510 c 1,32,-1
 565 1510 l 1,33,34
 755 1439 755 1439 853 1341 c 0,35,36
 938 1256 938 1256 938 1174 c 0,37,38
 938 1056 938 1056 807 962 c 0,39,40
 720 900 720 900 653 861 c 1,41,-1
 802 802 l 2,42,43
 1059 700 1059 700 1059 505 c 0,44,45
 1059 372 1059 372 953 253 c 0,46,47
 806 88 806 88 613 0 c 1,0,-1
EndSplineSet
Validated: 1
EndChar

StartChar: five
Encoding: 53 53 188
Width: 1179
Flags: W
HStem: 0 21G<465.5 709.5> 1490 20G<411.5 536.5 964 1041>
VStem: 263 157<957.121 1401.34> 897 162<339.469 545.757>
DStem2: 431 955 200 838 0.931871 -0.36279<-24.7763 554.571>
LayerCount: 2
Fore
SplineSet
613 0 m 1,0,-1
 603 0 l 1,1,2
 328 121 328 121 205 260 c 0,3,4
 153 319 153 319 120 377 c 1,5,-1
 298 465 l 1,6,7
 335 405 335 405 409 336 c 0,8,9
 584 173 584 173 814 145 c 1,10,11
 897 268 897 268 897 415 c 0,12,13
 897 567 897 567 724 634 c 2,14,-1
 200 838 l 1,15,16
 263 1046 263 1046 263 1213 c 0,17,18
 263 1322 263 1322 238 1418 c 1,19,20
 343 1431 343 1431 480 1510 c 1,21,22
 593 1463 593 1463 767 1463 c 0,23,24
 893 1463 893 1463 1035 1510 c 1,25,-1
 1041 1500 l 1,26,27
 964 1368 964 1368 949 1258 c 1,28,29
 823 1273 823 1273 706 1327 c 0,30,31
 585 1383 585 1383 487 1478 c 1,32,33
 420 1273 420 1273 420 1074 c 0,34,35
 420 1023 420 1023 431 955 c 1,36,-1
 802 802 l 2,37,38
 1059 696 1059 696 1059 505 c 0,39,40
 1059 372 1059 372 953 253 c 0,41,42
 806 88 806 88 613 0 c 1,0,-1
EndSplineSet
Validated: 1
EndChar

StartChar: cent
Encoding: 162 162 189
Width: 1007
Flags: W
VStem: 100 154<419.887 781.902> 431 180<-138.553 13.7512 1106.41 1262.69> 472 96<243 909>
LayerCount: 2
Fore
SplineSet
611 -123 m 1,0,1
 539 -144 539 -144 441 -200 c 1,2,-1
 431 -194 l 1,3,4
 444 -73 444 -73 453 44 c 1,5,6
 335 101 335 101 265 170 c 0,7,8
 100 333 100 333 100 569 c 0,9,10
 100 763 100 763 222 908 c 0,11,12
 325 1030 325 1030 455 1099 c 1,13,14
 448 1190 448 1190 437 1250 c 1,15,16
 509 1271 509 1271 607 1327 c 1,17,-1
 617 1321 l 1,18,19
 602 1212 602 1212 592 1103 c 1,20,21
 726 1047 726 1047 814 961 c 0,22,23
 858 918 858 918 880 884 c 1,24,-1
 734 785 l 1,25,26
 717 806 717 806 686 834 c 0,27,28
 637 877 637 877 577 909 c 1,29,30
 568 761 568 761 568 615 c 0,31,32
 568 385 568 385 581 186 c 1,33,34
 658 157 658 157 752 142 c 1,35,36
 779 194 779 194 779 251 c 128,-1,37
 779 308 779 308 769 342 c 1,38,-1
 907 293 l 1,39,40
 885 256 885 256 857 222 c 0,41,42
 746 87 746 87 595 16 c 1,43,44
 602 -56 602 -56 611 -123 c 1,0,1
466 243 m 1,45,46
 472 381 472 381 472 514 c 0,47,48
 472 774 472 774 464 956 c 1,49,50
 400 976 400 976 327 988 c 1,51,52
 254 808 254 808 254 616 c 0,53,54
 254 419 254 419 394 296 c 0,55,56
 427 267 427 267 466 243 c 1,45,46
EndSplineSet
Validated: 1
EndChar

StartChar: paragraph
Encoding: 182 182 190
Width: 1042
Flags: W
HStem: 0 21G<637 665.5> 1490 20G<353 459.5 813.5 892>
VStem: 100 633<868.516 1280.48> 637 96<20.3269 438.654> 684 49<390.076 778> 793 54<389.938 1171.04>
LayerCount: 2
Fore
SplineSet
647 0 m 1,0,-1
 637 6 l 1,1,2
 684 364 684 364 684 778 c 1,3,-1
 470 645 l 1,4,-1
 460 645 l 1,5,6
 274 680 274 680 188 794 c 0,7,8
 100 910 100 910 100 1090 c 0,9,10
 100 1260 100 1260 220 1385 c 0,11,12
 295 1463 295 1463 411 1510 c 1,13,-1
 421 1510 l 1,14,15
 498 1489 498 1489 559 1455 c 0,16,17
 614 1424 614 1424 642 1402 c 1,18,-1
 640 1418 l 1,19,20
 745 1431 745 1431 882 1510 c 1,21,-1
 892 1504 l 1,22,23
 848 1154 848 1154 847 782 c 0,24,25
 847 429 847 429 889 92 c 1,26,27
 835 78 835 78 793 59 c 1,28,-1
 793 1373 l 1,29,-1
 733 1373 l 1,30,-1
 733 37 l 1,31,32
 684 21 684 21 647 0 c 1,0,-1
EndSplineSet
Validated: 1
EndChar

StartChar: uni00B5
Encoding: 181 181 191
Width: 1213
Flags: W
HStem: -380 21G<150 226> 0 21G<564.5 705.5 811 887> 1110 20G<329 405 987 1063>
VStem: 150 252<-295.805 160.783 599.743 1045.8> 194 173<-160.732 168 397.601 861.875> 811 252<645.848 1045.8> 859 166<151.672 1005.44>
LayerCount: 2
Fore
SplineSet
662 0 m 1,0,-1
 652 0 l 1,1,2
 477 62 477 62 365 168 c 1,3,4
 374 -63 374 -63 402 -288 c 1,5,6
 292 -303 292 -303 160 -380 c 1,7,-1
 150 -374 l 1,8,9
 194 -16 194 -16 194 350 c 0,10,11
 194 683 194 683 153 1038 c 1,12,13
 263 1053 263 1053 395 1130 c 1,14,-1
 405 1124 l 1,15,16
 367 808 367 808 367 593 c 0,17,18
 367 405 367 405 492 296 c 0,19,20
 623 182 623 182 832 145 c 1,21,22
 859 345 859 345 859 503 c 0,23,24
 859 778 859 778 811 1038 c 1,25,26
 921 1053 921 1053 1053 1130 c 1,27,-1
 1063 1124 l 1,28,29
 1025 791 1025 791 1025 565 c 0,30,31
 1025 331 1025 331 1063 92 c 1,32,33
 953 77 953 77 821 0 c 1,34,-1
 811 6 l 1,35,36
 819 52 819 52 825 97 c 1,37,38
 749 36 749 36 662 0 c 1,0,-1
EndSplineSet
Validated: 1
EndChar

StartChar: M
Encoding: 77 77 192
Width: 1705
Flags: W
HStem: 0 21G<50 101.5 674 743.5 1410.5 1476> 1490 20G<331.5 410 1359 1436>
LayerCount: 2
Fore
SplineSet
60 0 m 5,0,-1
 50 6 l 5,1,2
 204 686 204 686 253 1268 c 5,3,4
 206 1364 206 1364 158 1418 c 5,5,6
 263 1431 263 1431 400 1510 c 5,7,-1
 410 1504 l 5,8,9
 584 780 584 780 818 297 c 5,10,11
 1035 774 1035 774 1218 1352 c 5,12,13
 1202 1392 1202 1392 1184 1418 c 5,14,15
 1292 1432 1292 1432 1426 1510 c 5,16,-1
 1436 1504 l 5,17,18
 1460 732 1460 732 1655 92 c 5,19,20
 1539 75 1539 75 1413 0 c 5,21,22
 1408 3 1408 3 1403 6 c 5,23,24
 1403 602 1403 602 1272 1144 c 5,25,26
 1045 666 1045 666 926 92 c 5,27,28
 803 72 803 72 684 0 c 5,29,-1
 674 6 l 5,30,31
 546 606 546 606 336 1066 c 5,32,33
 228 482 228 482 228 76 c 5,34,35
 143 49 143 49 60 0 c 5,0,-1
EndSplineSet
Validated: 1
EndChar

StartChar: B
Encoding: 66 66 193
Width: 1385
VWidth: 0
Flags: W
HStem: 0 91<696 915.238> 722 172<697.523 997.341> 1110 20G<402 478> 1332 178<343.988 750.181>
VStem: 226 244<572.314 619.19 633.612 1045.8> 264 166<146.44 1030.53> 843 141<1017.19 1245.1> 1107 158<279.017 612.992>
LayerCount: 2
Fore
SplineSet
236 0 m 1,0,-1
 226 6 l 1,1,2
 264 339 264 339 264 565 c 0,3,4
 264 799 264 799 226 1038 c 1,5,6
 336 1053 336 1053 468 1130 c 1,7,-1
 478 1124 l 1,8,9
 430 838 430 838 430 627 c 0,10,11
 430 377 430 377 470 139 c 1,12,13
 589 91 589 91 697 91 c 0,14,15
 887 91 887 91 986 184 c 24,16,17
 1107 295 1107 295 1107 457 c 0,18,19
 1107 583 1107 583 1024 657 c 0,20,21
 951 722 951 722 814 722 c 0,22,23
 683 722 683 722 541 609 c 1,24,-1
 535 619 l 1,25,26
 612 751 612 751 627 861 c 1,27,28
 843 955 843 955 843 1106 c 0,29,30
 843 1204 843 1204 787 1259 c 0,31,32
 713 1332 713 1332 577 1332 c 0,33,34
 347 1332 347 1332 126 1163 c 1,35,-1
 120 1173 l 1,36,37
 197 1305 197 1305 212 1415 c 1,38,39
 376 1510 376 1510 577 1510 c 0,40,41
 760 1510 760 1510 879 1401 c 0,42,43
 984 1305 984 1305 984 1164 c 0,44,45
 984 1077 984 1077 932 1006 c 0,46,47
 862 907 862 907 748 889 c 1,48,49
 783 894 783 894 815 894 c 0,50,51
 1030 894 1030 894 1159 753 c 0,52,53
 1265 638 1265 638 1265 472 c 0,54,55
 1265 284 1265 284 1119 140 c 0,56,57
 977 0 977 0 696 0 c 1,58,-1
 478 92 l 1,59,60
 368 77 368 77 236 0 c 1,0,-1
EndSplineSet
Validated: 1
EndChar

StartChar: F
Encoding: 70 70 194
Width: 1031
Flags: W
HStem: 0 21G<180 256> 690 93<391 691.562> 1258 252<753.735 896.805>
LayerCount: 2
Fore
SplineSet
190 0 m 1,0,-1
 180 6 l 1,1,2
 224 364 224 364 224 730 c 0,3,4
 224 1063 224 1063 183 1418 c 1,5,6
 288 1431 288 1431 425 1510 c 1,7,8
 538 1463 538 1463 692 1463 c 0,9,10
 833 1463 833 1463 975 1510 c 1,11,-1
 981 1500 l 1,12,13
 904 1368 904 1368 889 1258 c 1,14,15
 753 1267 753 1267 631 1327 c 0,16,17
 511 1386 511 1386 432 1478 c 1,18,19
 391 1140 391 1140 390 783 c 1,20,21
 640 783 640 783 868 898 c 1,22,-1
 874 888 l 1,23,24
 797 756 797 756 782 646 c 1,25,26
 606 690 606 690 391 690 c 1,27,28
 395 385 395 385 432 92 c 1,29,30
 322 77 322 77 190 0 c 1,0,-1
EndSplineSet
Validated: 1
EndChar

StartChar: dollar
Encoding: 36 36 195
Width: 1179
Flags: W
VStem: 128 135<1029.31 1200.02> 499 180<-89.0479 28 1487.53 1598.55> 530 106<250.318 666 905 1258.93> 897 162<340.125 547.147>
DStem2: 418 954 380 758 0.929807 -0.368048<-154.871 132.401 217.525 228.104 308.696 585.283>
LayerCount: 2
Fore
SplineSet
509 -150 m 1,0,-1
 499 -144 l 1,1,2
 508 -51 508 -51 516 42 c 1,3,4
 307 145 307 145 205 260 c 0,5,6
 154 318 154 318 120 377 c 1,7,-1
 298 465 l 1,8,9
 335 405 335 405 409 336 c 0,10,11
 466 283 466 283 530 244 c 1,12,13
 542 471 542 471 543 699 c 1,14,-1
 380 758 l 2,15,16
 128 848 128 848 128 1056 c 0,17,18
 128 1159 128 1159 215 1257 c 0,19,20
 344 1403 344 1403 508 1486 c 1,21,22
 504 1535 504 1535 499 1583 c 1,23,24
 571 1604 571 1604 669 1660 c 1,25,-1
 679 1654 l 1,26,27
 668 1560 668 1560 660 1463 c 1,28,29
 857 1365 857 1365 963 1250 c 0,30,31
 975 1237 975 1237 987 1222 c 1,32,-1
 815 1117 l 1,33,34
 792 1144 792 1144 759 1174 c 0,35,36
 705 1223 705 1223 647 1260 c 1,37,38
 636 1070 636 1070 635 868 c 1,39,-1
 802 802 l 2,40,41
 1059 700 1059 700 1059 505 c 0,42,43
 1059 374 1059 374 953 253 c 0,44,45
 826 109 826 109 669 28 c 1,46,47
 674 -23 674 -23 679 -74 c 1,48,49
 607 -94 607 -94 509 -150 c 1,0,-1
541 905 m 1,50,51
 537 1116 537 1116 522 1324 c 1,52,53
 440 1357 440 1357 350 1370 c 1,54,55
 263 1250 263 1250 263 1151 c 0,56,57
 263 1016 263 1016 418 954 c 2,58,-1
 541 905 l 1,50,51
636 666 m 1,59,60
 640 422 640 422 657 183 c 1,61,62
 734 155 734 155 818 145 c 1,63,64
 897 269 897 269 897 415 c 0,65,66
 897 571 897 571 724 634 c 2,67,-1
 636 666 l 1,59,60
EndSplineSet
Validated: 1
EndChar

StartChar: Agrave
Encoding: 192 192 196
Width: 1285
Flags: W
HStem: 0 21G<5 62.5 1028 1106.5> 496 81<363 915> 1490 20G<688 766>
LayerCount: 2
Fore
SplineSet
15 0 m 1,0,-1
 5 6 l 1,1,2
 341 691 341 691 514 1418 c 1,3,4
 620 1431 620 1431 756 1510 c 1,5,-1
 766 1504 l 1,6,7
 942 738 942 738 1280 92 c 1,8,9
 1175 79 1175 79 1038 0 c 1,10,-1
 1028 6 l 1,11,12
 988 254 988 254 915 486 c 1,13,14
 824 496 824 496 615 496 c 24,15,16
 444 496 444 496 323 476 c 1,17,18
 270 303 270 303 210 83 c 1,19,20
 110 57 110 57 15 0 c 1,0,-1
621 1247 m 1,21,22
 469 911 469 911 363 588 c 1,23,24
 465 577 465 577 611 577 c 0,25,26
 791 577 791 577 884 586 c 1,27,28
 798 890 798 890 621 1247 c 1,21,22
520 1880 m 1,29,-1
 530 1874 l 1,30,31
 587 1700 587 1700 729 1595 c 1,32,-1
 729 1585 l 1,33,34
 655 1562 655 1562 607 1530 c 1,35,-1
 597 1536 l 1,36,37
 485 1698 485 1698 320 1778 c 1,38,-1
 325 1788 l 1,39,40
 390 1799 390 1799 520 1880 c 1,29,-1
EndSplineSet
Validated: 1
EndChar

StartChar: Aacute
Encoding: 193 193 197
Width: 1285
Flags: W
HStem: 0 21G<5 62.5 1028 1106.5> 496 81<363 915> 1490 20G<688 766>
LayerCount: 2
Fore
SplineSet
15 0 m 1,0,-1
 5 6 l 1,1,2
 341 691 341 691 514 1418 c 1,3,4
 620 1431 620 1431 756 1510 c 1,5,-1
 766 1504 l 1,6,7
 942 738 942 738 1280 92 c 1,8,9
 1175 79 1175 79 1038 0 c 1,10,-1
 1028 6 l 1,11,12
 988 254 988 254 915 486 c 1,13,14
 824 496 824 496 615 496 c 24,15,16
 444 496 444 496 323 476 c 1,17,18
 270 303 270 303 210 83 c 1,19,20
 110 57 110 57 15 0 c 1,0,-1
621 1247 m 1,21,22
 469 911 469 911 363 588 c 1,23,24
 465 577 465 577 611 577 c 0,25,26
 791 577 791 577 884 586 c 1,27,28
 798 890 798 890 621 1247 c 1,21,22
785 1880 m 1,29,30
 915 1799 915 1799 980 1788 c 1,31,-1
 985 1778 l 1,32,33
 820 1698 820 1698 708 1536 c 1,34,-1
 698 1530 l 1,35,36
 650 1562 650 1562 576 1585 c 1,37,-1
 576 1595 l 1,38,39
 718 1700 718 1700 775 1874 c 1,40,-1
 785 1880 l 1,29,30
EndSplineSet
Validated: 1
EndChar

StartChar: Acircumflex
Encoding: 194 194 198
Width: 1285
Flags: W
HStem: 0 21G<5 62.5 1028 1106.5> 496 81<363 915> 1490 20G<688 766>
LayerCount: 2
Fore
SplineSet
15 0 m 1,0,-1
 5 6 l 1,1,2
 341 691 341 691 514 1418 c 1,3,4
 620 1431 620 1431 756 1510 c 1,5,-1
 766 1504 l 1,6,7
 942 738 942 738 1280 92 c 1,8,9
 1175 79 1175 79 1038 0 c 1,10,-1
 1028 6 l 1,11,12
 988 254 988 254 915 486 c 1,13,14
 824 496 824 496 615 496 c 24,15,16
 444 496 444 496 323 476 c 1,17,18
 270 303 270 303 210 83 c 1,19,20
 110 57 110 57 15 0 c 1,0,-1
621 1247 m 1,21,22
 469 911 469 911 363 588 c 1,23,24
 465 577 465 577 611 577 c 0,25,26
 791 577 791 577 884 586 c 1,27,28
 798 890 798 890 621 1247 c 1,21,22
753 1880 m 1,29,-1
 763 1874 l 1,30,31
 763 1705 763 1705 917 1595 c 1,32,-1
 917 1585 l 1,33,34
 843 1562 843 1562 795 1530 c 1,35,-1
 785 1536 l 1,36,37
 690 1619 690 1619 656 1741 c 1,38,39
 628 1619 628 1619 529 1536 c 1,40,-1
 519 1530 l 1,41,42
 471 1562 471 1562 397 1585 c 1,43,-1
 397 1595 l 1,44,45
 527 1671 527 1671 543 1791 c 1,46,47
 607 1804 607 1804 753 1880 c 1,29,-1
EndSplineSet
Validated: 1
EndChar

StartChar: Atilde
Encoding: 195 195 199
Width: 1285
Flags: W
HStem: 0 21G<5 62.5 1028 1106.5> 496 81<363 915> 1490 20G<688 766> 1557 150<700.964 823.764> 1730 150<505.665 628.224>
LayerCount: 2
Fore
SplineSet
15 0 m 1,0,-1
 5 6 l 1,1,2
 341 691 341 691 514 1418 c 1,3,4
 620 1431 620 1431 756 1510 c 1,5,-1
 766 1504 l 1,6,7
 942 738 942 738 1280 92 c 1,8,9
 1175 79 1175 79 1038 0 c 1,10,-1
 1028 6 l 1,11,12
 988 254 988 254 915 486 c 1,13,14
 824 496 824 496 615 496 c 24,15,16
 444 496 444 496 323 476 c 1,17,18
 270 303 270 303 210 83 c 1,19,20
 110 57 110 57 15 0 c 1,0,-1
621 1247 m 1,21,22
 469 911 469 911 363 588 c 1,23,24
 465 577 465 577 611 577 c 0,25,26
 791 577 791 577 884 586 c 1,27,28
 798 890 798 890 621 1247 c 1,21,22
944 1880 m 1,29,-1
 955 1873 l 1,30,31
 876 1729 876 1729 860 1616 c 1,32,33
 835 1557 835 1557 777 1557 c 0,34,35
 720 1557 720 1557 677 1639 c 0,36,37
 631 1730 631 1730 575 1730 c 0,38,39
 550 1730 550 1730 524 1704 c 0,40,41
 426 1608 426 1608 384 1557 c 1,42,-1
 373 1564 l 1,43,44
 452 1708 452 1708 468 1821 c 1,45,46
 493 1880 493 1880 551 1880 c 0,47,48
 610 1880 610 1880 651 1798 c 0,49,50
 697 1707 697 1707 753 1707 c 0,51,52
 775 1707 775 1707 804 1733 c 0,53,54
 895 1818 895 1818 944 1880 c 1,29,-1
EndSplineSet
Validated: 1
EndChar

StartChar: Adieresis
Encoding: 196 196 200
Width: 1285
Flags: W
HStem: 0 21G<5 62.5 1028 1106.5> 496 81<363 915> 1490 20G<688 766>
VStem: 413 188<1675.44 1730.56 1734 1785.45> 429 162<1638.53 1770.38> 716 188<1675.44 1730.56 1734 1785.45> 732 162<1638.53 1770.38>
LayerCount: 2
Fore
SplineSet
15 0 m 1,0,-1
 5 6 l 1,1,2
 341 691 341 691 514 1418 c 1,3,4
 620 1431 620 1431 756 1510 c 1,5,-1
 766 1504 l 1,6,7
 942 738 942 738 1280 92 c 1,8,9
 1175 79 1175 79 1038 0 c 1,10,-1
 1028 6 l 1,11,12
 988 254 988 254 915 486 c 1,13,14
 824 496 824 496 615 496 c 24,15,16
 444 496 444 496 323 476 c 1,17,18
 270 303 270 303 210 83 c 1,19,20
 110 57 110 57 15 0 c 1,0,-1
621 1247 m 1,21,22
 469 911 469 911 363 588 c 1,23,24
 465 577 465 577 611 577 c 0,25,26
 791 577 791 577 884 586 c 1,27,28
 798 890 798 890 621 1247 c 1,21,22
898 1860 m 1,29,-1
 908 1854 l 1,30,31
 894 1796 894 1796 894 1732 c 0,32,33
 894 1686 894 1686 904 1637 c 1,34,35
 815 1609 815 1609 726 1549 c 1,36,-1
 716 1555 l 1,37,38
 732 1614 732 1614 732 1674 c 0,39,40
 732 1720 732 1720 719 1772 c 1,41,42
 803 1796 803 1796 898 1860 c 1,29,-1
595 1860 m 1,43,-1
 605 1854 l 1,44,45
 591 1796 591 1796 591 1732 c 0,46,47
 591 1686 591 1686 601 1637 c 1,48,49
 512 1609 512 1609 423 1549 c 1,50,-1
 413 1555 l 1,51,52
 429 1614 429 1614 429 1674 c 0,53,54
 429 1720 429 1720 416 1772 c 1,55,56
 500 1796 500 1796 595 1860 c 1,43,-1
EndSplineSet
Validated: 1
EndChar

StartChar: Aring
Encoding: 197 197 201
Width: 1285
Flags: W
HStem: 0 21G<5 62.5 1028 1106.5> 496 81<363 915> 1490 20G<688 766>
VStem: 473 77<1654.59 1793.76> 725 80<1619.1 1758.49>
LayerCount: 2
Fore
SplineSet
15 0 m 1,0,-1
 5 6 l 1,1,2
 341 691 341 691 514 1418 c 1,3,4
 620 1431 620 1431 756 1510 c 1,5,-1
 766 1504 l 1,6,7
 942 738 942 738 1280 92 c 1,8,9
 1175 79 1175 79 1038 0 c 1,10,-1
 1028 6 l 1,11,12
 988 254 988 254 915 486 c 1,13,14
 824 496 824 496 615 496 c 24,15,16
 444 496 444 496 323 476 c 1,17,18
 270 303 270 303 210 83 c 1,19,20
 110 57 110 57 15 0 c 1,0,-1
621 1247 m 1,21,22
 469 911 469 911 363 588 c 1,23,24
 465 577 465 577 611 577 c 0,25,26
 791 577 791 577 884 586 c 1,27,28
 798 890 798 890 621 1247 c 1,21,22
574 1795 m 1,29,30
 550 1761 550 1761 550 1725 c 0,31,32
 550 1677 550 1677 596 1649 c 0,33,34
 636 1625 636 1625 702 1618 c 1,35,36
 725 1651 725 1651 725 1688 c 0,37,38
 725 1732 725 1732 676 1766 c 0,39,40
 640 1791 640 1791 574 1795 c 1,29,30
639 1880 m 1,41,42
 711 1861 711 1861 758 1812 c 128,-1,43
 805 1763 805 1763 805 1703 c 0,44,45
 805 1647 805 1647 756 1597 c 0,46,47
 709 1549 709 1549 632 1536 c 1,48,49
 570 1554 570 1554 522 1601 c 0,50,51
 473 1650 473 1650 473 1718 c 0,52,53
 473 1774 473 1774 536 1827 c 0,54,55
 568 1854 568 1854 639 1880 c 1,41,42
EndSplineSet
Validated: 1
EndChar

StartChar: AE
Encoding: 198 198 202
Width: 1812
Flags: W
HStem: 0 21G<5 80 893 1006.5 1592.5 1677.5> 45 91<1141.01 1578.89> 690 94<674.095 937 1104 1404.94> 1258 252<1466.74 1609.8>
VStem: 937 167<186.642 690 784 1226.69>
LayerCount: 2
Fore
SplineSet
903 0 m 1,0,-1
 893 6 l 1,1,2
 935 344 935 344 937 690 c 1,3,4
 785 689 785 689 615 684 c 1,5,6
 423 387 423 387 297 94 c 1,7,8
 145 79 145 79 15 0 c 1,9,-1
 5 6 l 1,10,11
 448 567 448 567 896 1418 c 1,12,13
 1001 1431 1001 1431 1138 1510 c 1,14,15
 1251 1463 1251 1463 1405 1463 c 0,16,17
 1546 1463 1546 1463 1688 1510 c 1,18,-1
 1694 1500 l 1,19,20
 1617 1368 1617 1368 1602 1258 c 1,21,22
 1466 1267 1466 1267 1344 1327 c 0,23,24
 1224 1386 1224 1386 1145 1478 c 1,25,26
 1103 1133 1103 1133 1103 783 c 1,27,28
 1353 783 1353 783 1581 898 c 1,29,-1
 1587 888 l 1,30,31
 1510 756 1510 756 1495 646 c 1,32,33
 1320 690 1320 690 1104 690 c 1,34,35
 1108 411 1108 411 1139 145 c 1,36,37
 1203 136 1203 136 1316 136 c 0,38,39
 1525 136 1525 136 1756 252 c 1,40,-1
 1762 242 l 1,41,42
 1685 110 1685 110 1670 0 c 1,43,44
 1515 45 1515 45 1321 45 c 0,45,46
 1110 45 1110 45 903 0 c 1,0,-1
937 784 m 1,47,48
 936 1000 936 1000 915 1234 c 1,49,-1
 670 797 l 1,50,51
 801 784 801 784 937 784 c 1,47,48
EndSplineSet
Validated: 1
EndChar

StartChar: Amacron
Encoding: 256 256 203
Width: 1285
Flags: W
HStem: 0 21G<5 62.5 1028 1106.5> 496 81<363 915> 1490 20G<688 766> 1611 166<443.221 651.569 656.082 666.456 671.801 880.24> 1638 112<460.113 862.426>
LayerCount: 2
Fore
SplineSet
15 0 m 1,0,-1
 5 6 l 1,1,2
 341 691 341 691 514 1418 c 1,3,4
 620 1431 620 1431 756 1510 c 1,5,-1
 766 1504 l 1,6,7
 942 738 942 738 1280 92 c 1,8,9
 1175 79 1175 79 1038 0 c 1,10,-1
 1028 6 l 1,11,12
 988 254 988 254 915 486 c 1,13,14
 824 496 824 496 615 496 c 24,15,16
 444 496 444 496 323 476 c 1,17,18
 270 303 270 303 210 83 c 1,19,20
 110 57 110 57 15 0 c 1,0,-1
621 1247 m 1,21,22
 469 911 469 911 363 588 c 1,23,24
 465 577 465 577 611 577 c 0,25,26
 791 577 791 577 884 586 c 1,27,28
 798 890 798 890 621 1247 c 1,21,22
927 1777 m 1,29,-1
 933 1767 l 1,30,31
 889 1695 889 1695 867 1611 c 1,32,33
 720 1638 720 1638 654 1638 c 0,34,35
 577 1638 577 1638 397 1611 c 1,36,-1
 391 1621 l 1,37,38
 435 1695 435 1695 456 1777 c 1,39,40
 588 1750 588 1750 669 1750 c 0,41,42
 758 1750 758 1750 927 1777 c 1,29,-1
EndSplineSet
Validated: 1
EndChar

StartChar: Abreve
Encoding: 258 258 204
Width: 1285
Flags: W
HStem: 0 21G<5 62.5 1028 1106.5> 496 81<363 915> 1490 20G<688 766> 1596 136<545.889 774.729>
LayerCount: 2
Fore
SplineSet
15 0 m 1,0,-1
 5 6 l 1,1,2
 341 691 341 691 514 1418 c 1,3,4
 620 1431 620 1431 756 1510 c 1,5,-1
 766 1504 l 1,6,7
 942 738 942 738 1280 92 c 1,8,9
 1175 79 1175 79 1038 0 c 1,10,-1
 1028 6 l 1,11,12
 988 254 988 254 915 486 c 1,13,14
 824 496 824 496 615 496 c 24,15,16
 444 496 444 496 323 476 c 1,17,18
 270 303 270 303 210 83 c 1,19,20
 110 57 110 57 15 0 c 1,0,-1
621 1247 m 1,21,22
 469 911 469 911 363 588 c 1,23,24
 465 577 465 577 611 577 c 0,25,26
 791 577 791 577 884 586 c 1,27,28
 798 890 798 890 621 1247 c 1,21,22
434 1859 m 1,29,-1
 444 1865 l 1,30,31
 576 1732 576 1732 656 1732 c 0,32,33
 744 1732 744 1732 886 1865 c 1,34,-1
 896 1859 l 1,35,36
 846 1596 846 1596 654 1596 c 128,-1,37
 462 1596 462 1596 434 1859 c 1,29,-1
EndSplineSet
Validated: 1
EndChar

StartChar: Aogonek
Encoding: 260 260 205
Width: 1285
Flags: W
HStem: -380 9<1181.83 1188> 0 21G<5 62.5> 496 81<366.198 884> 1490 20G<688 766>
VStem: 835 154<-253.08 -36.4305>
LayerCount: 2
Fore
SplineSet
621 1247 m 1,0,1
 469 911 469 911 363 588 c 1,2,3
 465 577 465 577 611 577 c 0,4,5
 791 577 791 577 884 586 c 1,6,7
 798 893 798 893 621 1247 c 1,0,1
15 0 m 1,8,-1
 5 6 l 1,9,10
 341 691 341 691 514 1418 c 1,11,12
 620 1431 620 1431 756 1510 c 1,13,-1
 766 1504 l 1,14,15
 944 735 944 735 1280 92 c 1,16,17
 1176 79 1176 79 1041 1 c 1,18,19
 989 -63 989 -63 989 -137 c 0,20,21
 989 -267 989 -267 1188 -371 c 1,22,-1
 1184 -380 l 1,23,24
 1074 -348 1074 -348 944 -348 c 1,25,26
 835 -280 835 -280 835 -163 c 0,27,28
 835 -10 835 -10 1020 48 c 1,29,30
 982 273 982 273 915 486 c 1,31,32
 824 496 824 496 615 496 c 0,33,34
 444 496 444 496 323 476 c 1,35,36
 270 303 270 303 210 83 c 1,37,38
 110 57 110 57 15 0 c 1,8,-1
EndSplineSet
Validated: 1
EndChar

StartChar: Ccedilla
Encoding: 199 199 206
Width: 1287
VWidth: 0
Flags: W
HStem: -380 9<500 506.17> 1490 20G<550.5 782.5>
VStem: 120 168<576.005 1015.87> 699 154<-253.08 -37.243>
LayerCount: 2
Fore
SplineSet
614 38 m 1,0,1
 408 139 408 139 298 260 c 0,2,3
 120 456 120 456 120 750 c 128,-1,4
 120 1044 120 1044 308 1257 c 0,5,6
 453 1420 453 1420 648 1510 c 1,7,-1
 658 1510 l 1,8,9
 907 1399 907 1399 1056 1250 c 0,10,11
 1066 1240 1066 1240 1079 1223 c 1,12,-1
 898 1127 l 1,13,14
 888 1139 888 1139 852 1174 c 0,15,16
 686 1335 686 1335 443 1365 c 1,17,18
 288 1162 288 1162 288 811 c 0,19,20
 288 534 288 534 502 336 c 0,21,22
 680 172 680 172 911 145 c 1,23,24
 982 226 982 226 982 401 c 0,25,26
 982 497 982 497 966 552 c 1,27,-1
 1187 484 l 1,28,29
 1138 353 1138 353 1046 253 c 0,30,31
 906 100 906 100 742 17 c 1,32,33
 853 -44 853 -44 853 -163 c 0,34,35
 853 -280 853 -280 744 -348 c 1,36,37
 614 -348 614 -348 504 -380 c 1,38,-1
 500 -371 l 1,39,40
 699 -267 699 -267 699 -137 c 0,41,42
 699 -42 699 -42 614 38 c 1,0,1
EndSplineSet
Validated: 1
EndChar

StartChar: Cacute
Encoding: 262 262 207
Width: 1287
VWidth: 0
Flags: W
HStem: 0 21G<562.5 799> 1490 20G<550.5 782.5>
VStem: 120 168<576.22 1015.87>
LayerCount: 2
Fore
SplineSet
785 1880 m 1,0,1
 915 1799 915 1799 980 1788 c 1,2,-1
 985 1778 l 1,3,4
 820 1698 820 1698 708 1536 c 1,5,-1
 698 1530 l 1,6,7
 650 1562 650 1562 576 1585 c 1,8,-1
 576 1595 l 1,9,10
 718 1700 718 1700 775 1874 c 1,11,-1
 785 1880 l 1,0,1
706 0 m 1,12,-1
 696 0 l 1,13,14
 429 116 429 116 298 260 c 0,15,16
 120 457 120 457 120 750 c 0,17,18
 120 1044 120 1044 308 1257 c 0,19,20
 453 1420 453 1420 648 1510 c 1,21,-1
 658 1510 l 1,22,23
 907 1399 907 1399 1056 1250 c 0,24,25
 1066 1240 1066 1240 1079 1223 c 1,26,-1
 898 1127 l 1,27,28
 888 1139 888 1139 852 1174 c 0,29,30
 686 1335 686 1335 443 1365 c 1,31,32
 288 1162 288 1162 288 811 c 0,33,34
 288 534 288 534 502 336 c 24,35,36
 680 172 680 172 911 145 c 1,37,38
 982 226 982 226 982 401 c 0,39,40
 982 497 982 497 966 552 c 9,41,-1
 1187 484 l 17,42,43
 1138 353 1138 353 1046 253 c 0,44,45
 892 84 892 84 706 0 c 1,12,-1
EndSplineSet
Validated: 1
EndChar

StartChar: Ccircumflex
Encoding: 264 264 208
Width: 1287
VWidth: 0
Flags: W
HStem: 0 21G<562.5 799> 1490 20G<550.5 782.5>
VStem: 120 168<576.22 1015.87>
LayerCount: 2
Fore
SplineSet
753 1880 m 1,0,-1
 763 1874 l 1,1,2
 763 1705 763 1705 917 1595 c 1,3,-1
 917 1585 l 1,4,5
 843 1562 843 1562 795 1530 c 1,6,-1
 785 1536 l 1,7,8
 690 1619 690 1619 656 1741 c 1,9,10
 628 1619 628 1619 529 1536 c 1,11,-1
 519 1530 l 1,12,13
 471 1562 471 1562 397 1585 c 1,14,-1
 397 1595 l 1,15,16
 527 1671 527 1671 543 1791 c 1,17,18
 607 1804 607 1804 753 1880 c 1,0,-1
706 0 m 1,19,-1
 696 0 l 1,20,21
 429 116 429 116 298 260 c 0,22,23
 120 457 120 457 120 750 c 0,24,25
 120 1044 120 1044 308 1257 c 0,26,27
 453 1420 453 1420 648 1510 c 1,28,-1
 658 1510 l 1,29,30
 907 1399 907 1399 1056 1250 c 0,31,32
 1066 1240 1066 1240 1079 1223 c 1,33,-1
 898 1127 l 1,34,35
 888 1139 888 1139 852 1174 c 0,36,37
 686 1335 686 1335 443 1365 c 1,38,39
 288 1162 288 1162 288 811 c 0,40,41
 288 534 288 534 502 336 c 24,42,43
 680 172 680 172 911 145 c 1,44,45
 982 226 982 226 982 401 c 0,46,47
 982 497 982 497 966 552 c 9,48,-1
 1187 484 l 17,49,50
 1138 353 1138 353 1046 253 c 0,51,52
 892 84 892 84 706 0 c 1,19,-1
EndSplineSet
Validated: 1
EndChar

StartChar: Cdotaccent
Encoding: 266 266 209
Width: 1287
VWidth: 0
Flags: W
HStem: 0 21G<562.5 799> 1490 20G<550.5 782.5>
VStem: 120 168<576.22 1015.87> 536 228<1606.98 1673.37 1676.26 1730.8 1733.73 1800.81> 552 202<1619.4 1789.6>
LayerCount: 2
Fore
SplineSet
758 1880 m 1,0,-1
 768 1874 l 1,1,2
 754 1787 754 1787 754 1732 c 0,3,4
 754 1694 754 1694 764 1617 c 1,5,6
 670 1600 670 1600 546 1529 c 1,7,-1
 536 1535 l 1,8,9
 552 1623 552 1623 552 1675 c 0,10,11
 552 1715 552 1715 539 1792 c 1,12,13
 634 1808 634 1808 758 1880 c 1,0,-1
706 0 m 1,14,-1
 696 0 l 1,15,16
 429 116 429 116 298 260 c 0,17,18
 120 457 120 457 120 750 c 0,19,20
 120 1044 120 1044 308 1257 c 0,21,22
 453 1420 453 1420 648 1510 c 1,23,-1
 658 1510 l 1,24,25
 907 1399 907 1399 1056 1250 c 0,26,27
 1066 1240 1066 1240 1079 1223 c 1,28,-1
 898 1127 l 1,29,30
 888 1139 888 1139 852 1174 c 0,31,32
 686 1335 686 1335 443 1365 c 1,33,34
 288 1162 288 1162 288 811 c 0,35,36
 288 534 288 534 502 336 c 24,37,38
 680 172 680 172 911 145 c 1,39,40
 982 226 982 226 982 401 c 0,41,42
 982 497 982 497 966 552 c 9,43,-1
 1187 484 l 17,44,45
 1138 353 1138 353 1046 253 c 0,46,47
 892 84 892 84 706 0 c 1,14,-1
EndSplineSet
Validated: 1
EndChar

StartChar: Ccaron
Encoding: 268 268 210
Width: 1287
VWidth: 0
Flags: W
HStem: 0 21G<562.5 799> 1490 20G<550.5 782.5>
VStem: 120 168<576.22 1015.87>
LayerCount: 2
Fore
SplineSet
519 1880 m 1,0,-1
 529 1874 l 1,1,2
 624 1791 624 1791 658 1669 c 1,3,4
 686 1791 686 1791 785 1874 c 1,5,-1
 795 1880 l 1,6,7
 843 1848 843 1848 917 1825 c 1,8,-1
 917 1815 l 1,9,10
 787 1739 787 1739 771 1619 c 1,11,12
 707 1606 707 1606 561 1530 c 1,13,-1
 551 1536 l 1,14,15
 551 1705 551 1705 397 1815 c 1,16,-1
 397 1825 l 1,17,18
 471 1848 471 1848 519 1880 c 1,0,-1
706 0 m 1,19,-1
 696 0 l 1,20,21
 429 116 429 116 298 260 c 0,22,23
 120 457 120 457 120 750 c 0,24,25
 120 1044 120 1044 308 1257 c 0,26,27
 453 1420 453 1420 648 1510 c 1,28,-1
 658 1510 l 1,29,30
 907 1399 907 1399 1056 1250 c 0,31,32
 1066 1240 1066 1240 1079 1223 c 1,33,-1
 898 1127 l 1,34,35
 888 1139 888 1139 852 1174 c 0,36,37
 686 1335 686 1335 443 1365 c 1,38,39
 288 1162 288 1162 288 811 c 0,40,41
 288 534 288 534 502 336 c 24,42,43
 680 172 680 172 911 145 c 1,44,45
 982 226 982 226 982 401 c 0,46,47
 982 497 982 497 966 552 c 9,48,-1
 1187 484 l 17,49,50
 1138 353 1138 353 1046 253 c 0,51,52
 892 84 892 84 706 0 c 1,19,-1
EndSplineSet
Validated: 1
EndChar

StartChar: Eth
Encoding: 208 208 211
Width: 1413
VWidth: 0
Flags: W
HStem: 0 91<696 872.81> 599 146<147.394 256.683 438.307 773.176> 626 92<432 750.583> 1110 20G<402 478> 1332 178<341.914 793.648>
VStem: 226 252<740.68 1045.8> 264 166<146.409 618> 1119 174<457.464 977.092>
LayerCount: 2
Fore
SplineSet
236 0 m 1,0,1
 226 6 l 1,2,3
 264 339 264 339 264 565 c 0,4,5
 264 591 264 591 264 618 c 1,6,7
 186 611 186 611 106 599 c 1,8,-1
 100 609 l 1,9,10
 143 681 143 681 165 745 c 1,11,12
 211 736 211 736 259 730 c 1,13,14
 251 883 251 883 226 1038 c 1,15,16
 336 1053 336 1053 468 1130 c 1,17,-1
 478 1124 l 1,18,19
 440 898 440 898 432 718 c 1,20,21
 634 718 634 718 815 745 c 1,22,-1
 821 735 l 1,23,24
 778 663 778 663 755 599 c 1,25,26
 614 626 614 626 430 626 c 1,27,28
 430 376 430 376 470 139 c 1,29,30
 595 91 595 91 697 91 c 0,31,32
 933 91 933 91 1038 328 c 0,33,34
 1119 510 1119 510 1119 741 c 0,35,36
 1119 996 1119 996 949 1178 c 0,37,38
 805 1332 805 1332 577 1332 c 0,39,40
 342 1332 342 1332 126 1163 c 1,41,-1
 120 1173 l 1,42,43
 197 1305 197 1305 212 1415 c 1,44,45
 361 1510 361 1510 577 1510 c 0,46,47
 872 1510 872 1510 1064 1328 c 0,48,49
 1293 1111 1293 1111 1293 739 c 0,50,51
 1293 505 1293 505 1184 312 c 0,52,53
 1008 -0 1008 -0 696 0 c 1,54,-1
 478 92 l 1,55,56
 368 77 368 77 236 0 c 1,0,1
EndSplineSet
Validated: 1
EndChar

StartChar: Dcaron
Encoding: 270 270 212
Width: 1413
VWidth: 0
Flags: W
HStem: 0 91<696 872.81> 1110 20G<402 478> 1332 178<341.914 793.648>
VStem: 226 244<572.314 619.19 633.612 1045.8> 264 166<146.44 1030.53> 1119 174<457.464 977.092>
LayerCount: 2
Fore
SplineSet
519 1880 m 1,0,-1
 529 1874 l 1,1,2
 624 1791 624 1791 658 1669 c 1,3,4
 686 1791 686 1791 785 1874 c 1,5,-1
 795 1880 l 1,6,7
 843 1848 843 1848 917 1825 c 1,8,-1
 917 1815 l 1,9,10
 787 1739 787 1739 771 1619 c 1,11,12
 707 1606 707 1606 561 1530 c 1,13,-1
 551 1536 l 1,14,15
 551 1705 551 1705 397 1815 c 1,16,-1
 397 1825 l 1,17,18
 471 1848 471 1848 519 1880 c 1,0,-1
236 0 m 1,19,-1
 226 6 l 1,20,21
 264 339 264 339 264 565 c 0,22,23
 264 799 264 799 226 1038 c 1,24,25
 336 1053 336 1053 468 1130 c 1,26,-1
 478 1124 l 1,27,28
 430 838 430 838 430 627 c 0,29,30
 430 377 430 377 470 139 c 1,31,32
 595 91 595 91 697 91 c 0,33,34
 933 91 933 91 1038 328 c 0,35,36
 1119 510 1119 510 1119 741 c 0,37,38
 1119 996 1119 996 949 1178 c 0,39,40
 805 1332 805 1332 577 1332 c 0,41,42
 342 1332 342 1332 126 1163 c 1,43,-1
 120 1173 l 1,44,45
 197 1305 197 1305 212 1415 c 1,46,47
 361 1510 361 1510 577 1510 c 0,48,49
 872 1510 872 1510 1064 1328 c 0,50,51
 1293 1111 1293 1111 1293 739 c 0,52,53
 1293 505 1293 505 1184 312 c 0,54,55
 1008 -0 1008 -0 696 0 c 1,56,-1
 478 92 l 1,57,58
 368 77 368 77 236 0 c 1,19,-1
EndSplineSet
Validated: 1
EndChar

StartChar: Dcroat
Encoding: 272 272 213
Width: 1413
VWidth: 0
Flags: W
HStem: 0 91<696 872.81> 599 146<147.394 256.683 438.307 773.176> 626 92<432 750.583> 1110 20G<402 478> 1332 178<341.914 793.648>
VStem: 226 252<740.68 1045.8> 264 166<146.409 618> 1119 174<457.464 977.092>
LayerCount: 2
Fore
SplineSet
236 0 m 1,0,1
 226 6 l 1,2,3
 264 339 264 339 264 565 c 0,4,5
 264 591 264 591 264 618 c 1,6,7
 186 611 186 611 106 599 c 1,8,-1
 100 609 l 1,9,10
 143 681 143 681 165 745 c 1,11,12
 211 736 211 736 259 730 c 1,13,14
 251 883 251 883 226 1038 c 1,15,16
 336 1053 336 1053 468 1130 c 1,17,-1
 478 1124 l 1,18,19
 440 898 440 898 432 718 c 1,20,21
 634 718 634 718 815 745 c 1,22,-1
 821 735 l 1,23,24
 778 663 778 663 755 599 c 1,25,26
 614 626 614 626 430 626 c 1,27,28
 430 376 430 376 470 139 c 1,29,30
 595 91 595 91 697 91 c 0,31,32
 933 91 933 91 1038 328 c 0,33,34
 1119 510 1119 510 1119 741 c 0,35,36
 1119 996 1119 996 949 1178 c 0,37,38
 805 1332 805 1332 577 1332 c 0,39,40
 342 1332 342 1332 126 1163 c 1,41,-1
 120 1173 l 1,42,43
 197 1305 197 1305 212 1415 c 1,44,45
 361 1510 361 1510 577 1510 c 0,46,47
 872 1510 872 1510 1064 1328 c 0,48,49
 1293 1111 1293 1111 1293 739 c 0,50,51
 1293 505 1293 505 1184 312 c 0,52,53
 1008 -0 1008 -0 696 0 c 1,54,-1
 478 92 l 1,55,56
 368 77 368 77 236 0 c 1,0,1
EndSplineSet
Validated: 1
EndChar

StartChar: Egrave
Encoding: 200 200 214
Width: 1099
Flags: W
HStem: 0 21G<180 293.5 879.5 964.5> 45 91<428.012 865.888> 690 93<391 691.938> 1258 252<753.735 896.805>
VStem: 224 167<230.531 690 783 1231.35>
LayerCount: 2
Fore
SplineSet
520 1880 m 1,0,1
 530 1874 l 1,2,3
 587 1700 587 1700 729 1595 c 1,4,-1
 729 1585 l 1,5,6
 655 1562 655 1562 607 1530 c 1,7,-1
 597 1536 l 1,8,9
 485 1698 485 1698 320 1778 c 1,10,-1
 325 1788 l 1,11,12
 390 1799 390 1799 520 1880 c 1,0,1
190 0 m 1,13,-1
 180 6 l 1,14,15
 224 364 224 364 224 730 c 0,16,17
 224 1064 224 1064 183 1418 c 1,18,19
 288 1431 288 1431 425 1510 c 1,20,21
 538 1463 538 1463 692 1463 c 0,22,23
 833 1463 833 1463 975 1510 c 1,24,-1
 981 1500 l 1,25,26
 904 1368 904 1368 889 1258 c 1,27,28
 753 1267 753 1267 631 1327 c 0,29,30
 511 1386 511 1386 432 1478 c 1,31,32
 390 1133 390 1133 390 783 c 1,33,34
 640 783 640 783 868 898 c 1,35,-1
 874 888 l 1,36,37
 797 756 797 756 782 646 c 1,38,39
 607 690 607 690 391 690 c 1,40,41
 395 411 395 411 426 145 c 1,42,43
 490 136 490 136 603 136 c 0,44,45
 812 136 812 136 1043 252 c 1,46,-1
 1049 242 l 1,47,48
 972 110 972 110 957 0 c 1,49,50
 802 45 802 45 608 45 c 0,51,52
 397 45 397 45 190 0 c 1,13,-1
EndSplineSet
Validated: 1
EndChar

StartChar: Eacute
Encoding: 201 201 215
Width: 1099
Flags: W
HStem: 0 21G<180 293.5 879.5 964.5> 45 91<428.012 865.888> 690 93<391 691.938> 1258 252<753.735 896.805>
VStem: 224 167<230.531 690 783 1231.35>
LayerCount: 2
Fore
SplineSet
785 1880 m 1,0,1
 915 1799 915 1799 980 1788 c 1,2,-1
 985 1778 l 1,3,4
 820 1698 820 1698 708 1536 c 1,5,-1
 698 1530 l 1,6,7
 650 1562 650 1562 576 1585 c 1,8,-1
 576 1595 l 1,9,10
 718 1700 718 1700 775 1874 c 1,11,-1
 785 1880 l 1,0,1
190 0 m 1,12,-1
 180 6 l 1,13,14
 224 364 224 364 224 730 c 0,15,16
 224 1064 224 1064 183 1418 c 1,17,18
 288 1431 288 1431 425 1510 c 1,19,20
 538 1463 538 1463 692 1463 c 0,21,22
 833 1463 833 1463 975 1510 c 1,23,-1
 981 1500 l 1,24,25
 904 1368 904 1368 889 1258 c 1,26,27
 753 1267 753 1267 631 1327 c 0,28,29
 511 1386 511 1386 432 1478 c 1,30,31
 390 1133 390 1133 390 783 c 1,32,33
 640 783 640 783 868 898 c 1,34,-1
 874 888 l 1,35,36
 797 756 797 756 782 646 c 1,37,38
 607 690 607 690 391 690 c 1,39,40
 395 411 395 411 426 145 c 1,41,42
 490 136 490 136 603 136 c 0,43,44
 812 136 812 136 1043 252 c 1,45,-1
 1049 242 l 1,46,47
 972 110 972 110 957 0 c 1,48,49
 802 45 802 45 608 45 c 0,50,51
 397 45 397 45 190 0 c 1,12,-1
EndSplineSet
Validated: 1
EndChar

StartChar: Ecircumflex
Encoding: 202 202 216
Width: 1099
Flags: W
HStem: 0 21G<180 293.5 879.5 964.5> 45 91<428.012 865.888> 690 93<391 691.938> 1258 252<753.735 896.805>
VStem: 224 167<230.531 690 783 1231.35>
LayerCount: 2
Fore
SplineSet
753 1880 m 1,0,-1
 763 1874 l 1,1,2
 763 1705 763 1705 917 1595 c 1,3,-1
 917 1585 l 1,4,5
 843 1562 843 1562 795 1530 c 1,6,-1
 785 1536 l 1,7,8
 690 1619 690 1619 656 1741 c 1,9,10
 628 1619 628 1619 529 1536 c 1,11,-1
 519 1530 l 1,12,13
 471 1562 471 1562 397 1585 c 1,14,-1
 397 1595 l 1,15,16
 527 1671 527 1671 543 1791 c 1,17,18
 607 1804 607 1804 753 1880 c 1,0,-1
190 0 m 1,19,-1
 180 6 l 1,20,21
 224 364 224 364 224 730 c 0,22,23
 224 1064 224 1064 183 1418 c 1,24,25
 288 1431 288 1431 425 1510 c 1,26,27
 538 1463 538 1463 692 1463 c 0,28,29
 833 1463 833 1463 975 1510 c 1,30,-1
 981 1500 l 1,31,32
 904 1368 904 1368 889 1258 c 1,33,34
 753 1267 753 1267 631 1327 c 0,35,36
 511 1386 511 1386 432 1478 c 1,37,38
 390 1133 390 1133 390 783 c 1,39,40
 640 783 640 783 868 898 c 1,41,-1
 874 888 l 1,42,43
 797 756 797 756 782 646 c 1,44,45
 607 690 607 690 391 690 c 1,46,47
 395 411 395 411 426 145 c 1,48,49
 490 136 490 136 603 136 c 0,50,51
 812 136 812 136 1043 252 c 1,52,-1
 1049 242 l 1,53,54
 972 110 972 110 957 0 c 1,55,56
 802 45 802 45 608 45 c 0,57,58
 397 45 397 45 190 0 c 1,19,-1
EndSplineSet
Validated: 1
EndChar

StartChar: Edieresis
Encoding: 203 203 217
Width: 1099
Flags: W
HStem: 0 21G<180 293.5 879.5 964.5> 45 91<428.012 865.888> 690 93<391 691.938> 1258 252<753.735 896.805>
VStem: 224 167<230.531 690 783 1231.35> 413 188<1675.44 1730.56 1734 1785.45> 429 162<1638.53 1770.38> 716 188<1675.44 1730.56 1734 1785.45> 732 162<1638.53 1770.38>
LayerCount: 2
Fore
SplineSet
898 1860 m 1,0,-1
 908 1854 l 1,1,2
 894 1796 894 1796 894 1732 c 0,3,4
 894 1686 894 1686 904 1637 c 1,5,6
 815 1609 815 1609 726 1549 c 1,7,-1
 716 1555 l 1,8,9
 732 1614 732 1614 732 1674 c 0,10,11
 732 1720 732 1720 719 1772 c 1,12,13
 803 1796 803 1796 898 1860 c 1,0,-1
595 1860 m 1,14,-1
 605 1854 l 1,15,16
 591 1796 591 1796 591 1732 c 0,17,18
 591 1686 591 1686 601 1637 c 1,19,20
 512 1609 512 1609 423 1549 c 1,21,-1
 413 1555 l 1,22,23
 429 1614 429 1614 429 1674 c 0,24,25
 429 1720 429 1720 416 1772 c 1,26,27
 500 1796 500 1796 595 1860 c 1,14,-1
190 0 m 1,28,-1
 180 6 l 1,29,30
 224 364 224 364 224 730 c 0,31,32
 224 1064 224 1064 183 1418 c 1,33,34
 288 1431 288 1431 425 1510 c 1,35,36
 538 1463 538 1463 692 1463 c 0,37,38
 833 1463 833 1463 975 1510 c 1,39,-1
 981 1500 l 1,40,41
 904 1368 904 1368 889 1258 c 1,42,43
 753 1267 753 1267 631 1327 c 0,44,45
 511 1386 511 1386 432 1478 c 1,46,47
 390 1133 390 1133 390 783 c 1,48,49
 640 783 640 783 868 898 c 1,50,-1
 874 888 l 1,51,52
 797 756 797 756 782 646 c 1,53,54
 607 690 607 690 391 690 c 1,55,56
 395 411 395 411 426 145 c 1,57,58
 490 136 490 136 603 136 c 0,59,60
 812 136 812 136 1043 252 c 1,61,-1
 1049 242 l 1,62,63
 972 110 972 110 957 0 c 1,64,65
 802 45 802 45 608 45 c 0,66,67
 397 45 397 45 190 0 c 1,28,-1
EndSplineSet
Validated: 1
EndChar

StartChar: Emacron
Encoding: 274 274 218
Width: 1099
Flags: W
HStem: 0 21G<180 293.5 879.5 964.5> 45 91<428.012 865.888> 690 93<391 691.938> 1258 252<753.735 896.805> 1611 166<443.221 651.569 656.082 666.456 671.801 880.24> 1638 112<460.113 862.426>
VStem: 224 167<230.531 690 783 1231.35>
LayerCount: 2
Fore
SplineSet
927 1777 m 1,0,1
 933 1767 l 1,2,3
 889 1695 889 1695 867 1611 c 1,4,5
 720 1638 720 1638 654 1638 c 0,6,7
 577 1638 577 1638 397 1611 c 1,8,-1
 391 1621 l 1,9,10
 435 1695 435 1695 456 1777 c 1,11,12
 588 1750 588 1750 669 1750 c 0,13,14
 758 1750 758 1750 927 1777 c 1,0,1
190 0 m 1,15,-1
 180 6 l 1,16,17
 224 364 224 364 224 730 c 0,18,19
 224 1064 224 1064 183 1418 c 1,20,21
 288 1431 288 1431 425 1510 c 1,22,23
 538 1463 538 1463 692 1463 c 0,24,25
 833 1463 833 1463 975 1510 c 1,26,-1
 981 1500 l 1,27,28
 904 1368 904 1368 889 1258 c 1,29,30
 753 1267 753 1267 631 1327 c 0,31,32
 511 1386 511 1386 432 1478 c 1,33,34
 390 1133 390 1133 390 783 c 1,35,36
 640 783 640 783 868 898 c 1,37,-1
 874 888 l 1,38,39
 797 756 797 756 782 646 c 1,40,41
 607 690 607 690 391 690 c 1,42,43
 395 411 395 411 426 145 c 1,44,45
 490 136 490 136 603 136 c 0,46,47
 812 136 812 136 1043 252 c 1,48,-1
 1049 242 l 1,49,50
 972 110 972 110 957 0 c 1,51,52
 802 45 802 45 608 45 c 0,53,54
 397 45 397 45 190 0 c 1,15,-1
EndSplineSet
Validated: 1
EndChar

